<?xml version="1.0" encoding="UTF-8" standalone="no"?>
<!-- Created with Inkscape (http://www.inkscape.org/) -->
<svg id="svg9201" xmlns:rdf="http://www.w3.org/1999/02/22-rdf-syntax-ns#" xmlns="http://www.w3.org/2000/svg" xml:space="preserve" height="462.5" width="273.75" version="1.1" xmlns:cc="http://creativecommons.org/ns#" xmlns:dc="http://purl.org/dc/elements/1.1/"><metadata id="metadata9207"><rdf:RDF><cc:Work rdf:about=""><dc:format>image/svg+xml</dc:format><dc:type rdf:resource="http://purl.org/dc/dcmitype/StillImage"/><dc:title/></cc:Work></rdf:RDF></metadata><defs id="defs9205"><clipPath id="clipPath9217" clipPathUnits="userSpaceOnUse"><path id="path9219" d="m 2.000008,2 210.000002,0 0,366 -210.000002,0 0,-366 z"/></clipPath><clipPath id="clipPath9629" clipPathUnits="userSpaceOnUse"><path id="path9631" d="M 2.294779e-6,0 219,0 219,370 2.294779e-6,370 l 0,-370 z"/></clipPath></defs><g id="g9209" transform="matrix(1.25,0,0,-1.25,0,462.5)"><g id="g9211"/><g id="g9213"><g id="g9215" clip-path="url(#clipPath9217)"><path id="path9221" d="m 22.40001,352.55 -0.7,0 7.3,12.6 0.5,-0.3 -7.1,-12.3 z" fill-rule="nonzero" stroke="none" fill="#000"/><path id="path9223" d="m 29.60001,340.05 -0.7,0 -7.2,12.5 0.7,0 7.2,-12.5 z" fill-rule="nonzero" stroke="none" fill="#000"/><path id="path9225" d="m 22.40001,327.6 -0.7,0 7.2,12.45 0.7,0 -7.2,-12.45 z" fill-rule="nonzero" stroke="none" fill="#000"/><path id="path9227" d="m 29.60001,315.1 -0.7,0 -7.2,12.5 0.7,0 7.2,-12.5 z" fill-rule="nonzero" stroke="none" fill="#000"/><path id="path9229" d="m 22.40001,302.65 -0.7,0 7.2,12.45 0.7,0 -7.2,-12.45 z" fill-rule="nonzero" stroke="none" fill="#000"/><path id="path9231" d="m 29.60001,290.2 -0.7,0 -7.2,12.45 0.7,0 7.2,-12.45 z" fill-rule="nonzero" stroke="none" fill="#000"/><path id="path9233" d="m 22.40001,277.7 -0.7,0 7.2,12.5 0.7,0 -7.2,-12.5 z" fill-rule="nonzero" stroke="none" fill="#000"/><path id="path9235" d="m 29.60001,265.25 -0.7,0 -7.2,12.45 0.7,0 7.2,-12.45 z" fill-rule="nonzero" stroke="none" fill="#000"/><path id="path9237" d="m 22.40001,252.8 -0.7,0 7.2,12.45 0.7,0 -7.2,-12.45 z" fill-rule="nonzero" stroke="none" fill="#000"/><path id="path9239" d="m 29.60001,240.3 -0.7,0 -7.2,12.5 0.7,0 7.2,-12.5 z" fill-rule="nonzero" stroke="none" fill="#000"/><path id="path9241" d="m 22.40001,227.85 -0.7,0 7.2,12.45 0.7,0 -7.2,-12.45 z" fill-rule="nonzero" stroke="none" fill="#000"/><path id="path9243" d="m 29.60001,215.35 -0.7,0 -7.2,12.5 0.7,0 7.2,-12.5 z" fill-rule="nonzero" stroke="none" fill="#000"/><path id="path9245" d="m 22.40001,202.9 -0.7,0 7.2,12.45 0.7,0 -7.2,-12.45 z" fill-rule="nonzero" stroke="none" fill="#000"/><path id="path9247" d="m 29.60001,190.45 -0.7,0 -7.2,12.45 0.7,0 7.2,-12.45 z" fill-rule="nonzero" stroke="none" fill="#000"/><path id="path9249" d="m 22.40001,177.95 -0.7,0 7.2,12.5 0.7,0 -7.2,-12.5 z" fill-rule="nonzero" stroke="none" fill="#000"/><path id="path9251" d="m 29.60001,165.5 -0.7,0 -7.2,12.45 0.7,0 7.2,-12.45 z" fill-rule="nonzero" stroke="none" fill="#000"/><path id="path9253" d="m 22.40001,153 -0.7,0 7.2,12.5 0.7,0 -7.2,-12.5 z" fill-rule="nonzero" stroke="none" fill="#000"/><g id="g9255" transform="matrix(0.05,0,0,0.05,25.75001,136.85)"><text id="text9257" transform="scale(1,-1)"><tspan id="tspan9259" style="writing-mode:lr;" font-family="Helvetica" fill-rule="nonzero" font-size="200" stroke="none" font-variant="normal" y="0" x="0" font-weight="normal" fill="#000000">O</tspan></text>
</g><path id="path9261" d="m 26.95001,145.1 -0.5,-0.3 -4.75,8.2 0.7,0 4.55,-7.9 z" fill-rule="nonzero" stroke="none" fill="#000"/><path id="path9263" d="m 29.55001,126.45 -0.6,-0.6 0,9.4 0.6,0 0,-8.8 z" fill-rule="nonzero" stroke="none" fill="#000"/><path id="path9265" d="m 43.65001,126.45 0,-0.6 -14.7,0 0.6,0.6 14.1,0 z" fill-rule="nonzero" stroke="none" fill="#000"/><path id="path9267" d="m 57.75001,126.45 0.3,-0.3 0,-0.3 -14.4,0 0,0.6 14.1,0 z" fill-rule="nonzero" stroke="none" fill="#000"/><g id="g9269" transform="matrix(0.05,0,0,0.05,54.55001,136.85)"><text id="text9271" transform="scale(1,-1)"><tspan id="tspan9273" style="writing-mode:lr;" font-family="Helvetica" fill-rule="nonzero" font-size="200" stroke="none" font-variant="normal" y="0" x="0" font-weight="normal" fill="#000000">O</tspan></text>
</g><path id="path9275" d="m 57.75001,135.25 0.6,0 0,-8.8 -0.3,-0.3 -0.3,0.3 0,8.8 z" fill-rule="nonzero" stroke="none" fill="#000"/><path id="path9277" d="m 50.50001,153 0.65,0.05 4.6,-7.95 -0.5,-0.3 -4.75,8.2 z" fill-rule="nonzero" stroke="none" fill="#000"/><path id="path9279" d="m 54.25001,166.9 0.65,0.05 -3.75,-13.9 -0.65,-0.05 3.75,13.9 z" fill-rule="nonzero" stroke="none" fill="#000"/><path id="path9281" d="m 47.05001,179.4 0.65,0 7.2,-12.45 -0.65,-0.05 -7.2,12.5 z" fill-rule="nonzero" stroke="none" fill="#000"/><path id="path9283" d="m 54.25001,191.85 0.65,0 -7.2,-12.45 -0.65,0 7.2,12.45 z" fill-rule="nonzero" stroke="none" fill="#000"/><path id="path9285" d="m 47.05001,204.25 0.65,0.15 7.2,-12.55 -0.65,0 -7.2,12.4 z" fill-rule="nonzero" stroke="none" fill="#000"/><path id="path9287" d="m 47.05001,218.85 0.65,-0.25 0,-14.2 -0.65,-0.15 0,14.6 z" fill-rule="nonzero" stroke="none" fill="#000"/><path id="path9289" d="m 49.65001,205.05 0.599998,0 0,12.59999 -0.599998,0 0,-12.59999 z" fill-rule="nonzero" stroke="none" fill="#000"/><path id="path9291" d="m 57.20001,228.95 0.74999,-0.1 -10.24999,-10.25 -0.65,0.25 10.15,10.1 z" fill-rule="nonzero" stroke="none" fill="#000"/><path id="path9293" d="m 50.05001,241.3 0.6,0.15 7.29999,-12.6 -0.74999,0.1 -7.15,12.35 z" fill-rule="nonzero" stroke="none" fill="#000"/><path id="path9295" d="m 50.05001,255.95 0.6,-0.35 0,-14.15 -0.6,-0.15 0,14.65 z" fill-rule="nonzero" stroke="none" fill="#000"/><path id="path9297" d="m 52.65001,242.1 0.599998,0 0,12.20001 -0.599998,0 0,-12.20001 z" fill-rule="nonzero" stroke="none" fill="#000"/><path id="path9299" d="m 63.75001,263.85 0,-0.7 -13.1,-7.55 -0.6,0.35 13.7,7.9 z" fill-rule="nonzero" stroke="none" fill="#000"/><path id="path9301" d="m 78.45,255.95 -0.59999,-0.35 -14.1,7.55 0,0.7 14.69999,-7.9 z" fill-rule="nonzero" stroke="none" fill="#000"/><path id="path9303" d="m 78.45,241.3 -0.59999,0.15 0,14.15 0.59999,0.35 0,-14.65 z" fill-rule="nonzero" stroke="none" fill="#000"/><path id="path9305" d="m 75.30001,242.1 0.599998,0 0,12.15001 -0.599998,0 0,-12.15001 z" fill-rule="nonzero" stroke="none" fill="#000"/><path id="path9307" d="m 71.35001,228.95 -0.75,-0.1 7.25,12.6 0.59999,-0.15 -7.09999,-12.35 z" fill-rule="nonzero" stroke="none" fill="#000"/><path id="path9309" d="m 81.45,218.85 -0.59999,-0.25 -10.25,10.25 0.75,0.1 10.09999,-10.1 z" fill-rule="nonzero" stroke="none" fill="#000"/><path id="path9311" d="m 81.45,204.25 -0.59999,0.15 0,14.2 0.59999,0.25 0,-14.6 z" fill-rule="nonzero" stroke="none" fill="#000"/><path id="path9313" d="m 78.25001,205.05 0.599999,0 0,12.59999 -0.599999,0 0,-12.59999 z" fill-rule="nonzero" stroke="none" fill="#000"/><path id="path9315" d="m 74.30001,191.85 -0.7,0 7.25,12.55 0.59999,-0.15 -7.14999,-12.4 z" fill-rule="nonzero" stroke="none" fill="#000"/><path id="path9317" d="m 81.50001,179.4 -0.7,0 -7.2,12.45 0.7,0 7.2,-12.45 z" fill-rule="nonzero" stroke="none" fill="#000"/><path id="path9319" d="m 74.30001,166.95 -0.7,0 7.2,12.45 0.7,0 -7.2,-12.45 z" fill-rule="nonzero" stroke="none" fill="#000"/><g id="g9321" transform="matrix(0.05,0,0,0.05,32.95,149.3)"><text id="text9323" transform="scale(1,-1)"><tspan id="tspan9325" style="writing-mode:lr;" font-family="Helvetica" fill-rule="nonzero" font-size="200" stroke="none" font-variant="normal" y="0" x="0" font-weight="normal" fill="#000000">O</tspan></text>
</g><path id="path9327" d="m 41.90001,151.4 9.700001,0 0,0.60001 -9.700001,0 0,-0.60001 z" fill-rule="nonzero" stroke="none" fill="#000"/><path id="path9329" d="m 41.90001,154 9.299999,0 0,0.59999 -9.299999,0 0,-0.59999 z" fill-rule="nonzero" stroke="none" fill="#000"/><path id="path9331" d="m 81.50001,154.45 -0.7,0 -7.2,12.5 0.7,0 7.2,-12.5 z" fill-rule="nonzero" stroke="none" fill="#000"/><path id="path9333" d="m 74.20001,141.85 -0.5,0.3 7.1,12.3 0.7,0 -7.3,-12.6 z" fill-rule="nonzero" stroke="none" fill="#000"/><g id="g9335" transform="matrix(0.05,0,0,0.05,4.200008,149.3)"><text id="text9337" transform="scale(1,-1)"><tspan id="tspan9339" style="writing-mode:lr;" font-family="Helvetica" fill-rule="nonzero" font-size="200" stroke="none" font-variant="normal" y="0" x="0" font-weight="normal" fill="#000000">O</tspan></text>
</g><path id="path9341" d="m 13.15001,151.45 9.65,0 0,0.60001 -9.65,0 0,-0.60001 z" fill-rule="nonzero" stroke="none" fill="#000"/><path id="path9343" d="m 13.15001,154 9.65,0 0,0.59999 -9.65,0 0,-0.59999 z" fill-rule="nonzero" stroke="none" fill="#000"/><path id="path9345" d="m 72.45,126.45 0,-0.6 -14.39999,0 0,0.3 0.3,0.3 14.09999,0 z" fill-rule="nonzero" stroke="none" fill="#000"/><path id="path9347" d="m 87.15001,126.45 -0.60001,-0.6 -14.1,0 0,0.6 14.70001,0 z" fill-rule="nonzero" stroke="none" fill="#000"/><g id="g9349" transform="matrix(0.05,0,0,0.05,83.35001,108.05)"><text id="text9351" transform="scale(1,-1)"><tspan id="tspan9353" style="writing-mode:lr;" font-family="Helvetica" fill-rule="nonzero" font-size="200" stroke="none" font-variant="normal" y="0" x="0" font-weight="normal" fill="#000000">O</tspan></text>
</g><path id="path9355" d="m 87.15001,116.95 -0.60001,0 0,8.9 0.60001,0.6 0,-9.5 z" fill-rule="nonzero" stroke="none" fill="#000"/><g id="g9357" transform="matrix(0.05,0,0,0.05,84.20001,93.74998)"><text id="text9359" transform="scale(1,-1)"><tspan id="tspan9361" style="writing-mode:lr;" font-family="Helvetica" fill-rule="nonzero" font-size="200" stroke="none" font-variant="normal" y="0" x="0" font-weight="normal" fill="#000000">P</tspan></text>
</g><path id="path9363" d="m 86.55,102.5 0.599998,0 0,3.95001 -0.599998,0 0,-3.95001 z" fill-rule="nonzero" stroke="none" fill="#000"/><g id="g9365" transform="matrix(0.05,0,0,0.05,97.75001,93.64999)"><text id="text9367" transform="scale(1,-1)"><tspan id="tspan9369" style="writing-mode:lr;" font-family="Helvetica" fill-rule="nonzero" font-size="200" stroke="none" font-variant="normal" y="0" x="0" font-weight="normal" fill="#000000">O</tspan></text>
</g><path id="path9371" d="m 91.95,98.35 4.599998,0 0,0.599998 -4.599998,0 0,-0.599998 z" fill-rule="nonzero" stroke="none" fill="#000"/><path id="path9373" d="m 91.95,95.74998 4.599998,0 0,0.600006 -4.599998,0 0,-0.600006 z" fill-rule="nonzero" stroke="none" fill="#000"/><g id="g9375" transform="matrix(0.05,0,0,0.05,68.95,93.64999)"><text id="text9377" transform="scale(1,-1)"><tspan id="tspan9379" style="writing-mode:lr;" font-family="Helvetica" fill-rule="nonzero" font-size="200" stroke="none" font-variant="normal" y="0" x="0" font-weight="normal" fill="#000000">O</tspan></text>
</g><path id="path9381" d="m 77.90001,97.05 5.550003,0 0,0.599998 -5.550003,0 0,-0.599998 z" fill-rule="nonzero" stroke="none" fill="#000"/><g id="g9383" transform="matrix(0.05,0,0,0.05,83.35001,79.24998)"><text id="text9385" transform="scale(1,-1)"><tspan id="tspan9387" style="writing-mode:lr;" font-family="Helvetica" fill-rule="nonzero" font-size="200" stroke="none" font-variant="normal" y="0" x="0" font-weight="normal" fill="#000000">O</tspan></text>
</g><path id="path9389" d="m 86.55,88.14999 0.599998,0 0,4.050003 -0.599998,0 0,-4.050003 z" fill-rule="nonzero" stroke="none" fill="#000"/><g id="g9391" transform="matrix(0.05,0,0,-0.05,-43.99999,400)"><path id="path9393" stroke-linejoin="miter" style="stroke-dasharray:none;" d="m 2371.838,5893.275 88.889,0" stroke="#000" stroke-linecap="butt" stroke-miterlimit="10" stroke-width="10" fill="none"/></g><path id="path9395" d="m 75.85001,37.69999 -0.15,-0.35 -0.6,0.45001 -20.15001,34.84999 0.30001,0.09999 0.65,-0.5 19.95,-34.54999 z" fill-rule="nonzero" stroke="none" fill="#000"/><path id="path9397" d="m 115.25,48 0,-0.30001 -0.1,-0.35 L 75.70001,37 l 0,0.34999 0.15,0.35 L 115.25,48 z" fill-rule="nonzero" stroke="none" fill="#000"/><path id="path9399" d="m 153.95,37.8 0.6,-0.45001 -0.05,-0.29999 -38.25,10.04999 -1,0.6 0,0.30001 38.7,-10.2 z" fill-rule="nonzero" stroke="none" fill="#000"/><path id="path9401" d="m 133.95,72.39999 0.15,0.34999 0.65,-0.5 19.95,-34.59999 -0.15,-0.3 -0.6,0.45001 -20,34.59999 z" fill-rule="nonzero" stroke="none" fill="#000"/><path id="path9403" d="m 94.55,62.05 0,0.34999 0.20001,0.35001 39.34999,10.3 0,-0.30002 -0.15,-0.34999 L 94.55,62.05 z" fill-rule="nonzero" stroke="none" fill="#000"/><path id="path9405" d="m 55.90001,72.24998 -0.65,0.5 0.3,0.20002 38.55,-10.15 0.44999,-0.40001 0,-0.34999 -38.64999,10.19998 z" fill-rule="nonzero" stroke="none" fill="#000"/><path id="path9407" d="M 94.75001,62.75 94.55,62.39999 94.10001,62.8 88.55,77.49998 l 0.60001,0.25 5.6,-14.99998 z" fill-rule="nonzero" stroke="none" fill="#000"/><g id="g9409" transform="matrix(0.05,0,0,0.05,144.5,65.3)"><text id="text9411" transform="scale(1,-1)"><tspan id="tspan9413" style="writing-mode:lr;" font-family="Helvetica" fill-rule="nonzero" font-size="200" stroke="none" font-variant="normal" y="0" x="0 155.56" font-weight="normal" fill="#000000">OH</tspan></text>
</g><path id="path9415" d="m 143.5,70.55 -0.15,-0.6 -8.6,2.29998 -0.65,0.5 0,0.30002 9.4,-2.5 z" fill-rule="nonzero" stroke="none" fill="#000"/><g id="g9417" transform="matrix(0.05,0,0,0.05,165.45,33.64999)"><text id="text9419" transform="scale(1,-1)"><tspan id="tspan9421" style="writing-mode:lr;" font-family="Helvetica" fill-rule="nonzero" font-size="200" stroke="none" font-variant="normal" y="0" x="0" font-weight="normal" fill="#000000">O</tspan></text>
</g><path id="path9423" d="m 164.25,37.64999 0,-0.59999 -9.7,0 0,0.29999 0.15,0.3 9.55,0 z" fill-rule="nonzero" stroke="none" fill="#000"/><g id="g9425" transform="matrix(0.05,0,0,0.05,180.7,33.74999)"><text id="text9427" transform="scale(1,-1)"><tspan id="tspan9429" style="writing-mode:lr;" font-family="Helvetica" fill-rule="nonzero" font-size="200" stroke="none" font-variant="normal" y="0" x="0" font-weight="normal" fill="#000000">P</tspan></text>
</g><path id="path9431" d="m 174.4,37.05 5.54999,0 0,0.599998 -5.54999,0 0,-0.599998 z" fill-rule="nonzero" stroke="none" fill="#000"/><g id="g9433" transform="matrix(0.05,0,0,0.05,194.25,33.64999)"><text id="text9435" transform="scale(1,-1)"><tspan id="tspan9437" style="writing-mode:lr;" font-family="Helvetica" fill-rule="nonzero" font-size="200" stroke="none" font-variant="normal" y="0" x="0 155.56" font-weight="normal" fill="#000000">OH</tspan></text>
</g><path id="path9439" d="m 188.45,37.05 4.60001,0 0,0.599998 -4.60001,0 0,-0.599998 z" fill-rule="nonzero" stroke="none" fill="#000"/><g id="g9441" transform="matrix(0.05,0,0,0.05,179.85,48.05)"><text id="text9443" transform="scale(1,-1)"><tspan id="tspan9445" style="writing-mode:lr;" font-family="Helvetica" fill-rule="nonzero" font-size="200" stroke="none" font-variant="normal" y="0" x="0" font-weight="normal" fill="#000000">O</tspan></text>
</g><path id="path9447" d="m 181.75,42.5 0.60001,0 0,3.949997 -0.60001,0 0,-3.949997 z" fill-rule="nonzero" stroke="none" fill="#000"/><path id="path9449" d="m 184.35,42.5 0.59998,0 0,3.949997 -0.59998,0 0,-3.949997 z" fill-rule="nonzero" stroke="none" fill="#000"/><g id="g9451" transform="matrix(0.05,0,0,0.05,179.85,19.24999)"><text id="text9453" transform="scale(1,-1)"><tspan id="tspan9455" style="writing-mode:lr;" font-family="Helvetica" fill-rule="nonzero" font-size="200" stroke="none" font-variant="normal" y="0" x="0" font-weight="normal" fill="#000000">O</tspan></text>
</g><path id="path9457" d="m 183.05,28.14999 0.60001,0 0,4.049999 -0.60001,0 0,-4.049999 z" fill-rule="nonzero" stroke="none" fill="#000"/><g id="g9459" transform="matrix(0.05,0,0,0.05,121.95,33.8)"><text id="text9461" transform="scale(1,-1)"><tspan id="tspan9463" style="writing-mode:lr;" font-family="Helvetica" fill-rule="nonzero" font-size="200" stroke="none" font-variant="normal" y="0" x="0" font-weight="normal" fill="#000000">O</tspan></text>
</g><path id="path9465" d="m 122.15,41.25 -0.45,-0.45 -6.55,6.54999 0.1,0.35 1,-0.6 5.9,-5.84999 z" fill-rule="nonzero" stroke="none" fill="#000"/><g id="g9467" transform="matrix(0.05,0,0,0.05,122.8,19.49999)"><text id="text9469" transform="scale(1,-1)"><tspan id="tspan9471" style="writing-mode:lr;" font-family="Helvetica" fill-rule="nonzero" font-size="200" stroke="none" font-variant="normal" y="0" x="0" font-weight="normal" fill="#000000">P</tspan></text>
</g><path id="path9473" d="m 125.15,28.24999 0.6,0 0,3.950001 -0.6,0 0,-3.950001 z" fill-rule="nonzero" stroke="none" fill="#000"/><g id="g9475" transform="matrix(0.05,0,0,0.05,107.55,19.39999)"><text id="text9477" transform="scale(1,-1)"><tspan id="tspan9479" style="writing-mode:lr;" font-family="Helvetica" fill-rule="nonzero" font-size="200" stroke="none" font-variant="normal" y="0" x="0" font-weight="normal" fill="#000000">O</tspan></text>
</g><path id="path9481" d="m 116.5,21.49999 5.55,0 0,0.6 -5.55,0 0,-0.6 z" fill-rule="nonzero" stroke="none" fill="#000"/><path id="path9483" d="m 116.5,24.09999 5.55,0 0,0.6 -5.55,0 0,-0.6 z" fill-rule="nonzero" stroke="none" fill="#000"/><g id="g9485" transform="matrix(0.05,0,0,0.05,136.35,19.39999)"><text id="text9487" transform="scale(1,-1)"><tspan id="tspan9489" style="writing-mode:lr;" font-family="Helvetica" fill-rule="nonzero" font-size="200" stroke="none" font-variant="normal" y="0" x="0" font-weight="normal" fill="#000000">O</tspan></text>
</g><path id="path9491" d="m 130.55,22.79999 4.54999,0 0,0.6 -4.54999,0 0,-0.6 z" fill-rule="nonzero" stroke="none" fill="#000"/><g id="g9493" transform="matrix(0.05,0,0,0.05,121.95,4.999994)"><text id="text9495" transform="scale(1,-1)"><tspan id="tspan9497" style="writing-mode:lr;" font-family="Helvetica" fill-rule="nonzero" font-size="200" stroke="none" font-variant="normal" y="0" x="0" font-weight="normal" fill="#000000">O</tspan></text>
</g><path id="path9499" d="m 125.15,13.89999 0.6,0 0,4.049999 -0.6,0 0,-4.049999 z" fill-rule="nonzero" stroke="none" fill="#000"/><g id="g9501" transform="matrix(0.05,0,0,0.05,58.30001,37.34999)"><text id="text9503" transform="scale(1,-1)"><tspan id="tspan9505" style="writing-mode:lr;" font-family="Helvetica" fill-rule="nonzero" font-size="200" stroke="none" font-variant="normal" y="0" x="0" font-weight="normal" fill="#000000">O</tspan></text>
</g><path id="path9507" d="m 67.05,39.34999 0.15001,0.55 7.9,-2.09999 0.6,-0.45001 0,-0.34999 -8.65001,2.34999 z" fill-rule="nonzero" stroke="none" fill="#000"/><g id="g9509" transform="matrix(0.05,0,0,0.05,44.75001,37.44999)"><text id="text9511" transform="scale(1,-1)"><tspan id="tspan9513" style="writing-mode:lr;" font-family="Helvetica" fill-rule="nonzero" font-size="200" stroke="none" font-variant="normal" y="0" x="0" font-weight="normal" fill="#000000">P</tspan></text>
</g><path id="path9515" d="m 52.50001,40.75 4.600002,0 0,0.599998 -4.600002,0 0,-0.599998 z" fill-rule="nonzero" stroke="none" fill="#000"/><g id="g9517" transform="matrix(0.05,0,0,0.05,29.50001,37.34999)"><text id="text9519" transform="scale(1,-1)"><tspan id="tspan9521" style="writing-mode:lr;" font-family="Helvetica" fill-rule="nonzero" font-size="200" stroke="none" font-variant="normal" y="0" x="0" font-weight="normal" fill="#000000">O</tspan></text>
</g><path id="path9523" d="m 38.45001,40.75 5.549999,0 0,0.599998 -5.549999,0 0,-0.599998 z" fill-rule="nonzero" stroke="none" fill="#000"/><g id="g9525" transform="matrix(0.05,0,0,0.05,43.90001,51.75)"><text id="text9527" transform="scale(1,-1)"><tspan id="tspan9529" style="writing-mode:lr;" font-family="Helvetica" fill-rule="nonzero" font-size="200" stroke="none" font-variant="normal" y="0" x="0" font-weight="normal" fill="#000000">O</tspan></text>
</g><path id="path9531" d="m 47.10001,46.19999 0.599999,0 0,3.950001 -0.599999,0 0,-3.950001 z" fill-rule="nonzero" stroke="none" fill="#000"/><g id="g9533" transform="matrix(0.05,0,0,0.05,43.90001,22.95)"><text id="text9535" transform="scale(1,-1)"><tspan id="tspan9537" style="writing-mode:lr;" font-family="Helvetica" fill-rule="nonzero" font-size="200" stroke="none" font-variant="normal" y="0" x="0" font-weight="normal" fill="#000000">O</tspan></text>
</g><path id="path9539" d="m 48.40001,31.84999 0.599998,0 0,4.049997 -0.599998,0 0,-4.049997 z" fill-rule="nonzero" stroke="none" fill="#000"/><path id="path9541" d="m 45.80001,31.84999 0.599998,0 0,4.049997 -0.599998,0 0,-4.049997 z" fill-rule="nonzero" stroke="none" fill="#000"/><g id="g9543" transform="matrix(0.05,0,0,0.05,51.75001,83.45)"><text id="text9545" transform="scale(1,-1)"><tspan id="tspan9547" style="writing-mode:lr;" font-family="Helvetica" fill-rule="nonzero" font-size="200" stroke="none" font-variant="normal" y="0" x="0 155.56" font-weight="normal" fill="#000000">OH</tspan></text>
</g><path id="path9549" d="m 54.95,81.85 0.60001,0 0,-8.9 -0.3,-0.20002 -0.30001,-0.09999 0,9.20001 z" fill-rule="nonzero" stroke="none" fill="#000"/><g id="g9551" transform="matrix(0.05,0,0,-0.05,-43.99999,400)"><path id="path9553" stroke-linejoin="miter" style="stroke-dasharray:none;" d="m 4590.287,7381.673 88.889,0" stroke="#000" stroke-linecap="butt" stroke-miterlimit="10" stroke-width="10" fill="none"/></g><g id="g9555" transform="matrix(0.05,0,0,-0.05,-43.99999,400)"><path id="path9557" stroke-linejoin="miter" style="stroke-dasharray:none;" d="m 3719.883,7378.094 88.889,0" stroke="#000" stroke-linecap="butt" stroke-miterlimit="10" stroke-width="10" fill="none"/></g><g id="g9559" transform="matrix(0.05,0,0,-0.05,-43.99999,400)"><path id="path9561" stroke-linejoin="miter" style="stroke-dasharray:none;" d="m 3431.914,7666.063 88.889,0" stroke="#000" stroke-linecap="butt" stroke-miterlimit="10" stroke-width="10" fill="none"/></g><g id="g9563" transform="matrix(0.05,0,0,-0.05,-43.99999,400)"><path id="path9565" stroke-linejoin="miter" style="stroke-dasharray:none;" d="m 1582.886,7019.172 88.889,0" stroke="#000" stroke-linecap="butt" stroke-miterlimit="10" stroke-width="10" fill="none"/></g><g id="g9567" transform="matrix(0.05,0,0,-0.05,-43.99999,400)"><path id="path9569" stroke-linejoin="miter" style="stroke-dasharray:none;" d="m 1871.288,6731.204 88.889,0" stroke="#000" stroke-linecap="butt" stroke-miterlimit="10" stroke-width="10" fill="none"/></g><g id="g9571" transform="matrix(0.05,0,0,0.05,27.75001,117.85)"><text id="text9573" transform="scale(1,-1)"><tspan id="tspan9575" style="writing-mode:lr;" font-family="Helvetica" fill-rule="nonzero" font-size="136.8" stroke="none" font-variant="normal" y="0" x="0" font-weight="normal" fill="#000000">1</tspan></text>
</g><g id="g9577" transform="matrix(0.05,0,0,0.05,56.25001,117.85)"><text id="text9579" transform="scale(1,-1)"><tspan id="tspan9581" style="writing-mode:lr;" font-family="Helvetica" fill-rule="nonzero" font-size="136" stroke="none" font-variant="normal" y="0" x="0" font-weight="normal" fill="#000000">2</tspan></text>
</g><g id="g9583" transform="matrix(0.05,0,0,0.05,80.75001,117.5)"><text id="text9585" transform="scale(1,-1)"><tspan id="tspan9587" style="writing-mode:lr;" font-family="Helvetica" fill-rule="nonzero" font-size="136" stroke="none" font-variant="normal" y="0" x="0" font-weight="normal" fill="#000000">3</tspan></text>
</g><g id="g9589" transform="matrix(0.05,0,0,0.05,91.75001,55.34999)"><text id="text9591" transform="scale(1,-1)"><tspan id="tspan9593" style="writing-mode:lr;" font-family="Helvetica" fill-rule="nonzero" font-size="136" stroke="none" font-variant="normal" y="0" x="0 75.6432" font-weight="normal" fill="#000000">1&apos;</tspan></text>
</g><g id="g9595" transform="matrix(0.05,0,0,0.05,46.75001,69.35)"><text id="text9597" transform="scale(1,-1)"><tspan id="tspan9599" style="writing-mode:lr;" font-family="Helvetica" fill-rule="nonzero" font-size="136" stroke="none" font-variant="normal" y="0" x="0 75.6432" font-weight="normal" fill="#000000">2&apos;</tspan></text>
</g><g id="g9601" transform="matrix(0.05,0,0,0.05,71.25001,29.34999)"><text id="text9603" transform="scale(1,-1)"><tspan id="tspan9605" style="writing-mode:lr;" font-family="Helvetica" fill-rule="nonzero" font-size="136" stroke="none" font-variant="normal" y="0" x="0 75.6432" font-weight="normal" fill="#000000">3&apos;</tspan></text>
</g><g id="g9607" transform="matrix(0.05,0,0,0.05,112.75,50.34999)"><text id="text9609" transform="scale(1,-1)"><tspan id="tspan9611" style="writing-mode:lr;" font-family="Helvetica" fill-rule="nonzero" font-size="136" stroke="none" font-variant="normal" y="0" x="0 75.6432" font-weight="normal" fill="#000000">4&apos;</tspan></text>
</g><g id="g9613" transform="matrix(0.05,0,0,0.05,152.75,30.34999)"><text id="text9615" transform="scale(1,-1)"><tspan id="tspan9617" style="writing-mode:lr;" font-family="Helvetica" fill-rule="nonzero" font-size="136" stroke="none" font-variant="normal" y="0" x="0 75.6432" font-weight="normal" fill="#000000">5&apos;</tspan></text>
</g><g id="g9619" transform="matrix(0.05,0,0,0.05,132.25,75.35)"><text id="text9621" transform="scale(1,-1)"><tspan id="tspan9623" style="writing-mode:lr;" font-family="Helvetica" fill-rule="nonzero" font-size="136" stroke="none" font-variant="normal" y="0" x="0 75.6432" font-weight="normal" fill="#000000">6&apos;</tspan></text>
</g></g></g><g id="g9625"><g id="g9627" clip-path="url(#clipPath9629)"><g id="g9633" transform="matrix(0.05,0,0,-0.05,-154,570)"><path id="path9635" stroke-linejoin="miter" style="stroke-dasharray:none;" d="m 7397.5,10810 c 0,0 0,0 0,0 0,0 0,-321 0,-321 0,0 -256,0 -256,0 0,0 0,321 0,321 0,0 256,0 256,0 z" fill-rule="nonzero" stroke="#FFF" stroke-linecap="butt" stroke-miterlimit="10" stroke-width="20" fill="#FFF"/></g><g id="g9637" transform="matrix(0.05,0,0,-0.05,-154,570)"><path id="path9639" stroke-linejoin="miter" style="stroke-dasharray:none;" d="m 7049.805,10522.17 88.889,0" stroke="#000" stroke-linecap="butt" stroke-miterlimit="10" stroke-width="10" fill="none"/></g></g></g></g></svg>
