<svg version="1.1" xmlns="http://www.w3.org/2000/svg" viewBox="0 0 511.80224653864275 307.0372610284267" width="1023.6044930772855" height="614.0745220568534">
  <!-- svg-source:excalidraw -->
  
  <defs>
    <style>
      @font-face {
        font-family: "Virgil";
        src: url("https://excalidraw.com/Virgil.woff2");
      }
      @font-face {
        font-family: "Cascadia";
        src: url("https://excalidraw.com/Cascadia.woff2");
      }
    </style>
  </defs>
  <rect x="0" y="0" width="511.80224653864275" height="307.0372610284267" fill="#fdf6e3"></rect><g transform="translate(230.10416199292115 10) rotate(0 82.5 14.5)"><text x="0" y="21" font-family="Virgil, Segoe UI Emoji" font-size="20px" fill="#000000" text-anchor="start" style="white-space: pre;" direction="ltr">如何记忆MDS分型</text></g><g transform="translate(10 139.1609591977036) rotate(0 4 12.5)"><text x="0" y="18" font-family="Virgil, Segoe UI Emoji" font-size="20px" fill="#000000" text-anchor="start" style="white-space: pre;" direction="ltr">1</text></g><g transform="translate(28.827638912684336 134.6163567015384) rotate(0 55 14.5)"><text x="0" y="21" font-family="Virgil, Segoe UI Emoji" font-size="20px" fill="#000000" text-anchor="start" style="white-space: pre;" direction="ltr">骨髓5-20%</text></g><g stroke-linecap="round"><g transform="translate(95.49787050960765 164.35364164079215) rotate(0 2.516781410965244 26.134855936565458)"><path d="M0.19 0.79 C1 9.35, 3.18 42.14, 3.95 50.69 M-1.17 0.16 C0.09 8.96, 5.34 43.74, 6.21 52.11" stroke="#000000" stroke-width="1" fill="none"></path></g><g transform="translate(95.49787050960765 164.35364164079215) rotate(0 2.516781410965244 26.134855936565458)"><path d="M-4.27 27.97 C-3.45 34.49, 1.52 38.59, 6.65 53.31 M-5.59 30.25 C-0.69 37.64, 3.77 47.61, 6.01 51.56" stroke="#000000" stroke-width="1" fill="none"></path></g><g transform="translate(95.49787050960765 164.35364164079215) rotate(0 2.516781410965244 26.134855936565458)"><path d="M13.07 25.7 C9.98 32.75, 11.05 37.37, 6.65 53.31 M11.75 27.98 C9.9 36.37, 7.62 47.22, 6.01 51.56" stroke="#000000" stroke-width="1" fill="none"></path></g></g><g transform="translate(45.70759104129792 226.80686448088932) rotate(0 56 12.5)"><text x="0" y="18" font-family="Virgil, Segoe UI Emoji" font-size="20px" fill="#000000" text-anchor="start" style="white-space: pre;" direction="ltr">&gt;20%-29%</text></g><g stroke-linecap="round"><g transform="translate(87.89479111033131 131.43824220009574) rotate(0 1.0910527557223872 -26.24203091655096)"><path d="M-1.01 -1.13 C-0.55 -9.69, 2.28 -43.17, 3.2 -51.54 M0.66 0.89 C0.89 -8.01, 1.41 -44.34, 1.98 -53.37" stroke="#000000" stroke-width="1" fill="none"></path></g><g transform="translate(87.89479111033131 131.43824220009574) rotate(0 1.0910527557223872 -26.24203091655096)"><path d="M8.15 -29.37 C8.32 -35.58, 5.92 -44.68, 1.72 -52.92 M10.39 -28.95 C6.56 -35.75, 4.71 -44.74, 2.54 -52.98" stroke="#000000" stroke-width="1" fill="none"></path></g><g transform="translate(87.89479111033131 131.43824220009574) rotate(0 1.0910527557223872 -26.24203091655096)"><path d="M-9.7 -30.01 C-3.59 -35.85, -0.05 -44.74, 1.72 -52.92 M-7.46 -29.58 C-5.44 -36.04, -1.44 -44.83, 2.54 -52.98" stroke="#000000" stroke-width="1" fill="none"></path></g></g><g transform="translate(76.87057958643061 52.813511770565015) rotate(0 22.5 12.5)"><text x="0" y="18" font-family="Virgil, Segoe UI Emoji" font-size="20px" fill="#000000" text-anchor="start" style="white-space: pre;" direction="ltr">&lt;5%</text></g><g transform="translate(172.9564609339231 52.813511770565015) rotate(0 14.5 12.5)"><text x="0" y="18" font-family="Virgil, Segoe UI Emoji" font-size="20px" fill="#000000" text-anchor="start" style="white-space: pre;" direction="ltr">RA</text></g><g transform="translate(187.23949735044232 137.86250134165638) rotate(0 28.5 12.5)"><text x="0" y="18" font-family="Virgil, Segoe UI Emoji" font-size="20px" fill="#000000" text-anchor="start" style="white-space: pre;" direction="ltr">RAEB</text></g><g transform="translate(302.80224653864275 133.22731296619776) rotate(0 99.5 14.5)"><text x="0" y="21" font-family="Virgil, Segoe UI Emoji" font-size="20px" fill="#000000" text-anchor="start" style="white-space: pre;" direction="ltr">CMML+血单核&gt;1x10^9</text></g><g transform="translate(192.43332877463104 228.75455126496013) rotate(0 38 12.5)"><text x="0" y="18" font-family="Virgil, Segoe UI Emoji" font-size="20px" fill="#000000" text-anchor="start" style="white-space: pre;" direction="ltr">RAEB-t</text></g><g transform="translate(165.95949760416875 267.81987316838007) rotate(0 83 14.5)"><text x="0" y="21" font-family="Virgil, Segoe UI Emoji" font-size="20px" fill="#000000" text-anchor="start" style="white-space: pre;" direction="ltr">或见Auer直接归入</text></g><g transform="translate(311.59285626300635 154.30051848225253) rotate(0 45 14.5)"><text x="0" y="21" font-family="Virgil, Segoe UI Emoji" font-size="20px" fill="#000000" text-anchor="start" style="white-space: pre;" direction="ltr">CML+M单</text></g><g transform="translate(238.831347085468 51.168020638561416) rotate(0 55 14.5)"><text x="0" y="21" font-family="Virgil, Segoe UI Emoji" font-size="20px" fill="#000000" text-anchor="start" style="white-space: pre;" direction="ltr">RAS+15%环</text></g><g transform="translate(57.58290029893641 82.43906553347142) rotate(0 8 12.5)"><text x="0" y="18" font-family="Virgil, Segoe UI Emoji" font-size="20px" fill="#000000" text-anchor="start" style="white-space: pre;" direction="ltr">2</text></g><g transform="translate(59.2506183176971 174.03834450959096) rotate(0 8 12.5)"><text x="0" y="18" font-family="Virgil, Segoe UI Emoji" font-size="20px" fill="#000000" text-anchor="start" style="white-space: pre;" direction="ltr">3</text></g><g stroke-linecap="round" transform="translate(296.66333231112026 153.64814453679764) rotate(0 57.72542177397429 12.515877399581484)"><path d="M-0.19 1.43 C33 1.25, 68.59 -0.13, 115.46 -1.29 M-0.77 -0.13 C37 -0.9, 73.27 -1.09, 116.14 0.51 M116.46 -0.87 C114.66 6.66, 116.69 15.49, 114.67 25.07 M115.88 -0.87 C115.08 8.06, 114.95 17.51, 115.09 25.9 M117.05 24.83 C78.04 25.22, 38.73 24.96, 1.59 24.19 M116.13 25.08 C89.97 25.68, 62.64 25.65, 0.46 25.63 M1.84 26.02 C-1.58 19.24, -1.67 14.12, -0.7 1.9 M-0.19 25.65 C-0.5 17.75, -0.92 13.28, -0.46 -0.47" stroke="#c92a2a" stroke-width="1" fill="none"></path></g><g stroke-linecap="round" transform="translate(202.19749648486243 272.1040774220659) rotate(0 27.25227072350333 12.466591803180393)"><path d="M1.01 -0.87 C14.38 -0.22, 31.4 1.73, 53.72 0.03 M0.42 -0.87 C18.49 -0.08, 37.15 0.73, 54.14 0.86 M56.11 -0.21 C55.05 8.54, 53.84 16.51, 56.09 24.09 M55.18 0.05 C55.32 5.54, 54.1 11.14, 54.97 25.53 M56.34 25.92 C41.44 24.15, 29.96 24.26, -0.7 26.83 M54.31 25.55 C40.34 23.55, 26.14 25.4, -0.46 24.47 M0.16 23.69 C-0.31 16.76, -1.33 7.59, -0.4 1.71 M-0.2 25.73 C-1.07 15.92, 0.27 6.99, 0 -0.1" stroke="#c92a2a" stroke-width="1" fill="none"></path></g></svg>