<svg version="1.1" xmlns="http://www.w3.org/2000/svg" viewBox="0 0 715.9069507607065 212.7441834474693" width="1431.813901521413" height="425.4883668949386">
  <!-- svg-source:excalidraw -->
  
  <defs>
    <style>
      @font-face {
        font-family: "Virgil";
        src: url("https://excalidraw.com/Virgil.woff2");
      }
      @font-face {
        font-family: "Cascadia";
        src: url("https://excalidraw.com/Cascadia.woff2");
      }
    </style>
  </defs>
  <rect x="0" y="0" width="715.9069507607065" height="212.7441834474693" fill="#fdf6e3"></rect><g transform="translate(10 18.379631576920076) rotate(0 91 14.5)"><text x="0" y="21" font-family="Virgil, Segoe UI Emoji" font-size="20px" fill="#000000" text-anchor="start" style="white-space: pre;" direction="ltr">如何计算外科补液量</text></g><g transform="translate(293.5320877783947 14.959565644912402) rotate(0 31 14.5)"><text x="0" y="21" font-family="Virgil, Segoe UI Emoji" font-size="20px" fill="#000000" text-anchor="start" style="white-space: pre;" direction="ltr">损失量</text></g><g transform="translate(390.779462406339 17.46826467638897) rotate(0 7.5 12.5)"><text x="0" y="18" font-family="Virgil, Segoe UI Emoji" font-size="20px" fill="#000000" text-anchor="start" style="white-space: pre;" direction="ltr">+</text></g><g transform="translate(442.27788919635884 10) rotate(0 124.5 14.5)"><text x="0" y="21" font-family="Virgil, Segoe UI Emoji" font-size="20px" fill="#000000" text-anchor="start" style="white-space: pre;" direction="ltr">生理需要量(还应4.5g Nacl)</text></g><g stroke-linecap="round"><g transform="translate(489.4100376781273 37.98374698431303) rotate(0 1.8171021844609356 43.22564270746253)"><path d="M-0.43 0.54 C0.31 15.12, 3.36 72.36, 4.06 86.68 M1.55 -0.23 C2.23 14.1, 3.22 70.91, 3.5 85.02" stroke="#000000" stroke-width="1" fill="none"></path></g><g transform="translate(489.4100376781273 37.98374698431303) rotate(0 1.8171021844609356 43.22564270746253)"><path d="M-6.4 58.24 C-3.15 65.24, -0.66 70.78, 3.84 85.26 M-6.36 57.48 C-4.33 65.43, -2.24 71.46, 3.65 84.84" stroke="#000000" stroke-width="1" fill="none"></path></g><g transform="translate(489.4100376781273 37.98374698431303) rotate(0 1.8171021844609356 43.22564270746253)"><path d="M14.12 57.85 C11.89 64.88, 8.9 70.53, 3.84 85.26 M14.16 57.1 C10.62 65.31, 7.15 71.45, 3.65 84.84" stroke="#000000" stroke-width="1" fill="none"></path></g></g><g transform="translate(497.0691880986618 56.93431105682731) rotate(0 31 14.5)"><text x="0" y="21" font-family="Virgil, Segoe UI Emoji" font-size="20px" fill="#000000" text-anchor="start" style="white-space: pre;" direction="ltr">看尿量</text></g><g transform="translate(411.90695076070654 172.96017592410755) rotate(0 147 14.5)"><text x="0" y="21" font-family="Virgil, Segoe UI Emoji" font-size="20px" fill="#000000" text-anchor="start" style="white-space: pre;" direction="ltr">(尿量-500ml)+500ml的生理盐水</text></g><g stroke-linecap="round"><g transform="translate(312.91994640803534 54.582148866670025) rotate(0 -2.0109038768474328 55.51994444723226)"><path d="M-0.9 0.98 C-1.77 19.46, -3.54 92.51, -4.27 110.59 M0.83 0.45 C-0.21 18.6, -3.68 90.43, -4.85 108.77" stroke="#000000" stroke-width="1" fill="none"></path></g><g transform="translate(312.91994640803534 54.582148866670025) rotate(0 -2.0109038768474328 55.51994444723226)"><path d="M-11.91 81.23 C-9.37 90.44, -7.98 103.23, -6.03 108.29 M-12.61 79.68 C-11.59 87.61, -7.95 96.3, -5.6 108.22" stroke="#000000" stroke-width="1" fill="none"></path></g><g transform="translate(312.91994640803534 54.582148866670025) rotate(0 -2.0109038768474328 55.51994444723226)"><path d="M8.58 82.36 C3.4 90.99, -2.93 103.36, -6.03 108.29 M7.88 80.81 C2.83 88.27, 0.42 96.61, -5.6 108.22" stroke="#000000" stroke-width="1" fill="none"></path></g></g><g transform="translate(176.2662990127685 173.7441834474693) rotate(0 111 14.5)"><text x="0" y="21" font-family="Virgil, Segoe UI Emoji" font-size="20px" fill="#000000" text-anchor="start" style="white-space: pre;" direction="ltr">损失的量的应是生理盐水</text></g></svg>