<svg version="1.1" xmlns="http://www.w3.org/2000/svg" viewBox="0 0 393.91811375592386 235.48956792670566" width="787.8362275118477" height="470.9791358534113">
  <!-- svg-source:excalidraw -->
  
  <defs>
    <style>
      @font-face {
        font-family: "Virgil";
        src: url("https://excalidraw.com/Virgil.woff2");
      }
      @font-face {
        font-family: "Cascadia";
        src: url("https://excalidraw.com/Cascadia.woff2");
      }
    </style>
  </defs>
  <rect x="0" y="0" width="393.91811375592386" height="235.48956792670566" fill="#fdf6e3"></rect><g transform="translate(81.91811375592388 10) rotate(0 151 14.5)"><text x="0" y="21" font-family="Virgil, Segoe UI Emoji" font-size="20px" fill="#000000" text-anchor="start" style="white-space: pre;" direction="ltr">如何记忆淀粉样物质见于哪些疾病</text></g><g transform="translate(10 116.24899667524807) rotate(0 21 14.5)"><text x="0" y="21" font-family="Virgil, Segoe UI Emoji" font-size="20px" fill="#000000" text-anchor="start" style="white-space: pre;" direction="ltr">淀粉</text></g><g stroke-linecap="round"><g transform="translate(57.79356231997673 122.30429531976284) rotate(0 34.84016620121899 -13.412311964047888)"><path d="M-1.08 0.44 C10.9 -3.88, 58.9 -21.07, 70.76 -25.5 M0.55 -0.38 C12.46 -5.08, 57.79 -23.19, 69.8 -27.26" stroke="#000000" stroke-width="1" fill="none"></path></g><g transform="translate(57.79356231997673 122.30429531976284) rotate(0 34.84016620121899 -13.412311964047888)"><path d="M47.7 -7.83 C52.83 -12.82, 56.49 -15.5, 70.62 -28.87 M47.57 -7.88 C51.77 -12.57, 56.36 -16.86, 70.63 -27.91" stroke="#000000" stroke-width="1" fill="none"></path></g><g transform="translate(57.79356231997673 122.30429531976284) rotate(0 34.84016620121899 -13.412311964047888)"><path d="M40.53 -27.06 C47.22 -27.97, 52.38 -26.63, 70.62 -28.87 M40.4 -27.11 C46.27 -27.59, 52.42 -27.69, 70.63 -27.91" stroke="#000000" stroke-width="1" fill="none"></path></g></g><g transform="translate(123.20937240632887 62.094056208805625) rotate(0 31 14.5)"><text x="0" y="21" font-family="Virgil, Segoe UI Emoji" font-size="20px" fill="#000000" text-anchor="start" style="white-space: pre;" direction="ltr">髓样癌</text></g><g stroke-linecap="round"><g transform="translate(55.853358783562015 139.98103003530173) rotate(0 39.62037201506868 -0.7914740432534302)"><path d="M0.66 1.04 C13.64 1, 64.53 -0.73, 77.44 -1.11 M-0.46 0.55 C12.94 0.28, 66.76 -2.03, 79.7 -2.63" stroke="#000000" stroke-width="1" fill="none"></path></g><g transform="translate(55.853358783562015 139.98103003530173) rotate(0 39.62037201506868 -0.7914740432534302)"><path d="M53.72 7.43 C61.24 5.35, 68.25 3.61, 77.91 -2.86 M51.54 8.18 C63.01 4.41, 73.06 -0.67, 79.5 -2.17" stroke="#000000" stroke-width="1" fill="none"></path></g><g transform="translate(55.853358783562015 139.98103003530173) rotate(0 39.62037201506868 -0.7914740432534302)"><path d="M52.82 -13.07 C60.42 -9.8, 67.67 -6.19, 77.91 -2.86 M50.64 -12.32 C62.54 -7.96, 72.94 -4.9, 79.5 -2.17" stroke="#000000" stroke-width="1" fill="none"></path></g></g><g transform="translate(140.4509506726997 130.24981824766286) rotate(0 31 14.5)"><text x="0" y="21" font-family="Virgil, Segoe UI Emoji" font-size="20px" fill="#000000" text-anchor="start" style="white-space: pre;" direction="ltr">葡萄糖</text></g><g stroke-linecap="round"><g transform="translate(195.99685459733402 147.5840196964341) rotate(0 45.302326110022506 -0.03453610430329945)"><path d="M0.41 0.61 C15.84 0.62, 76.24 0.86, 91.44 0.96 M-0.83 -0.12 C14.49 -0.57, 74.99 -0.89, 90.24 -1.03" stroke="#000000" stroke-width="1" fill="none"></path></g><g transform="translate(195.99685459733402 147.5840196964341) rotate(0 45.302326110022506 -0.03453610430329945)"><path d="M63.14 8.65 C68.28 6.68, 74.45 5.19, 88.86 0.5 M61.44 9.6 C67.17 6.9, 73.29 4.87, 90 -0.79" stroke="#000000" stroke-width="1" fill="none"></path></g><g transform="translate(195.99685459733402 147.5840196964341) rotate(0 45.302326110022506 -0.03453610430329945)"><path d="M62.99 -11.87 C68.32 -9.61, 74.52 -6.86, 88.86 0.5 M61.3 -10.92 C67.09 -9.42, 73.23 -7.24, 90 -0.79" stroke="#000000" stroke-width="1" fill="none"></path></g></g><g transform="translate(292.3713716631527 130.62035585983472) rotate(0 31.5 12.5)"><text x="0" y="18" font-family="Virgil, Segoe UI Emoji" font-size="20px" fill="#000000" text-anchor="start" style="white-space: pre;" direction="ltr">T2DM</text></g><g stroke-linecap="round"><g transform="translate(44.13143528368778 148.03742167695293) rotate(0 27.366404105151986 18.20934173289345)"><path d="M-0.16 0.48 C9.4 6.6, 47.29 30.99, 56.44 36.73 M-1.71 -0.31 C7.85 5.46, 46.07 29, 55.89 35" stroke="#000000" stroke-width="1" fill="none"></path></g><g transform="translate(44.13143528368778 148.03742167695293) rotate(0 27.366404105151986 18.20934173289345)"><path d="M27.3 30.25 C34.23 28.83, 37.72 31.63, 54.6 34.59 M25.81 29.81 C31.95 29.62, 40.41 31.74, 55.77 34.31" stroke="#000000" stroke-width="1" fill="none"></path></g><g transform="translate(44.13143528368778 148.03742167695293) rotate(0 27.366404105151986 18.20934173289345)"><path d="M38.03 12.76 C42.59 15.18, 43.71 21.85, 54.6 34.59 M36.55 12.32 C40.22 15.92, 46.31 21.89, 55.77 34.31" stroke="#000000" stroke-width="1" fill="none"></path></g></g><g transform="translate(111.91955453546828 174.115464766736) rotate(0 16.5 12.5)"><text x="0" y="18" font-family="Virgil, Segoe UI Emoji" font-size="20px" fill="#000000" text-anchor="start" style="white-space: pre;" direction="ltr">MM</text></g><g stroke-linecap="round"><g transform="translate(146.9700967868479 188.46371171753776) rotate(0 33.65694688046577 4.601967349991668)"><path d="M0.67 -0.78 C11.69 0.74, 54.38 8.5, 65.47 9.98 M-0.44 1.43 C11.02 2.57, 56.53 7.2, 67.75 8.46" stroke="#000000" stroke-width="1" fill="none"></path></g><g transform="translate(146.9700967868479 188.46371171753776) rotate(0 33.65694688046577 4.601967349991668)"><path d="M37.34 14.34 C47.62 15.28, 51.58 13.25, 66.49 10.22 M39.29 15.45 C45.99 14.9, 53.76 12.25, 67.3 8.2" stroke="#000000" stroke-width="1" fill="none"></path></g><g transform="translate(146.9700967868479 188.46371171753776) rotate(0 33.65694688046577 4.601967349991668)"><path d="M39.51 -6.07 C49.4 -0.13, 52.83 2.83, 66.49 10.22 M41.45 -4.96 C47.59 -0.08, 54.78 2.71, 67.3 8.2" stroke="#000000" stroke-width="1" fill="none"></path></g></g><g transform="translate(224.49061800832922 196.48956792670566) rotate(0 31 14.5)"><text x="0" y="21" font-family="Virgil, Segoe UI Emoji" font-size="20px" fill="#000000" text-anchor="start" style="white-space: pre;" direction="ltr">前列腺</text></g></svg>