<svg version="1.1" xmlns="http://www.w3.org/2000/svg" viewBox="0 0 1149.0771722286527 504.5771465563464" width="2298.1543444573053" height="1009.1542931126928">
  <!-- svg-source:excalidraw -->
  
  <defs>
    <style>
      @font-face {
        font-family: "Virgil";
        src: url("https://excalidraw.com/Virgil.woff2");
      }
      @font-face {
        font-family: "Cascadia";
        src: url("https://excalidraw.com/Cascadia.woff2");
      }
    </style>
  </defs>
  <rect x="0" y="0" width="1149.0771722286527" height="504.5771465563464" fill="#fdf6e3"></rect><g transform="translate(10 10) rotate(0 395 30)"><text x="0" y="44" font-family="Virgil, Segoe UI Emoji" font-size="41.4740527955117px" fill="#c92a2a" text-anchor="start" style="white-space: pre;" direction="ltr">如何记忆乳糖丰富条件下的乳糖操纵子状态</text></g><g stroke-linecap="round"><g transform="translate(104.58322015287683 244.31776168836018) rotate(0 410.4650206385441 -7.497186131079388)"><path d="M1.06 -1.16 C137.43 -3.68, 682.25 -11.69, 818.61 -14.18 M0.16 0.84 C136.85 -2.08, 684.42 -13.14, 820.77 -15.84" stroke="#000000" stroke-width="1" fill="none"></path></g></g><g transform="translate(229.39177344659834 226.37878845607133) rotate(0 6.5 12.5)"><text x="0" y="18" font-family="Virgil, Segoe UI Emoji" font-size="20px" fill="#000000" text-anchor="start" style="white-space: pre;" direction="ltr">I</text></g><g transform="translate(379.30999885609197 224.67591843287823) rotate(0 7.5 12.5)"><text x="0" y="18" font-family="Virgil, Segoe UI Emoji" font-size="20px" fill="#000000" text-anchor="start" style="white-space: pre;" direction="ltr">C</text></g><g transform="translate(445.3367046654006 222.9030074832815) rotate(0 7.5 12.5)"><text x="0" y="18" font-family="Virgil, Segoe UI Emoji" font-size="20px" fill="#000000" text-anchor="start" style="white-space: pre;" direction="ltr">P</text></g><g transform="translate(504.2717666763216 218.0658060035173) rotate(0 8.5 12.5)"><text x="0" y="18" font-family="Virgil, Segoe UI Emoji" font-size="20px" fill="#000000" text-anchor="start" style="white-space: pre;" direction="ltr">O</text></g><g transform="translate(614.8576343521656 218.06142844561668) rotate(0 9 12.5)"><text x="0" y="18" font-family="Virgil, Segoe UI Emoji" font-size="20px" fill="#000000" text-anchor="start" style="white-space: pre;" direction="ltr">Z</text></g><g transform="translate(709.8812836926588 219.9218905532191) rotate(0 6.5 12.5)"><text x="0" y="18" font-family="Virgil, Segoe UI Emoji" font-size="20px" fill="#000000" text-anchor="start" style="white-space: pre;" direction="ltr">Y</text></g><g transform="translate(801.9938570294933 216.8794878125525) rotate(0 7.5 12.5)"><text x="0" y="18" font-family="Virgil, Segoe UI Emoji" font-size="20px" fill="#000000" text-anchor="start" style="white-space: pre;" direction="ltr">A</text></g><g stroke-linecap="round"><g transform="translate(972.3796666229855 177.1462365799582) rotate(0 16.643729839698267 158.4127529079219)"><path d="M0.68 -0.61 C5.95 52.32, 26.24 264.56, 31.56 317.43 M-0.43 1.69 C5.22 54.26, 28.35 262.83, 33.71 315.51" stroke="#000000" stroke-width="1" fill="none"></path></g></g><g stroke-linecap="round" transform="translate(906.292838570083 303.2632051239441) rotate(0 79.49994412160629 19.988121375822175)"><path d="M1.48 -0.31 C54.53 1.99, 113.29 1.5, 160.18 0.38 M-0.51 0.97 C36.1 0.72, 72.58 1.27, 159.62 -0.17 M159.65 -1.26 C159.57 10.24, 159.45 21.33, 158.47 39.95 M159.73 0.87 C159.46 11.87, 159.47 23.98, 158.49 40.6 M160.89 41.37 C107.74 39.48, 57.65 37.59, -1.56 38.24 M159.9 40.24 C102.6 39.2, 48.87 39.74, -0.13 40.69 M-0.48 39.18 C0.55 30.61, 0.23 18.5, 0.8 -1.84 M-0.64 39.74 C-0.28 27.32, -0.33 12.05, -0.87 0.11" stroke="#000000" stroke-width="1" fill="none"></path></g><g stroke-linecap="round"><g transform="translate(1079.1998303272778 334.5262796813479) rotate(0 -123.14449012685273 -2.2749481041823856)"><path d="M0.43 0.2 C-40.72 -0.47, -204.75 -2.47, -246 -2.99 M-0.81 -0.74 C-42.15 -1.24, -205.49 -4.06, -246.72 -4.75" stroke="#000000" stroke-width="1" fill="none"></path></g><g transform="translate(1079.1998303272778 334.5262796813479) rotate(0 -123.14449012685273 -2.2749481041823856)"><path d="M-247.8 -4.55 L-232.92 -12.31 L-232.46 2.37 L-247.81 -6.65" stroke="none" stroke-width="0" fill="#000000" fill-rule="evenodd"></path><path d="M-246.47 -4.2 C-240.79 -7.84, -235.62 -9.13, -232.1 -11.29 M-246.73 -5.22 C-242.08 -7.66, -236.6 -9.12, -233.33 -11.43 M-232.46 -9.7 C-231.82 -6.08, -232.25 -1.37, -232.81 2.32 M-232.59 -10.74 C-233.14 -7.1, -233.77 -3.59, -233.24 1.98 M-231.74 1.32 C-237.32 -1.08, -239.42 -2.03, -247.74 -6.14 M-233.01 1.16 C-238.63 -0.17, -242.19 -2.21, -246.93 -4 M-246.72 -4.75 C-246.72 -4.75, -246.72 -4.75, -246.72 -4.75 M-246.72 -4.75 C-246.72 -4.75, -246.72 -4.75, -246.72 -4.75" stroke="#000000" stroke-width="1" fill="none"></path></g></g><g transform="translate(1053.7331966444312 166.6500562414558) rotate(0 13.5 56.999999999999886)"><text x="0" y="80" font-family="Virgil, Segoe UI Emoji" font-size="90.24185892274417px" fill="#c92a2a" text-anchor="start" style="white-space: pre;" direction="ltr">1</text></g><g transform="translate(1097.0771722286527 320.04182030275047) rotate(0 21 14.5)"><text x="0" y="21" font-family="Virgil, Segoe UI Emoji" font-size="20px" fill="#000000" text-anchor="start" style="white-space: pre;" direction="ltr">乳糖</text></g><g transform="translate(946.8376126437269 266.7104317173305) rotate(0 31 14.5)"><text x="0" y="21" font-family="Virgil, Segoe UI Emoji" font-size="20px" fill="#000000" text-anchor="start" style="white-space: pre;" direction="ltr">通透酶</text></g><g transform="translate(787.0381806783554 345.74724777782353) rotate(0 21 14.5)"><text x="0" y="21" font-family="Virgil, Segoe UI Emoji" font-size="20px" fill="#000000" text-anchor="start" style="white-space: pre;" direction="ltr">乳糖</text></g><g transform="translate(88.63713957665573 299.80886972774147) rotate(0 27.767627923816974 43.38691863096392)"><text x="0" y="60.77383726192805" font-family="Virgil, Segoe UI Emoji" font-size="69.41906980954244px" fill="#c92a2a" text-anchor="start" style="white-space: pre;" direction="ltr">2</text></g><g stroke-linecap="round" transform="translate(211.90123547299868 415.0835873186486) rotate(0 37.71669711117977 18.439274143243438)"><path d="M37.23 -0.76 C53.25 9.47, 65.86 14.36, 76.77 17.87 M38.13 0.47 C45.2 4.31, 53.97 6.82, 76.29 18.31 M75.06 20.35 C61.96 23.64, 49.15 32.14, 39.74 37.13 M75.03 18.06 C65.23 22.72, 55.69 28.92, 38.71 36.48 M38.38 38.46 C23.69 29.19, 9.64 22.22, -0.18 19.81 M38.4 36.64 C27.3 31.51, 14.35 26.45, -0.03 18.76 M0.52 20.24 C13.45 11.41, 27.41 7.84, 36.07 -0.9 M0.01 18.64 C10.72 14.3, 20.61 9.74, 38.12 -0.27" stroke="#000000" stroke-width="1" fill="none"></path></g><g transform="translate(227.57770478421298 426.7982575011945) rotate(0 22.909401208272158 8.102105305364603)"><text x="0" y="12.204210610729088" font-family="Virgil, Segoe UI Emoji" font-size="11.175317662571784px" fill="#000000" text-anchor="start" style="white-space: pre;" direction="ltr">阻遏蛋白</text></g><g stroke-linecap="round"><g transform="translate(275.0064695741702 426.918989332288) rotate(0 115.37026281371838 -90.87620428541845)"><path d="M-0.87 -0.4 C37.81 -30.6, 192.86 -151.18, 231.61 -181.36 M0.88 -1.65 C39.42 -31.69, 192.26 -150.29, 230.56 -180.09" stroke="#000000" stroke-width="1" fill="none"></path></g><g transform="translate(275.0064695741702 426.918989332288) rotate(0 115.37026281371838 -90.87620428541845)"><path d="M230.01 -180.01 L223.77 -167.59 L216.13 -177.43 L229.17 -182.08" stroke="none" stroke-width="0" fill="#000000" fill-rule="evenodd"></path><path d="M230.07 -180.32 C228.09 -176.87, 226.17 -174.04, 224.74 -165.97 M230.33 -179.98 C227.34 -175.34, 224.44 -169.65, 224.35 -166.19 M223.05 -166.48 C221.01 -169.26, 218.94 -174.92, 215.82 -178.02 M224.3 -166.9 C221.3 -169.86, 217.67 -174.03, 215.4 -176.15 M215.31 -176.42 C219.3 -176.31, 222.84 -177.71, 230.54 -179.98 M215.33 -177.37 C221.02 -177.52, 226.2 -179.19, 230.77 -179.91 M230.56 -180.09 C230.56 -180.09, 230.56 -180.09, 230.56 -180.09 M230.56 -180.09 C230.56 -180.09, 230.56 -180.09, 230.56 -180.09" stroke="#000000" stroke-width="1" fill="none"></path></g></g><g stroke-linecap="round"><g transform="translate(784.3506185907487 360.1875614420053) rotate(0 -53.58710849917601 2.952107641580369)"><path d="M1.17 0.43 C-16.92 1.4, -89.37 4.2, -107.91 5.23 M0.33 -0.39 C-17.89 0.75, -90.33 5.47, -108.35 6.29" stroke="#000000" stroke-width="1" fill="none"></path></g><g transform="translate(784.3506185907487 360.1875614420053) rotate(0 -53.58710849917601 2.952107641580369)"><path d="M-109.59 4.69 L-94.89 -0.19 L-95.74 10.01 L-110.29 7.12" stroke="none" stroke-width="0" fill="#000000" fill-rule="evenodd"></path><path d="M-107.81 7.51 C-104.77 2.17, -98.36 0.92, -96.2 -0.7 M-107.99 6.62 C-103.45 3.77, -98.45 -0.09, -94.8 -0.91 M-95.16 -0.59 C-94.96 3.51, -95.32 6.56, -94.06 10.65 M-95.72 -0.98 C-94.54 3.59, -94.22 7.74, -94.5 12.36 M-93.8 13 C-100.86 10.3, -104.7 7.02, -108.73 6.58 M-94.78 12.23 C-98.69 9.42, -104.29 7.43, -107.89 6.61 M-108.35 6.29 C-108.35 6.29, -108.35 6.29, -108.35 6.29 M-108.35 6.29 C-108.35 6.29, -108.35 6.29, -108.35 6.29" stroke="#000000" stroke-width="1" fill="none"></path></g></g><g transform="translate(707.8540642845993 324.47325344648266) rotate(0 21.5 14.5)"><text x="0" y="21" font-family="Virgil, Segoe UI Emoji" font-size="20px" fill="#000000" text-anchor="start" style="white-space: pre;" direction="ltr">β-半</text></g><g transform="translate(599.1438167190041 364.90268435930716) rotate(0 31 14.5)"><text x="0" y="21" font-family="Virgil, Segoe UI Emoji" font-size="20px" fill="#000000" text-anchor="start" style="white-space: pre;" direction="ltr">别乳糖</text></g><g stroke-linecap="round"><g transform="translate(1044.0675982151133 239.83279549370604) rotate(0 -208.85076021414304 57.0250729187926)"><path d="M-0.22 0.77 C-23.43 3.49, -103.14 10.73, -139.49 15.38 C-175.83 20.03, -192.24 21.88, -218.28 28.67 C-244.33 35.45, -266.65 47.59, -295.75 56.09 C-324.85 64.59, -372.58 70.03, -392.87 79.67 C-413.16 89.31, -413.26 108.19, -417.48 113.93 M-1.79 0.12 C-24.63 3.09, -101.11 11.72, -137.38 16.65 C-173.64 21.59, -193.13 23.54, -219.4 29.73 C-245.66 35.92, -266.33 45.5, -294.97 53.8 C-323.6 62.09, -370.98 69.6, -391.2 79.52 C-411.42 89.44, -411.79 107.68, -416.28 113.29" stroke="#c92a2a" stroke-width="1" fill="none"></path></g><g transform="translate(1044.0675982151133 239.83279549370604) rotate(0 -208.85076021414304 57.0250729187926)"><path d="M-416.84 114.33 L-414.48 97.54 L-406.09 104.37 L-416.11 111.33" stroke="none" stroke-width="0" fill="#c92a2a" fill-rule="evenodd"></path><path d="M-415.32 111.86 C-416.83 108.27, -416.84 106.18, -415.83 97.06 M-416.99 113.86 C-415.62 110.54, -416.67 106.77, -416.69 99.04 M-416.64 98.05 C-413.46 100.79, -409.2 101.09, -404.07 103.11 M-416.28 97.68 C-412.67 99.78, -409.69 101.64, -405.25 104.09 M-406.2 104.42 C-408.3 107.2, -412.07 111.06, -416.14 113.75 M-404.19 104.2 C-407.75 105.34, -409.1 107.6, -416.29 113.17 M-416.28 113.29 C-416.28 113.29, -416.28 113.29, -416.28 113.29 M-416.28 113.29 C-416.28 113.29, -416.28 113.29, -416.28 113.29" stroke="#c92a2a" stroke-width="1" fill="none"></path></g></g><g stroke-linecap="round"><g transform="translate(586.7968812716415 381.41893229071115) rotate(0 -42.720885183141455 -59.63533597886931)"><path d="M0.42 0.28 C-13.99 -19.59, -71.85 -99.86, -85.86 -119.55 M-0.82 -0.63 C-14.92 -20.36, -69.88 -98.7, -83.71 -118.57" stroke="#c92a2a" stroke-width="1" fill="none"></path></g><g transform="translate(586.7968812716415 381.41893229071115) rotate(0 -42.720885183141455 -59.63533597886931)"><path d="M-82.44 -118.11 L-70.08 -112.16 L-79.75 -103.52 L-83.12 -119.87" stroke="none" stroke-width="0" fill="#c92a2a" fill-rule="evenodd"></path><path d="M-83.36 -119.89 C-80.5 -114.52, -73.8 -114.66, -70.2 -110.87 M-83.53 -119.11 C-79.78 -116.53, -75.19 -112.97, -70.73 -111.65 M-71.53 -111.15 C-74.83 -109.35, -77.72 -106.68, -80.79 -104.81 M-70.49 -111.69 C-73.57 -109.28, -76.24 -107.64, -80.69 -103.99 M-81.58 -103.75 C-81.62 -107.79, -82.22 -110.57, -82.4 -117.76 M-80.58 -103.74 C-81.87 -107.1, -81.65 -110.68, -84.42 -118.66 M-83.71 -118.57 C-83.71 -118.57, -83.71 -118.57, -83.71 -118.57 M-83.71 -118.57 C-83.71 -118.57, -83.71 -118.57, -83.71 -118.57" stroke="#c92a2a" stroke-width="1" fill="none"></path></g></g><g transform="translate(457.1358398080736 294.0849963181788) rotate(0 58.5 14.5)"><text x="0" y="21" font-family="Virgil, Segoe UI Emoji" font-size="20px" fill="#c92a2a" text-anchor="start" style="white-space: pre;" direction="ltr">使之与O解离</text></g></svg>