<svg version="1.1" xmlns="http://www.w3.org/2000/svg" viewBox="0 0 410.15945015422596 296.3749381670809" width="820.3189003084519" height="592.7498763341619">
  <!-- svg-source:excalidraw -->
  
  <defs>
    <style>
      @font-face {
        font-family: "Virgil";
        src: url("https://excalidraw.com/Virgil.woff2");
      }
      @font-face {
        font-family: "Cascadia";
        src: url("https://excalidraw.com/Cascadia.woff2");
      }
    </style>
  </defs>
  <rect x="0" y="0" width="410.15945015422596" height="296.3749381670809" fill="#fdf6e3"></rect><g transform="translate(98.15945015422596 10) rotate(0 151 14.5)"><text x="0" y="21" font-family="Virgil, Segoe UI Emoji" font-size="20px" fill="#000000" text-anchor="start" style="white-space: pre;" direction="ltr">如何记忆胃食管反流病洛杉矶分级</text></g><g transform="translate(193.62739901572917 65.61390123214684) rotate(0 94.5 14.5)"><text x="0" y="21" font-family="Virgil, Segoe UI Emoji" font-size="20px" fill="#000000" text-anchor="start" style="white-space: pre;" direction="ltr">有融合,超过周长75%</text></g><g transform="translate(74.74925253305355 69.0733605189017) rotate(0 39 14.5)"><text x="0" y="21" font-family="Virgil, Segoe UI Emoji" font-size="20px" fill="#000000" text-anchor="start" style="white-space: pre;" direction="ltr">先记D级</text></g><g transform="translate(23.008796616278232 73.7924369997547) rotate(0 4 12.5)"><text x="0" y="18" font-family="Virgil, Segoe UI Emoji" font-size="20px" fill="#c92a2a" text-anchor="start" style="white-space: pre;" direction="ltr">1</text></g><g transform="translate(10 140.57092629664962) rotate(0 8 12.5)"><text x="0" y="18" font-family="Virgil, Segoe UI Emoji" font-size="20px" fill="#c92a2a" text-anchor="start" style="white-space: pre;" direction="ltr">2</text></g><g transform="translate(16.938024862015084 197.80963140827387) rotate(0 8 12.5)"><text x="0" y="18" font-family="Virgil, Segoe UI Emoji" font-size="20px" fill="#c92a2a" text-anchor="start" style="white-space: pre;" direction="ltr">3</text></g><g transform="translate(22.141543508526354 255.04833651989807) rotate(0 7.5 12.5)"><text x="0" y="18" font-family="Virgil, Segoe UI Emoji" font-size="20px" fill="#c92a2a" text-anchor="start" style="white-space: pre;" direction="ltr">4</text></g><g transform="translate(191.25589952014343 137.96916697339398) rotate(0 31 14.5)"><text x="0" y="21" font-family="Virgil, Segoe UI Emoji" font-size="20px" fill="#000000" text-anchor="start" style="white-space: pre;" direction="ltr">有融合</text></g><g transform="translate(278.8484634030835 143.1726856199053) rotate(0 18.5 12.5)"><text x="0" y="18" font-family="Virgil, Segoe UI Emoji" font-size="20px" fill="#000000" text-anchor="start" style="white-space: pre;" direction="ltr">&lt;75</text></g><g transform="translate(192.79053099597002 198.67688451602575) rotate(0 56 14.5)"><text x="0" y="21" font-family="Virgil, Segoe UI Emoji" font-size="20px" fill="#000000" text-anchor="start" style="white-space: pre;" direction="ltr">无融合,&gt;5cm</text></g><g transform="translate(190.3886464123915 249.8448178733868) rotate(0 54.5 14.5)"><text x="0" y="21" font-family="Virgil, Segoe UI Emoji" font-size="20px" fill="#000000" text-anchor="start" style="white-space: pre;" direction="ltr">无融合&lt;5cm</text></g><g stroke-linecap="round"><g transform="translate(57.228029590503866 71.13533565688664) rotate(0 1.6571976730749327 107.24015899725772)"><path d="M0.3 0.19 C1.09 35.8, 3.6 178.29, 4.32 213.8 M-1 -0.76 C-0.29 35.04, 2.76 179.42, 3.63 215.24" stroke="#c92a2a" stroke-width="1" fill="none"></path></g><g transform="translate(57.228029590503866 71.13533565688664) rotate(0 1.6571976730749327 107.24015899725772)"><path d="M-6.95 188.12 C-4.65 195.94, -2.7 202.5, 4.71 216.79 M-6.7 187.96 C-3.33 197.14, 0.62 208.36, 4.09 215.38" stroke="#c92a2a" stroke-width="1" fill="none"></path></g><g transform="translate(57.228029590503866 71.13533565688664) rotate(0 1.6571976730749327 107.24015899725772)"><path d="M13.57 187.66 C10.43 195.65, 6.95 202.34, 4.71 216.79 M13.81 187.5 C9.6 196.82, 5.97 208.21, 4.09 215.38" stroke="#c92a2a" stroke-width="1" fill="none"></path></g></g></svg>