<svg version="1.1" xmlns="http://www.w3.org/2000/svg" viewBox="0 0 402 226.1294716624534" width="804" height="452.2589433249068">
  <!-- svg-source:excalidraw -->
  
  <defs>
    <style>
      @font-face {
        font-family: "Virgil";
        src: url("https://excalidraw.com/Virgil.woff2");
      }
      @font-face {
        font-family: "Cascadia";
        src: url("https://excalidraw.com/Cascadia.woff2");
      }
    </style>
  </defs>
  <rect x="0" y="0" width="402" height="226.1294716624534" fill="#fdf6e3"></rect><g transform="translate(10 10) rotate(0 191 14)"><text x="0" y="21" font-family="Cascadia, Segoe UI Emoji" font-size="20px" fill="#000000" text-anchor="start" style="white-space: pre;" direction="ltr">如何记忆铜绿假单胞菌可以选用哪些抗生素</text></g><g transform="translate(41.04050299892981 96.85330400112525) rotate(0 21 14)"><text x="0" y="21" font-family="Cascadia, Segoe UI Emoji" font-size="20px" fill="#000000" text-anchor="start" style="white-space: pre;" direction="ltr">铜绿</text></g><g stroke-linecap="round" transform="translate(57.469796025964115 95.69552231953139) rotate(0 13.923257141345232 13.833957287954263)"><path d="M1.63 -1.98 C9.06 1.67, 16.98 0.29, 28.38 1.3 M-0.06 0.61 C6.06 0.3, 12.84 1.04, 27.2 -0.08 M27.7 0.72 C26.7 6.27, 29.21 16.53, 28.4 26.67 M28.4 -0.25 C28.3 8.33, 28.56 17.83, 28.49 28.53 M26.73 29.57 C18.21 26.35, 10.78 27.75, 1.38 25.83 M27.74 27.26 C18.19 28.5, 6.54 27.86, -0.53 28.28 M-0.36 28.34 C-1.13 21.89, 0.77 15.16, -0.52 1.15 M0.46 26.84 C-0.77 19.47, -0.62 11.38, 0.53 0.12" stroke="#000000" stroke-width="1" fill="none"></path></g><g stroke-linecap="round"><g transform="translate(88.38822526530578 110.35875847523948) rotate(0 42.147734900893056 0.8442217387857909)"><path d="M0.92 1.16 C14.52 1.49, 68.27 1.86, 82.14 1.84 M-0.05 0.72 C13.87 0.69, 70.36 -0.34, 84.35 -0.12" stroke="#000000" stroke-width="1" fill="none"></path></g><g transform="translate(88.38822526530578 110.35875847523948) rotate(0 42.147734900893056 0.8442217387857909)"><path d="M58.12 8.65 C66.42 8.13, 74.73 2.83, 84.73 -1.52 M56.71 10.39 C66.96 7.28, 75.88 3.03, 83.67 0.47" stroke="#000000" stroke-width="1" fill="none"></path></g><g transform="translate(88.38822526530578 110.35875847523948) rotate(0 42.147734900893056 0.8442217387857909)"><path d="M58.05 -11.87 C66.34 -5.33, 74.68 -3.58, 84.73 -1.52 M56.64 -10.13 C66.73 -5.83, 75.68 -2.68, 83.67 0.47" stroke="#000000" stroke-width="1" fill="none"></path></g></g><g transform="translate(182.1643513073584 100.74677760897384) rotate(0 73 14)"><text x="0" y="21" font-family="Cascadia, Segoe UI Emoji" font-size="20px" fill="#000000" text-anchor="start" style="white-space: pre;" direction="ltr">碳青(碳青霉烯)</text></g><g stroke-linecap="round"><g transform="translate(200.34600557553506 129.99042601551037) rotate(0 0.8815864919808405 24.448110745230224)"><path d="M0.42 -0.9 C0.7 7.35, 2.36 41.47, 2.58 49.8 M-0.82 1.24 C-0.78 9.1, 0.77 39.75, 1.61 47.93" stroke="#000000" stroke-width="1" fill="none"></path></g><g transform="translate(200.34600557553506 129.99042601551037) rotate(0 0.8815864919808405 24.448110745230224)"><path d="M-10 25.32 C-3.86 32.36, -1.28 40.43, 2.28 46.12 M-9.04 25.49 C-4.83 33.15, -0.67 43.46, 1.16 47.46" stroke="#000000" stroke-width="1" fill="none"></path></g><g transform="translate(200.34600557553506 129.99042601551037) rotate(0 0.8815864919808405 24.448110745230224)"><path d="M6.85 24.1 C6.69 31.66, 2.97 40.18, 2.28 46.12 M7.81 24.27 C5.54 32.28, 3.23 43.07, 1.16 47.46" stroke="#000000" stroke-width="1" fill="none"></path></g></g><g transform="translate(178.20507780753758 184.7490743133808) rotate(0 63 14)"><text x="0" y="21" font-family="Cascadia, Segoe UI Emoji" font-size="20px" fill="#000000" text-anchor="start" style="white-space: pre;" direction="ltr">糖(氨基糖苷)</text></g><g stroke-linecap="round"><g transform="translate(202.39720531446278 99.74677760897384) rotate(0 0.8219988863553453 -18.695848547702326)"><path d="M-0.76 -0.26 C-0.45 -6.51, 2.18 -31.12, 2.4 -37.13 M1.04 -1.44 C1.23 -7.56, 1.59 -30.29, 1.91 -35.87" stroke="#000000" stroke-width="1" fill="none"></path></g><g transform="translate(202.39720531446278 99.74677760897384) rotate(0 0.8219988863553453 -18.695848547702326)"><path d="M7.2 -17.13 C4.79 -25.96, 4.03 -31.39, 1.79 -36.68 M7.48 -18.41 C6.4 -24.19, 4.69 -30.03, 2.21 -35.68" stroke="#000000" stroke-width="1" fill="none"></path></g><g transform="translate(202.39720531446278 99.74677760897384) rotate(0 0.8219988863553453 -18.695848547702326)"><path d="M-5.32 -17.55 C-3.42 -26.15, 0.12 -31.45, 1.79 -36.68 M-5.05 -18.83 C-1.9 -24.53, 0.6 -30.22, 2.21 -35.68" stroke="#000000" stroke-width="1" fill="none"></path></g></g><g transform="translate(182.549750674625 30.647332695479236) rotate(0 21 14)"><text x="0" y="21" font-family="Cascadia, Segoe UI Emoji" font-size="20px" fill="#000000" text-anchor="start" style="white-space: pre;" direction="ltr">头孢</text></g><g stroke-linecap="round" transform="translate(27.872107852022054 95.80685583586592) rotate(0 16.72508152618846 15.79631707147928)"><path d="M-1.96 -1.04 C9.51 1.87, 18.49 1.33, 34.1 -0.63 M0.73 -0.82 C5.97 -0.79, 13.75 0.33, 33.52 0.81 M32.18 1.48 C32.26 5.26, 32.94 11.76, 34.96 30.7 M33.74 -0.49 C34.04 13.13, 32.98 25.26, 32.48 31.49 M31.82 30.46 C25.12 33.2, 17.15 31.85, -1.7 32.18 M33.08 32.33 C26.35 31.3, 20.29 32.22, 0.86 32.3 M-1.73 30.44 C1.58 24.15, 1.95 14.56, 0.76 -0.7 M-0.08 31.47 C-0.59 23.41, -0.15 14.22, -0.96 0.33" stroke="#000000" stroke-width="1" fill="none"></path></g><g stroke-linecap="round"><g transform="translate(45.9869472566495 133.0910987198472) rotate(0 -4.503416364373294 25.036532277985543)"><path d="M-1.13 -0.74 C-2.69 7.61, -8.29 40.94, -9.49 49.63 M0.48 1.49 C-0.71 10.02, -5.72 42.79, -7.29 50.81" stroke="#000000" stroke-width="1" fill="none"></path></g><g transform="translate(45.9869472566495 133.0910987198472) rotate(0 -4.503416364373294 25.036532277985543)"><path d="M-13.09 24.08 C-11.76 33.41, -7.49 41.42, -6.82 49.11 M-12.59 25.35 C-9.86 33.69, -9.14 42.7, -6.42 51.67" stroke="#000000" stroke-width="1" fill="none"></path></g><g transform="translate(45.9869472566495 133.0910987198472) rotate(0 -4.503416364373294 25.036532277985543)"><path d="M4.11 27.01 C0.46 35.33, -0.25 42.49, -6.82 49.11 M4.61 28.28 C1.7 35.6, -3.25 43.64, -6.42 51.67" stroke="#000000" stroke-width="1" fill="none"></path></g></g><g transform="translate(10.961682721844454 188.1294716624534) rotate(0 31 14)"><text x="0" y="21" font-family="Cascadia, Segoe UI Emoji" font-size="20px" fill="#000000" text-anchor="start" style="white-space: pre;" direction="ltr">喹诺酮</text></g></svg>