<svg version="1.1" xmlns="http://www.w3.org/2000/svg" viewBox="0 0 1224.2168686270145 616.436909325746" width="2448.433737254029" height="1232.873818651492">
  <!-- svg-source:excalidraw -->
  
  <defs>
    <style>
      @font-face {
        font-family: "Virgil";
        src: url("https://excalidraw.com/Virgil.woff2");
      }
      @font-face {
        font-family: "Cascadia";
        src: url("https://excalidraw.com/Cascadia.woff2");
      }
    </style>
  </defs>
  <rect x="0" y="0" width="1224.2168686270145" height="616.436909325746" fill="#fdf6e3"></rect><g transform="translate(79.41663880020758 33.52497866978274) rotate(0 291.5 30)"><text x="0" y="44" font-family="Virgil, Segoe UI Emoji" font-size="41.4740527955117px" fill="#c92a2a" text-anchor="start" style="white-space: pre;" direction="ltr">如何理解色氨酸操纵子衰减作用</text></g><g stroke-linecap="round" transform="translate(10 10) rotate(0 602.1084343135072 298.218454662873)"><path d="M0.44 -0.33 C242.52 -2.82, 487.23 -2.97, 1204.39 0.23 M0.16 0.27 C314.4 -1.17, 629.36 -1.18, 1204.18 0.13 M1204.93 -0.64 C1205.64 121.78, 1205.75 245.44, 1204.18 596.65 M1203.89 -0.22 C1202.71 180.71, 1202.32 361.14, 1204.26 596.06 M1204.56 597.17 C950.75 599.62, 698.88 599.62, -0.18 596.5 M1204.38 596.51 C807.22 598.51, 410.43 598.59, -0.22 596.17 M0.51 595.92 C-1.32 370.87, -0.72 145.44, -0.48 -0.04 M-0.11 596.17 C1.88 423.08, 1.59 248.96, 0.13 -0.12" stroke="#c92a2a" stroke-width="1" fill="none"></path></g><g stroke-linecap="round"><g transform="translate(100.31811465410067 306.7802640636655) rotate(0 533.3669666512225 -6.028445256969462)"><path d="M-0.77 0.47 C177.06 -1.5, 889.38 -10.45, 1067.5 -12.53 M1.03 -0.33 C178.65 -2.06, 888.78 -9.45, 1066.52 -11.15" stroke="#000000" stroke-width="1" fill="none"></path></g><g transform="translate(100.31811465410067 306.7802640636655) rotate(0 533.3669666512225 -6.028445256969462)"><path d="M1067.63 -9.54 L1051.97 -3.31 L1052.35 -15.63 L1067.33 -10.25" stroke="none" stroke-width="0" fill="#000000" fill-rule="evenodd"></path><path d="M1067.11 -11.24 C1061.46 -8.51, 1057.51 -7.33, 1053.43 -4.43 M1067.12 -10.95 C1061.82 -8.07, 1057.34 -6.8, 1052.77 -5.37 M1052.7 -4.15 C1053.3 -8.12, 1053.15 -9.99, 1053.24 -16.84 M1052.82 -4.52 C1053.03 -7.51, 1053.29 -11.72, 1052.28 -17.73 M1052.37 -16.98 C1056.81 -14.28, 1061.53 -12.89, 1065.95 -10.37 M1053.28 -17.67 C1056.54 -15.8, 1059.92 -14.97, 1066.9 -10.44 M1066.52 -11.15 C1066.52 -11.15, 1066.52 -11.15, 1066.52 -11.15 M1066.52 -11.15 C1066.52 -11.15, 1066.52 -11.15, 1066.52 -11.15" stroke="#000000" stroke-width="1" fill="none"></path></g></g><g transform="translate(72.90229020736473 158.03038146527115) rotate(0 82.56508739689471 29.199847981828498)"><text x="0" y="43.39969596365721" font-family="Virgil, Segoe UI Emoji" font-size="40.275652388729135px" fill="#000000" text-anchor="start" style="white-space: pre;" direction="ltr">前导序列</text></g><g stroke-linecap="round" transform="translate(173.6445657537039 281.0411310280042) rotate(0 88.23961859938015 24.84745745063651)"><path d="M-0.28 -1.1 C49.45 0.57, 98.99 -1.59, 178.37 1.08 M-0.63 0.98 C65.44 0.5, 131.61 -0.2, 175.56 0.88 M178.17 0.62 C174.87 16.37, 177.74 31.19, 176.96 49.05 M177.22 0.1 C175.6 16.98, 177.46 31.84, 177.26 49.04 M176.91 47.83 C108.11 49.43, 40.46 50.85, 1.66 50 M176.29 50.29 C141.49 49.55, 104.16 48.74, -0.76 50.01 M0.94 50.28 C1.7 35.66, -1.4 17.56, 1.99 0.21 M-0.44 50.33 C-0.44 34.69, -0.87 20.6, 0.36 0.89" stroke="#000000" stroke-width="1" fill="none"></path></g><g stroke-linecap="round" transform="translate(481.39210151722796 275.55881941672897) rotate(0 88.23961859938015 24.84745745063651)"><path d="M-1.86 0.62 C41.49 1.58, 84.24 1.28, 176.79 -1.94 M0.6 0.79 C41.47 -0.41, 81.53 -0.42, 176.79 0.08 M177.06 1.48 C177.56 11.14, 174.79 27.49, 176.69 49.63 M177.12 -0.06 C176.15 18.14, 176.81 37.64, 177.37 49.99 M174.89 51.34 C107.21 49.08, 40.25 49.8, -1.01 48.5 M176.85 49.33 C108.75 49.18, 40.07 48.81, 0.56 48.9 M1.24 50.57 C0.16 40.96, -0.52 29.48, 0.04 -0.58 M0.57 49.58 C-0.04 32.33, -0.52 12.14, 0.73 -0.5" stroke="#000000" stroke-width="1" fill="none"></path></g><g stroke-linecap="round" transform="translate(731.3812446010271 272.48701835827114) rotate(0 88.23961859938015 24.84745745063651)"><path d="M0.86 -1.13 C53.75 -1.75, 107.55 -0.63, 176.06 0.55 M-0.11 0.62 C52.78 -2.27, 105.53 -2.52, 176.92 -0.08 M178.25 -0.38 C177.82 10.08, 176.11 20.86, 177.32 50.16 M175.94 -0.93 C176.27 13.88, 176.71 27.15, 177.08 49.89 M176.8 51.14 C126.55 49.07, 78.04 50.87, -1.23 50.02 M176.48 48.84 C140.35 51.58, 102.12 50.45, 0.62 49.69 M1.55 51.6 C0.81 36.67, -1.32 24.09, -0.33 -1.85 M0.78 49.4 C-0.87 35.83, -1.14 19.1, 0.36 0.01" stroke="#000000" stroke-width="1" fill="none"></path></g><g stroke-linecap="round" transform="translate(950.6011804159406 271.1559045662725) rotate(0 88.23961859938015 24.84745745063651)"><path d="M0.23 0.78 C53.83 -0.76, 109.28 0.17, 175.46 1.36 M0.45 -0.13 C48.41 -0.6, 96.49 -0.72, 176.99 -0.51 M175.94 -1.32 C177.46 17.32, 174.84 36.23, 177.98 49.84 M176.74 0.25 C177.03 11.95, 176.11 25.18, 177.03 49.56 M175.71 49.08 C135.1 52.14, 91.39 51.06, -0.88 48.43 M176.65 48.71 C105.39 50.08, 36.4 48.55, 0.2 50.54 M1.58 48.54 C0.8 32.61, 0.81 16.92, 0.19 1.47 M0.95 49.29 C1.23 33.66, 1.36 18.27, -0.24 0.21" stroke="#000000" stroke-width="1" fill="none"></path></g><g transform="translate(1123.7782314768588 216.45433104099493) rotate(0 37 12.5)"><text x="0" y="18" font-family="Virgil, Segoe UI Emoji" font-size="20px" fill="#000000" text-anchor="start" style="white-space: pre;" direction="ltr">UUUUU</text></g><g transform="translate(1102.7107958842691 190.31415731159086) rotate(0 28.5 14.5)"><text x="0" y="21" font-family="Virgil, Segoe UI Emoji" font-size="20px" fill="#000000" text-anchor="start" style="white-space: pre;" direction="ltr">多聚U</text></g><g transform="translate(356.21194199471313 280.0491457317903) rotate(0 61.307292493813605 11.187462133907502)"><text x="0" y="15.374924267815196" font-family="Virgil, Segoe UI Emoji" font-size="17.899939414252156px" fill="#000000" text-anchor="start" style="white-space: pre;" direction="ltr">UGGUGGUGA</text></g><g transform="translate(224.90097952635972 350.79443066421663) rotate(0 4 12.5)"><text x="0" y="18" font-family="Virgil, Segoe UI Emoji" font-size="20px" fill="#000000" text-anchor="start" style="white-space: pre;" direction="ltr">1</text></g><g transform="translate(547.0987794357123 344.24125507284) rotate(0 8 12.5)"><text x="0" y="18" font-family="Virgil, Segoe UI Emoji" font-size="20px" fill="#000000" text-anchor="start" style="white-space: pre;" direction="ltr">2</text></g><g transform="translate(815.7789786821556 346.42564693663235) rotate(0 8 12.5)"><text x="0" y="18" font-family="Virgil, Segoe UI Emoji" font-size="20px" fill="#000000" text-anchor="start" style="white-space: pre;" direction="ltr">3</text></g><g transform="translate(1034.2181650613777 343.14905914094425) rotate(0 7.5 12.5)"><text x="0" y="18" font-family="Virgil, Segoe UI Emoji" font-size="20px" fill="#000000" text-anchor="start" style="white-space: pre;" direction="ltr">4</text></g><g stroke-linecap="round"><g transform="translate(699.0643055455557 432.9443278743556) rotate(0 197.50328888836336 -35.2881140343286)"><path d="M0.01 0.57 C29.25 1.9, 146.23 9.95, 175.99 6.91 C205.75 3.87, 181.9 -7.83, 178.56 -17.66 C175.22 -27.48, 151.07 -42.26, 155.97 -52.05 C160.87 -61.83, 192.76 -73, 207.97 -76.36 C223.18 -79.73, 237.08 -78.41, 247.26 -72.24 C257.43 -66.07, 268.8 -49.36, 269.03 -39.35 C269.27 -29.35, 254.84 -19.01, 248.66 -12.21 C242.47 -5.41, 210.22 -0.88, 231.9 1.47 C253.59 3.81, 351.65 1.57, 378.78 1.87 C405.91 2.17, 392.02 3.16, 394.67 3.24 M-1.45 -0.18 C28.11 0.95, 148.29 8.13, 178.14 5.39 C208 2.64, 181.34 -7.22, 177.69 -16.64 C174.04 -26.07, 151.37 -41.33, 156.24 -51.17 C161.1 -61, 191.5 -72.49, 206.88 -75.66 C222.26 -78.83, 238.02 -76.58, 248.53 -70.18 C259.04 -63.78, 270.07 -46.82, 269.94 -37.25 C269.82 -27.68, 253.89 -19.51, 247.81 -12.76 C241.72 -6.01, 211.5 0.36, 233.44 3.23 C255.38 6.1, 352.5 4.3, 379.43 4.48 C406.35 4.66, 392.68 4.78, 394.99 4.29" stroke="#000000" stroke-width="1" fill="none"></path></g></g><g transform="translate(716.4667475339716 466.13109974916006) rotate(0 224.5 14.5)"><text x="0" y="21" font-family="Virgil, Segoe UI Emoji" font-size="20px" fill="#000000" text-anchor="start" style="white-space: pre;" direction="ltr">若3,4互补+多聚U尾则形成不依赖ρ因子的转录终止</text></g><g transform="translate(567.8259727768836 498.30535457373344) rotate(0 9.417510149739314 29.42971921793537)"><text x="0" y="41.85943843587071" font-family="Virgil, Segoe UI Emoji" font-size="47.08755074869658px" fill="#c92a2a" text-anchor="start" style="white-space: pre;" direction="ltr">1</text></g><g transform="translate(610.7482354418552 525.8615439271425) rotate(0 71.5 14.5)"><text x="0" y="21" font-family="Virgil, Segoe UI Emoji" font-size="20px" fill="#000000" text-anchor="start" style="white-space: pre;" direction="ltr">明白34与多聚U</text></g><g stroke-linecap="round" transform="translate(320.33628204297474 245.94436459210237) rotate(0 90.53331241268029 53.32976340053847)"><path d="M-1.99 1.56 C61.7 -0.77, 126.02 0.82, 181.88 1.02 M0.72 0.98 C72.52 -1.36, 144.85 -1.11, 181.95 -0.47 M182.19 0.15 C180.56 27.64, 181.87 53.2, 179.42 107.62 M181.9 0.9 C181.63 37.91, 182.95 77.98, 181.31 106.52 M181.7 108.09 C141.11 106.88, 106.52 106.62, 0.98 107.43 M181.96 106.16 C135.91 106.8, 90.19 106.19, -0.39 107.15 M-1.64 104.77 C0.58 70.15, 1.38 36.62, -1.82 -1.71 M-0.43 107.44 C-1.32 74.58, -0.76 44.19, 0.4 -0.95" stroke="#c92a2a" stroke-width="1" fill="none"></path></g><g transform="translate(381.43836041368775 424.5458431799234) rotate(0 25.409271306675983 39.701986416681166)"><text x="0" y="55.40397283336249" font-family="Virgil, Segoe UI Emoji" font-size="63.52317826668997px" fill="#c92a2a" text-anchor="start" style="white-space: pre;" direction="ltr">2</text></g><g stroke-linecap="round"><g transform="translate(434.8622602049652 449.95777775410306) rotate(0 107.84197862899877 -75.48362592303215)"><path d="M-0.57 -0.62 C35.46 -26.17, 180.34 -127.27, 216.25 -152.63 M1.34 1.66 C37.22 -23.8, 179.46 -125.89, 215.44 -151.48" stroke="#000000" stroke-width="1" fill="none"></path></g><g transform="translate(434.8622602049652 449.95777775410306) rotate(0 107.84197862899877 -75.48362592303215)"><path d="M216.6 -153.14 L206.98 -139.15 L201.07 -147.75 L216.99 -153.45" stroke="none" stroke-width="0" fill="#000000" fill-rule="evenodd"></path><path d="M214.66 -151.14 C212.32 -148.81, 209.89 -144.69, 208.67 -137.42 M215.61 -152.13 C214.26 -148.82, 211.62 -145.4, 207.84 -138.85 M208.14 -139.22 C205.73 -141.19, 203.63 -144.78, 200.83 -149.92 M207.94 -138.57 C205.54 -140.93, 203.88 -144.35, 200.89 -149.1 M201.92 -148.68 C204.19 -149.78, 208.57 -148.75, 215.83 -150.83 M200.98 -148.95 C207.01 -149.65, 211.85 -151.14, 214.83 -151.57 M215.44 -151.48 C215.44 -151.48, 215.44 -151.48, 215.44 -151.48 M215.44 -151.48 C215.44 -151.48, 215.44 -151.48, 215.44 -151.48" stroke="#000000" stroke-width="1" fill="none"></path></g></g><g transform="translate(427.2937717554055 376.60166335373015) rotate(0 193.5 14.5)"><text x="0" y="21" font-family="Virgil, Segoe UI Emoji" font-size="20px" fill="#000000" text-anchor="start" style="white-space: pre;" direction="ltr">核糖体一定要达到序列2,3才会3,4形成发夹</text></g><g stroke-linecap="round"><g transform="translate(566.1145223918511 562.1321404151863) rotate(0 -64.05461192295706 -33.884071228234916)"><path d="M0.23 0.99 C-21.02 -10.44, -105.88 -57.39, -127.23 -68.76 M-1.1 0.47 C-22.57 -10.83, -107.61 -56.1, -128.34 -67.72" stroke="#c92a2a" stroke-width="1" fill="none"></path></g><g transform="translate(566.1145223918511 562.1321404151863) rotate(0 -64.05461192295706 -33.884071228234916)"><path d="M-129.85 -68.77 L-114.53 -66.25 L-119.66 -55.23 L-129.87 -68.18" stroke="none" stroke-width="0" fill="#c92a2a" fill-rule="evenodd"></path><path d="M-127.1 -68.11 C-124.65 -68.67, -117.86 -67.48, -112.79 -68.29 M-128.94 -67.88 C-123.74 -67.08, -118.82 -66.91, -114.06 -67.34 M-114.52 -65.89 C-114.13 -63.52, -116.23 -58.97, -119.28 -56.45 M-113.54 -67.18 C-115.31 -62.66, -117.51 -58.02, -119.61 -55.42 M-120.45 -57.06 C-121.61 -58.17, -123.31 -64.26, -127.72 -69.02 M-119.49 -55.02 C-121.86 -58.23, -122.49 -60.35, -128.81 -67.01 M-128.34 -67.72 C-128.34 -67.72, -128.34 -67.72, -128.34 -67.72 M-128.34 -67.72 C-128.34 -67.72, -128.34 -67.72, -128.34 -67.72" stroke="#c92a2a" stroke-width="1" fill="none"></path></g></g><g stroke-linecap="round"><g transform="translate(367.63432286148145 437.4677442094812) rotate(0 -41.61480147804781 -26.456161887194185)"><path d="M0.32 0.85 C-13.41 -7.92, -69.16 -44.67, -83.18 -53.76 M-0.97 0.25 C-14.69 -8.32, -69.66 -43.94, -83.55 -52.81" stroke="#c92a2a" stroke-width="1" fill="none"></path></g><g transform="translate(367.63432286148145 437.4677442094812) rotate(0 -41.61480147804781 -26.456161887194185)"><path d="M-85.02 -51.86 L-70.21 -49.12 L-77.49 -41.49 L-83.26 -52.44" stroke="none" stroke-width="0" fill="#c92a2a" fill-rule="evenodd"></path><path d="M-82.48 -51.42 C-81.49 -51.75, -77.97 -53.18, -69.4 -52.19 M-83.45 -52.1 C-78.63 -52.57, -74.15 -50.79, -68.28 -50.4 M-69.27 -50.74 C-71.18 -47.57, -70.75 -44.95, -75.32 -40.39 M-68.55 -51.15 C-70.73 -46.98, -74.28 -43.42, -75.88 -40.49 M-76.69 -40.47 C-79.06 -45.3, -79.42 -47.96, -84.77 -53.45 M-76.11 -39.73 C-77.95 -43.76, -79.5 -46.75, -83.5 -52.89 M-83.55 -52.81 C-83.55 -52.81, -83.55 -52.81, -83.55 -52.81 M-83.55 -52.81 C-83.55 -52.81, -83.55 -52.81, -83.55 -52.81" stroke="#c92a2a" stroke-width="1" fill="none"></path></g></g><g transform="translate(235.44199026317926 336.49567901726596) rotate(0 23.699175870652823 37.029962297895054)"><text x="0" y="52.05992459579008" font-family="Virgil, Segoe UI Emoji" font-size="59.247939676632036px" fill="#c92a2a" text-anchor="start" style="white-space: pre;" direction="ltr">3</text></g><g stroke-linecap="round"><g transform="translate(279.62898615038023 349.56563091610406) rotate(0 15.028103052781688 -26.108958146474833)"><path d="M-0.49 -0.03 C4.29 -8.61, 23.29 -43.59, 28.35 -52.19 M1.45 -1.08 C6.62 -9.41, 25.89 -41.88, 30.55 -50.65" stroke="#000000" stroke-width="1" fill="none"></path></g><g transform="translate(279.62898615038023 349.56563091610406) rotate(0 15.028103052781688 -26.108958146474833)"><path d="M29.08 -52.64 L31.19 -36.89 L17.7 -41.72 L28.92 -51.27" stroke="none" stroke-width="0" fill="#000000" fill-rule="evenodd"></path><path d="M30.52 -51.87 C30.15 -45.91, 30.5 -42.82, 28.59 -35.08 M31.13 -50.66 C29.52 -44.67, 29.77 -39.64, 29.23 -36.4 M29.79 -35.89 C25.77 -38.35, 23.93 -40.19, 17.76 -42.09 M29.86 -35.74 C25.44 -37.66, 21.7 -40.36, 18.61 -41.32 M18.38 -42.94 C21.53 -44.3, 24.23 -44.36, 30.48 -50.11 M17.99 -42.05 C22.41 -44.86, 26.71 -48.08, 30.22 -50.78 M30.55 -50.65 C30.55 -50.65, 30.55 -50.65, 30.55 -50.65 M30.55 -50.65 C30.55 -50.65, 30.55 -50.65, 30.55 -50.65" stroke="#000000" stroke-width="1" fill="none"></path></g></g><g transform="translate(298.29399200528576 203.32272395058453) rotate(0 306 14.5)"><text x="0" y="21" font-family="Virgil, Segoe UI Emoji" font-size="20px" fill="#000000" text-anchor="start" style="white-space: pre;" direction="ltr">所以就要设计一个机制让低色氨酸时卡在1,2之间,高色氨酸时顺利通过</text></g></svg>