<svg version="1.1" xmlns="http://www.w3.org/2000/svg" viewBox="0 0 618.2581618938611 202.25473230750745" width="1236.5163237877223" height="404.5094646150149">
  <!-- svg-source:excalidraw -->
  
  <defs>
    <style>
      @font-face {
        font-family: "Virgil";
        src: url("https://excalidraw.com/Virgil.woff2");
      }
      @font-face {
        font-family: "Cascadia";
        src: url("https://excalidraw.com/Cascadia.woff2");
      }
    </style>
  </defs>
  <rect x="0" y="0" width="618.2581618938611" height="202.25473230750745" fill="#fdf6e3"></rect><g transform="translate(256.5652796148957 105.79167462046328) rotate(0 71 14.5)"><text x="0" y="21" font-family="Virgil, Segoe UI Emoji" font-size="20px" fill="#000000" text-anchor="start" style="white-space: pre;" direction="ltr">肚皮纹一只蚯蚓</text></g><g stroke-linecap="round" transform="translate(319.51057878558265 109.62285592974945) rotate(0 19.78453320514558 10.724004805557215)"><path d="M-0.1 -1.1 C8.86 -1.32, 17.29 0.79, 41.45 -1.78 M0.86 0.87 C12.88 -0.41, 27.01 0.93, 39.56 -0.74 M40.2 0.02 C37.52 7.28, 41.05 9.44, 37.72 22.05 M39.09 0.43 C39.78 8.58, 39.63 16.24, 38.85 22.26 M39.38 21.7 C27.34 22.59, 16.76 20.85, -0.75 21.35 M38.74 20.98 C24.21 21.66, 7.87 22.15, -0.1 21.86 M-1.34 22.49 C1.45 12.26, -1.98 4.34, -1.54 -1.01 M0.39 21.48 C-0.3 12.67, -0.46 4.35, -0.94 -0.74" stroke="#000000" stroke-width="1" fill="none"></path></g><g stroke-linecap="round"><g transform="translate(337.86739236412643 100.15451223169072) rotate(0 -2.3141831570544227 -21.5469445628421)"><path d="M-0.06 1.15 C-0.66 -5.89, -2.98 -35.11, -3.86 -42.69 M-1.55 0.7 C-2.25 -6.61, -4.34 -36.9, -4.57 -44.24" stroke="#000000" stroke-width="1" fill="none"></path></g><g transform="translate(337.86739236412643 100.15451223169072) rotate(0 -2.3141831570544227 -21.5469445628421)"><path d="M5.97 -23.24 C3.55 -31.31, -1.61 -34.72, -4.86 -45.04 M5.03 -23.15 C1.77 -31.4, -1.17 -36.68, -4.9 -45.14" stroke="#000000" stroke-width="1" fill="none"></path></g><g transform="translate(337.86739236412643 100.15451223169072) rotate(0 -2.3141831570544227 -21.5469445628421)"><path d="M-9.06 -22.43 C-7.28 -30.72, -8.25 -34.36, -4.86 -45.04 M-10 -22.34 C-8.23 -30.93, -6.15 -36.48, -4.9 -45.14" stroke="#000000" stroke-width="1" fill="none"></path></g></g><g transform="translate(330.3334257191354 29.493131968536602) rotate(0 21 14.5)"><text x="0" y="21" font-family="Virgil, Segoe UI Emoji" font-size="20px" fill="#000000" text-anchor="start" style="white-space: pre;" direction="ltr">抑制</text></g><g transform="translate(10 105.35409912313449) rotate(0 91 14.5)"><text x="0" y="21" font-family="Virgil, Segoe UI Emoji" font-size="20px" fill="#000000" text-anchor="start" style="white-space: pre;" direction="ltr">延髓网状结构腹内核</text></g><g stroke-linecap="round"><g transform="translate(262.6920479333535 103.1256701125923) rotate(0 -56.94775891707693 -21.390723837484572)"><path d="M-1.06 0.21 C-19.99 -6.93, -94.58 -35.99, -113.25 -42.99 M0.58 -0.72 C-18.58 -7.72, -95.37 -35.33, -114.47 -41.93" stroke="#000000" stroke-width="1" fill="none"></path></g><g transform="translate(262.6920479333535 103.1256701125923) rotate(0 -56.94775891707693 -21.390723837484572)"><path d="M-84.12 -43.09 C-95.79 -42.99, -103.62 -43.78, -115.35 -42.72 M-84.83 -41.5 C-90.69 -42.61, -98.08 -41.7, -115.31 -42.04" stroke="#000000" stroke-width="1" fill="none"></path></g><g transform="translate(262.6920479333535 103.1256701125923) rotate(0 -56.94775891707693 -21.390723837484572)"><path d="M-90.97 -23.74 C-100.37 -29.91, -105.96 -37.04, -115.35 -42.72 M-91.68 -22.15 C-96.12 -27.73, -101.95 -31.24, -115.31 -42.04" stroke="#000000" stroke-width="1" fill="none"></path></g></g><g transform="translate(87.04414403489969 27.243924433705445) rotate(0 41 14.5)"><text x="0" y="21" font-family="Virgil, Segoe UI Emoji" font-size="20px" fill="#000000" text-anchor="start" style="white-space: pre;" direction="ltr">大脑皮层</text></g><g stroke-linecap="round"><g transform="translate(300.27223985810105 110.65213767270038) rotate(0 -24.841356369571145 -29.754658547199796)"><path d="M-0.55 0.92 C-8.87 -9.19, -41.68 -50.11, -50.06 -60.43 M1.36 0.36 C-7.11 -9.56, -42.75 -48.78, -51.04 -58.83" stroke="#000000" stroke-width="1" fill="none"></path></g><g transform="translate(300.27223985810105 110.65213767270038) rotate(0 -24.841356369571145 -29.754658547199796)"><path d="M-23.25 -44.41 C-32.14 -50, -40.63 -51.91, -52.1 -59.1 M-25.39 -43.72 C-32.19 -49.08, -40.09 -52.51, -50.83 -59.54" stroke="#000000" stroke-width="1" fill="none"></path></g><g transform="translate(300.27223985810105 110.65213767270038) rotate(0 -24.841356369571145 -29.754658547199796)"><path d="M-38.71 -30.93 C-43.2 -40.32, -47.25 -46.1, -52.1 -59.1 M-40.85 -30.23 C-43.1 -39.54, -46.47 -46.92, -50.83 -59.54" stroke="#000000" stroke-width="1" fill="none"></path></g></g><g transform="translate(200.62912454387256 10) rotate(0 31 14.5)"><text x="0" y="21" font-family="Virgil, Segoe UI Emoji" font-size="20px" fill="#000000" text-anchor="start" style="white-space: pre;" direction="ltr">纹状体</text></g><g stroke-linecap="round"><g transform="translate(372.06597960189856 137.62080388936633) rotate(0 8.900751289927399 8.169687140927813)"><path d="M0.85 0.65 C3.73 3.22, 15.18 12.29, 17.97 14.79 M-0.17 -0.05 C2.46 2.79, 13.42 14.07, 16.78 16.39" stroke="#000000" stroke-width="1" fill="none"></path></g><g transform="translate(372.06597960189856 137.62080388936633) rotate(0 8.900751289927399 8.169687140927813)"><path d="M6.43 11.74 C9.79 12.76, 14.55 16.26, 16.73 15.65 M6.14 11.64 C8.58 13.5, 11.21 14.37, 16.49 15.83" stroke="#000000" stroke-width="1" fill="none"></path></g><g transform="translate(372.06597960189856 137.62080388936633) rotate(0 8.900751289927399 8.169687140927813)"><path d="M11.71 5.66 C13.16 8.88, 16.05 14.54, 16.73 15.65 M11.42 5.56 C12.39 9.12, 13.57 11.66, 16.49 15.83" stroke="#000000" stroke-width="1" fill="none"></path></g></g><g transform="translate(359.9494559222342 163.25473230750745) rotate(0 41 14.5)"><text x="0" y="21" font-family="Virgil, Segoe UI Emoji" font-size="20px" fill="#000000" text-anchor="start" style="white-space: pre;" direction="ltr">小脑蚓部</text></g><g transform="translate(406.2581618938612 64.61723082037764) rotate(0 101 14.5)"><text x="0" y="21" font-family="Virgil, Segoe UI Emoji" font-size="20px" fill="#000000" text-anchor="start" style="white-space: pre;" direction="ltr">小脑的大部都是易化区</text></g></svg>