<svg version="1.1" xmlns="http://www.w3.org/2000/svg" viewBox="0 0 632.7285408096589 333.09867177051444" width="1265.4570816193177" height="666.1973435410289">
  <!-- svg-source:excalidraw -->
  
  <defs>
    <style>
      @font-face {
        font-family: "Virgil";
        src: url("https://excalidraw.com/Virgil.woff2");
      }
      @font-face {
        font-family: "Cascadia";
        src: url("https://excalidraw.com/Cascadia.woff2");
      }
    </style>
  </defs>
  <rect x="0" y="0" width="632.7285408096589" height="333.09867177051444" fill="#fdf6e3"></rect><g transform="translate(190.11774130658904 10) rotate(0 101 14.5)"><text x="0" y="21" font-family="Virgil, Segoe UI Emoji" font-size="20px" fill="#000000" text-anchor="start" style="white-space: pre;" direction="ltr">如何记忆肾上腺髓质素</text></g><g transform="translate(51.513673304262 130.3782761709263) rotate(0 21 14.5)"><text x="0" y="21" font-family="Virgil, Segoe UI Emoji" font-size="20px" fill="#000000" text-anchor="start" style="white-space: pre;" direction="ltr">心脏</text></g><g transform="translate(120.2013709372531 291.2452035669299) rotate(0 31 14.5)"><text x="0" y="21" font-family="Virgil, Segoe UI Emoji" font-size="20px" fill="#000000" text-anchor="start" style="white-space: pre;" direction="ltr">肾上腺</text></g><g stroke-linecap="round"><g transform="translate(71.67599148592052 251.12706865028804) rotate(0 29.447134959610857 18.457168936549863)"><path d="M0.51 -0.88 C10.29 5.23, 49.97 30.08, 59.58 36.24 M-0.68 1.28 C8.92 7.62, 48.75 31.77, 58.98 37.79" stroke="#000000" stroke-width="1" fill="none"></path></g><g transform="translate(71.67599148592052 251.12706865028804) rotate(0 29.447134959610857 18.457168936549863)"><path d="M28.06 33.19 C40.58 32.86, 51.45 35.22, 59.96 36.13 M28.69 32.44 C37.27 33.11, 43.16 34.17, 58.84 36.86" stroke="#000000" stroke-width="1" fill="none"></path></g><g transform="translate(71.67599148592052 251.12706865028804) rotate(0 29.447134959610857 18.457168936549863)"><path d="M38.62 15.59 C47.12 21.91, 54.03 30.87, 59.96 36.13 M39.24 14.84 C45.35 19.65, 48.8 24.77, 58.84 36.86" stroke="#000000" stroke-width="1" fill="none"></path></g></g><g transform="translate(77.27839386920704 225.90398460459227) rotate(0 37.5 14.5)"><text x="0" y="21" font-family="Virgil, Segoe UI Emoji" font-size="20px" fill="#000000" text-anchor="start" style="white-space: pre;" direction="ltr">AngⅡ↓</text></g><g stroke-linecap="round"><g transform="translate(176.5793215770754 291.9523819600311) rotate(0 31.949195140744134 -21.785689576674088)"><path d="M0.32 -0.99 C11.24 -8.25, 54.34 -37.56, 64.87 -44.67 M-0.97 1.1 C9.89 -5.88, 53.05 -35.49, 64.21 -43.28" stroke="#000000" stroke-width="1" fill="none"></path></g><g transform="translate(176.5793215770754 291.9523819600311) rotate(0 31.949195140744134 -21.785689576674088)"><path d="M45.19 -17.9 C50.9 -26.23, 56.83 -32.89, 64.89 -43.57 M46.42 -19.02 C51.42 -24.82, 54.4 -29.65, 64.81 -43.51" stroke="#000000" stroke-width="1" fill="none"></path></g><g transform="translate(176.5793215770754 291.9523819600311) rotate(0 31.949195140744134 -21.785689576674088)"><path d="M33.53 -34.79 C41.96 -38.98, 50.77 -41.47, 64.89 -43.57 M34.76 -35.91 C42.38 -37.83, 48.04 -38.81, 64.81 -43.51" stroke="#000000" stroke-width="1" fill="none"></path></g></g><g transform="translate(243.0197278585785 221.48421569820903) rotate(0 41 14.5)"><text x="0" y="21" font-family="Virgil, Segoe UI Emoji" font-size="20px" fill="#000000" text-anchor="start" style="white-space: pre;" direction="ltr">醛固酮↓</text></g><g stroke-linecap="round"><g transform="translate(319.214702234248 214.31292581938493) rotate(0 16.97992609494682 -9.932461827483095)"><path d="M0.74 0.52 C6.37 -2.87, 28.87 -17.02, 34.3 -20.39 M-0.34 -0.25 C5.08 -3.42, 27.3 -15.24, 33.29 -18.79" stroke="#000000" stroke-width="1" fill="none"></path></g><g transform="translate(319.214702234248 214.31292581938493) rotate(0 16.97992609494682 -9.932461827483095)"><path d="M21.08 -3.81 C24.88 -10.78, 30.56 -12.77, 33.22 -17.78 M20.69 -3.8 C25.19 -7.93, 28.57 -13.33, 33.72 -19.74" stroke="#000000" stroke-width="1" fill="none"></path></g><g transform="translate(319.214702234248 214.31292581938493) rotate(0 16.97992609494682 -9.932461827483095)"><path d="M14.39 -15.76 C20.47 -18.69, 28.44 -16.59, 33.22 -17.78 M13.99 -15.75 C20.54 -15.96, 26.08 -17.5, 33.72 -19.74" stroke="#000000" stroke-width="1" fill="none"></path></g></g><g transform="translate(356.4604631224151 162.55396361309914) rotate(0 21 14.5)"><text x="0" y="21" font-family="Virgil, Segoe UI Emoji" font-size="20px" fill="#000000" text-anchor="start" style="white-space: pre;" direction="ltr">利尿</text></g><g stroke-linecap="round"><g transform="translate(116.19307791212822 227.43986966764038) rotate(0 31.300880190880093 -17.332738416245434)"><path d="M-0.82 0.86 C9.66 -5.05, 52.54 -29.37, 63.42 -35.52 M0.95 0.26 C11.19 -5.47, 51.76 -28.27, 62.29 -34.18" stroke="#000000" stroke-width="1" fill="none"></path></g><g transform="translate(116.19307791212822 227.43986966764038) rotate(0 31.300880190880093 -17.332738416245434)"><path d="M44.17 -12.02 C48.84 -17.9, 54.63 -28.71, 61.16 -34.66 M41.95 -11.16 C50.92 -19.45, 58.26 -28.57, 61.79 -33.81" stroke="#000000" stroke-width="1" fill="none"></path></g><g transform="translate(116.19307791212822 227.43986966764038) rotate(0 31.300880190880093 -17.332738416245434)"><path d="M34.12 -29.91 C42.23 -29.58, 51.47 -34.24, 61.16 -34.66 M31.9 -29.05 C44.66 -30.64, 55.8 -32.99, 61.79 -33.81" stroke="#000000" stroke-width="1" fill="none"></path></g></g><g transform="translate(199.15582342569718 166.12488367352984) rotate(0 31 14.5)"><text x="0" y="21" font-family="Virgil, Segoe UI Emoji" font-size="20px" fill="#000000" text-anchor="start" style="white-space: pre;" direction="ltr">舒血管</text></g><g stroke-linecap="round"><g transform="translate(195.64084413801572 165.79275551643337) rotate(0 -47.75410077729711 -6.201318008963142)"><path d="M1 0.47 C-14.78 -1.54, -79.48 -8.94, -95.6 -11.11 M0.07 -0.33 C-15.78 -2.77, -80.41 -10.99, -96.51 -12.87" stroke="#000000" stroke-width="1" fill="none"></path></g><g transform="translate(195.64084413801572 165.79275551643337) rotate(0 -47.75410077729711 -6.201318008963142)"><path d="M-66.49 -19.5 C-72.65 -17.97, -81.58 -16.32, -97.33 -11.09 M-66.41 -19.97 C-75.72 -18.6, -84.22 -15.03, -97.01 -12.79" stroke="#000000" stroke-width="1" fill="none"></path></g><g transform="translate(195.64084413801572 165.79275551643337) rotate(0 -47.75410077729711 -6.201318008963142)"><path d="M-69 0.87 C-74.76 -2.2, -83.13 -5.11, -97.33 -11.09 M-68.92 0.4 C-77.66 -4.39, -85.4 -7, -97.01 -12.79" stroke="#000000" stroke-width="1" fill="none"></path></g></g><g stroke-linecap="round"><g transform="translate(91.18812750446665 127.99794672773248) rotate(0 39.171994195034664 -0.3007201179294725)"><path d="M-1.11 -1.16 C12.16 -1.49, 66.07 -1.49, 79.46 -1.35 M0.5 0.84 C13.73 0.67, 66.03 0.7, 79.09 0.21" stroke="#000000" stroke-width="1" fill="none"></path></g><g transform="translate(91.18812750446665 127.99794672773248) rotate(0 39.171994195034664 -0.3007201179294725)"><path d="M49.13 12.77 C59.08 9.57, 68.78 5.51, 79.8 -1.77 M51.35 10.11 C56.53 7.93, 63.21 6.42, 78.84 -0.27" stroke="#000000" stroke-width="1" fill="none"></path></g><g transform="translate(91.18812750446665 127.99794672773248) rotate(0 39.171994195034664 -0.3007201179294725)"><path d="M48.8 -7.75 C58.94 -5.1, 68.75 -3.31, 79.8 -1.77 M51.02 -10.41 C56.26 -8.22, 63 -5.35, 78.84 -0.27" stroke="#000000" stroke-width="1" fill="none"></path></g></g><g transform="translate(190.71912913304362 115.40976194501127) rotate(0 41 14.5)"><text x="0" y="21" font-family="Virgil, Segoe UI Emoji" font-size="20px" fill="#000000" text-anchor="start" style="white-space: pre;" direction="ltr">正性肌力</text></g><g stroke-linecap="round"><g transform="translate(391.358221779066 104.59885279830854) rotate(0 47.72946354527343 104.65066165208566)"><path d="M0.89 0.33 C10.83 -0.29, 49.18 -10.17, 58.52 -2.99 C67.85 4.19, 50.83 34.58, 56.9 43.41 C62.97 52.24, 94.69 45.85, 94.95 50 C95.2 54.14, 64.24 42.04, 58.46 68.3 C52.68 94.57, 64.46 185.21, 60.26 207.59 C56.07 229.97, 37.67 203.23, 33.3 202.58 M-0.1 -0.54 C9.8 -1.53, 48.25 -12.05, 57.67 -4.48 C67.1 3.08, 50.14 35.64, 56.46 44.86 C62.77 54.08, 95.46 46.9, 95.56 50.82 C95.66 54.75, 62.79 42.44, 57.06 68.42 C51.33 94.4, 65.07 183.99, 61.18 206.69 C57.29 229.39, 38.38 205.14, 33.71 204.64" stroke="#000000" stroke-width="1" fill="none"></path></g></g><g transform="translate(520.7285408096589 148.5583884245999) rotate(0 51 14.5)"><text x="0" y="21" font-family="Virgil, Segoe UI Emoji" font-size="20px" fill="#000000" text-anchor="start" style="white-space: pre;" direction="ltr">理想降压药</text></g><g stroke-linecap="round"><g transform="translate(11.2782380061131 270.463917297429) rotate(0 121.27966696806251 -88.02847417880636)"><path d="M0.12 -0.33 C23.89 -9.78, 130.02 -38.02, 142.21 -55.77 C154.4 -73.52, 56.33 -86.81, 73.25 -106.8 C90.16 -126.79, 215.29 -164.3, 243.7 -175.73 M-1.28 -1.55 C22.36 -11.39, 128.78 -39.44, 141.16 -57.27 C153.53 -75.1, 55.84 -88.98, 72.95 -108.53 C90.06 -128.07, 215.65 -163.5, 243.84 -174.53" stroke="#c92a2a" stroke-width="1" fill="none"></path></g><g transform="translate(11.2782380061131 270.463917297429) rotate(0 121.27966696806251 -88.02847417880636)"><path d="M219.81 -156.18 C228.39 -159.32, 234.56 -166.08, 244.13 -174.89 M220.21 -156.37 C228.05 -162.59, 235.49 -167.83, 244.67 -173.78" stroke="#c92a2a" stroke-width="1" fill="none"></path></g><g transform="translate(11.2782380061131 270.463917297429) rotate(0 121.27966696806251 -88.02847417880636)"><path d="M213.3 -175.65 C223.76 -173.65, 231.65 -175.27, 244.13 -174.89 M213.7 -175.83 C223.73 -175.43, 233.39 -174.02, 244.67 -173.78" stroke="#c92a2a" stroke-width="1" fill="none"></path></g></g><g stroke-linecap="round"><g transform="translate(62.384693439884416 291.906702382304) rotate(0 179.48900366063276 -52.7333688633495)"><path d="M-0.63 0.76 C12.57 4.85, 18.98 47.36, 78.6 24.46 C138.23 1.55, 310.41 -109.86, 357.11 -136.66 M1.25 0.11 C14.88 3.88, 21.21 45.37, 80.93 22.78 C140.66 0.18, 313.16 -109.14, 359.6 -135.46" stroke="#c92a2a" stroke-width="1" fill="none"></path></g><g transform="translate(62.384693439884416 291.906702382304) rotate(0 179.48900366063276 -52.7333688633495)"><path d="M341.95 -113.4 C346.89 -119.24, 349.86 -122.24, 359.74 -135.78 M339.73 -112.55 C346.99 -121.56, 355.11 -129.44, 360.04 -135.17" stroke="#c92a2a" stroke-width="1" fill="none"></path></g><g transform="translate(62.384693439884416 291.906702382304) rotate(0 179.48900366063276 -52.7333688633495)"><path d="M331.41 -131.01 C339 -132.35, 344.62 -130.9, 359.74 -135.78 M329.2 -130.16 C340.53 -132.66, 352.59 -133.95, 360.04 -135.17" stroke="#c92a2a" stroke-width="1" fill="none"></path></g></g><g stroke-linecap="round" transform="translate(50.115230798726714 211.09341479390991) rotate(0 44.4264466341823 24.583525814899218)"><path d="M0.93 -1.48 C18.65 2.46, 37.32 2.49, 88.43 -0.16 M-0.67 -0.72 C30.06 -0.25, 58.37 -1.06, 88.98 -0.6 M90.35 0.61 C88.43 10.3, 88.03 23.56, 87.8 50.33 M87.91 0.02 C87.93 14.43, 88.35 26.41, 88.1 48.59 M89.69 51.11 C70.02 50.39, 46.45 48.68, -1.5 51.04 M89.31 49.33 C65.58 48.94, 40.64 49.36, -0.62 49.81 M0.83 48.05 C-1.43 38.29, 1.41 28.15, -1.1 -1.07 M-0.51 49.47 C0.56 36.81, -0.66 26.6, 0.65 0.79" stroke="#c92a2a" stroke-width="1" fill="none"></path></g></svg>