<svg version="1.1" xmlns="http://www.w3.org/2000/svg" viewBox="0 0 399.0382890195609 309.068892936795" width="798.0765780391218" height="618.13778587359">
  <!-- svg-source:excalidraw -->
  
  <defs>
    <style>
      @font-face {
        font-family: "Virgil";
        src: url("https://excalidraw.com/Virgil.woff2");
      }
      @font-face {
        font-family: "Cascadia";
        src: url("https://excalidraw.com/Cascadia.woff2");
      }
    </style>
  </defs>
  <rect x="0" y="0" width="399.0382890195609" height="309.068892936795" fill="#fdf6e3"></rect><g transform="translate(83.34179640899936 10) rotate(0 81 14)"><text x="0" y="21" font-family="Cascadia, Segoe UI Emoji" font-size="20px" fill="#c92a2a" text-anchor="start" style="white-space: pre;" direction="ltr">如何记忆控制系统</text></g><g transform="translate(14.466237314833734 125.93490656660617) rotate(0 61 14)"><text x="0" y="21" font-family="Cascadia, Segoe UI Emoji" font-size="20px" fill="#000000" text-anchor="start" style="white-space: pre;" direction="ltr">自动控制系统</text></g><g transform="translate(247.03828901956092 129.22138308129513) rotate(0 71 14)"><text x="0" y="21" font-family="Cascadia, Segoe UI Emoji" font-size="20px" fill="#000000" text-anchor="start" style="white-space: pre;" direction="ltr">非自动控制系统</text></g><g transform="translate(282.7588243572774 266.9959092220098) rotate(0 21 14)"><text x="0" y="21" font-family="Cascadia, Segoe UI Emoji" font-size="20px" fill="#000000" text-anchor="start" style="white-space: pre;" direction="ltr">开环</text></g><g transform="translate(54.990084481710824 271.068892936795) rotate(0 21 14)"><text x="0" y="21" font-family="Cascadia, Segoe UI Emoji" font-size="20px" fill="#000000" text-anchor="start" style="white-space: pre;" direction="ltr">闭环</text></g><g stroke-linecap="round"><g transform="translate(65.82703234257258 262.9043218869473) rotate(0 0.5131713335647703 -54.75816115940762)"><path d="M-0.26 -0.46 C-0.27 -18.22, 0.09 -89.54, 0.25 -107.29 M1.81 -1.75 C1.6 -19.8, -0.49 -91.22, -0.78 -109.05" stroke="#000000" stroke-width="1" fill="none"></path></g><g transform="translate(65.82703234257258 262.9043218869473) rotate(0 0.5131713335647703 -54.75816115940762)"><path d="M9.37 -81.38 C7.89 -89.77, 4.89 -98.24, -0.62 -108.66 M9.58 -81.66 C7.99 -88.75, 4.95 -95.03, -0.02 -108.31" stroke="#000000" stroke-width="1" fill="none"></path></g><g transform="translate(65.82703234257258 262.9043218869473) rotate(0 0.5131713335647703 -54.75816115940762)"><path d="M-11.15 -80.9 C-5.95 -89.4, -2.27 -98.03, -0.62 -108.66 M-10.93 -81.18 C-7.09 -88.48, -4.69 -94.89, -0.02 -108.31" stroke="#000000" stroke-width="1" fill="none"></path></g></g><g stroke-linecap="round"><g transform="translate(307.8246600916462 254.20592678111825) rotate(0 -109.70912704752598 -47.10613864830435)"><path d="M0.4 -0.94 C-36.15 -17.02, -182.67 -79.7, -219.24 -95.4 M-0.85 1.18 C-37.5 -14.21, -183.41 -78.19, -219.82 -94.03" stroke="#000000" stroke-width="1" fill="none"></path></g><g transform="translate(307.8246600916462 254.20592678111825) rotate(0 -109.70912704752598 -47.10613864830435)"><path d="M-191.44 -90.98 C-199.6 -91.11, -208.33 -92.7, -221.45 -94.78 M-190.49 -92.57 C-199.58 -93.04, -209.54 -93.56, -219.39 -93.52" stroke="#000000" stroke-width="1" fill="none"></path></g><g transform="translate(307.8246600916462 254.20592678111825) rotate(0 -109.70912704752598 -47.10613864830435)"><path d="M-199.65 -72.18 C-205.47 -78.1, -211.68 -85.45, -221.45 -94.78 M-198.7 -73.77 C-204.95 -80.51, -212.19 -87.26, -219.39 -93.52" stroke="#000000" stroke-width="1" fill="none"></path></g></g><g stroke-linecap="round"><g transform="translate(329.11260902431707 255.7897550891654) rotate(0 6.0077666573898085 -46.62042788072165)"><path d="M-0.78 -0.53 C1.15 -16.48, 8.64 -79.38, 10.53 -95.05 M1.01 1.81 C3.41 -14.08, 10.8 -78.17, 12.79 -94.05" stroke="#000000" stroke-width="1" fill="none"></path></g><g transform="translate(329.11260902431707 255.7897550891654) rotate(0 6.0077666573898085 -46.62042788072165)"><path d="M18.74 -66.26 C16.28 -72.53, 15.67 -77.31, 12.34 -93.54 M20.01 -64.11 C17.96 -74.86, 15.96 -82.93, 12.53 -93.24" stroke="#000000" stroke-width="1" fill="none"></path></g><g transform="translate(329.11260902431707 255.7897550891654) rotate(0 6.0077666573898085 -46.62042788072165)"><path d="M-1.64 -68.71 C0.28 -74.33, 4.02 -78.58, 12.34 -93.54 M-0.37 -66.56 C3.92 -76.55, 8.25 -83.86, 12.53 -93.24" stroke="#000000" stroke-width="1" fill="none"></path></g></g><g transform="translate(165.71906243815454 202.99388581415656) rotate(0 21 14)"><text x="0" y="21" font-family="Cascadia, Segoe UI Emoji" font-size="20px" fill="#000000" text-anchor="start" style="white-space: pre;" direction="ltr">前馈</text></g><g transform="translate(10 199.875946556631) rotate(0 21 14)"><text x="0" y="21" font-family="Cascadia, Segoe UI Emoji" font-size="20px" fill="#000000" text-anchor="start" style="white-space: pre;" direction="ltr">反馈</text></g></svg>