<svg version="1.1" xmlns="http://www.w3.org/2000/svg" viewBox="0 0 533.694849894937 695.3420084176278" width="1067.389699789874" height="1390.6840168352555">
  <!-- svg-source:excalidraw -->
  
  <defs>
    <style>
      @font-face {
        font-family: "Virgil";
        src: url("https://excalidraw.com/Virgil.woff2");
      }
      @font-face {
        font-family: "Cascadia";
        src: url("https://excalidraw.com/Cascadia.woff2");
      }
    </style>
  </defs>
  <rect x="0" y="0" width="533.694849894937" height="695.3420084176278" fill="#fdf6e3"></rect><g transform="translate(39.594524459919796 10) rotate(0 101 14.5)"><text x="0" y="21" font-family="Virgil, Segoe UI Emoji" font-size="20px" fill="#000000" text-anchor="start" style="white-space: pre;" direction="ltr">如何记忆外周神经纤维</text></g><g transform="translate(47.88327289190386 71.57355978045311) rotate(0 4 12.5)"><text x="0" y="18" font-family="Virgil, Segoe UI Emoji" font-size="20px" fill="#000000" text-anchor="start" style="white-space: pre;" direction="ltr">1</text></g><g transform="translate(80.36989376915841 65.4633830624559) rotate(0 113 14.5)"><text x="0" y="21" font-family="Virgil, Segoe UI Emoji" font-size="20px" fill="#000000" text-anchor="start" style="white-space: pre;" direction="ltr">记住口诀,快慢AC,前后BC</text></g><g transform="translate(88.44356028033485 116.80551899717867) rotate(0 33.5 14.5)"><text x="0" y="21" font-family="Virgil, Segoe UI Emoji" font-size="20px" fill="#000000" text-anchor="start" style="white-space: pre;" direction="ltr">快痛Aδ</text></g><g transform="translate(92.0860766811092 156.3967813875624) rotate(0.36486169194599377 27.5 14.5)"><text x="0" y="21" font-family="Virgil, Segoe UI Emoji" font-size="20px" fill="#000000" text-anchor="start" style="white-space: pre;" direction="ltr">慢痛C</text></g><g transform="translate(242.0768075841022 119.52988999407526) rotate(0 68.5 14.5)"><text x="0" y="21" font-family="Virgil, Segoe UI Emoji" font-size="20px" fill="#000000" text-anchor="start" style="white-space: pre;" direction="ltr">自主神经节前B</text></g><g transform="translate(253.43683333686602 156.5471074612452) rotate(0 27.5 14.5)"><text x="0" y="21" font-family="Virgil, Segoe UI Emoji" font-size="20px" fill="#000000" text-anchor="start" style="white-space: pre;" direction="ltr">节后C</text></g><g stroke-linecap="round"><g transform="translate(85.26127293591242 132.410615403916) rotate(0 -37.106578943118656 47.290482738321245)"><path d="M1.05 -0.84 C-7.65 -0.46, -40.21 -14.22, -52.88 1.27 C-65.55 16.75, -76.6 76.28, -74.96 92.05 C-73.33 107.83, -48.16 95.14, -43.06 95.91 M0.14 1.34 C-8.13 1.47, -38.14 -15.75, -50.69 -0.4 C-63.24 14.95, -76.51 77.26, -75.17 93.42 C-73.83 109.58, -48.05 95.96, -42.64 96.55" stroke="#000000" stroke-width="1" fill="none"></path></g><g transform="translate(85.26127293591242 132.410615403916) rotate(0 -37.106578943118656 47.290482738321245)"><path d="M-57.63 104.17 C-51.87 104.72, -49.59 101.52, -43.86 95.19 M-56.04 105.64 C-53.1 102.59, -49.16 100.67, -42.62 97.1" stroke="#000000" stroke-width="1" fill="none"></path></g><g transform="translate(85.26127293591242 132.410615403916) rotate(0 -37.106578943118656 47.290482738321245)"><path d="M-60.18 93.17 C-53.9 96.36, -51 95.82, -43.86 95.19 M-58.59 94.64 C-54.9 94.74, -50.22 95.98, -42.62 97.1" stroke="#000000" stroke-width="1" fill="none"></path></g></g><g transform="translate(52.57111315068863 221.0981546928223) rotate(0 141 14.5)"><text x="0" y="21" font-family="Virgil, Segoe UI Emoji" font-size="20px" fill="#000000" text-anchor="start" style="white-space: pre;" direction="ltr">快痛与温度觉与粗略触压觉一起</text></g><g stroke-linecap="round"><g transform="translate(134.8250375159239 245.8458088279153) rotate(0 1.6474786232780563 35.99155389989581)"><path d="M0.08 -0.54 C0.87 11.3, 3.65 59.05, 4.64 71.31 M-1.34 1.8 C-0.74 13.76, 2.26 60.93, 3.43 72.52" stroke="#000000" stroke-width="1" fill="none"></path></g><g transform="translate(134.8250375159239 245.8458088279153) rotate(0 1.6474786232780563 35.99155389989581)"><path d="M-9.91 44.4 C-6.41 54.51, 0.1 61.4, 2.79 73.45 M-9.49 44.65 C-5.62 52.59, -2.22 59.4, 3.46 72.33" stroke="#000000" stroke-width="1" fill="none"></path></g><g transform="translate(134.8250375159239 245.8458088279153) rotate(0 1.6474786232780563 35.99155389989581)"><path d="M10.54 42.78 C8.15 53.37, 8.76 60.72, 2.79 73.45 M10.96 43.04 C9.17 51.42, 6.92 58.68, 3.46 72.33" stroke="#000000" stroke-width="1" fill="none"></path></g></g><g transform="translate(15.249134278957001 251.00397565490695) rotate(0 8 12.5)"><text x="0" y="18" font-family="Virgil, Segoe UI Emoji" font-size="20px" fill="#000000" text-anchor="start" style="white-space: pre;" direction="ltr">2</text></g><g transform="translate(49.06735548315959 321.839438988034) rotate(0 8 12.5)"><text x="0" y="18" font-family="Virgil, Segoe UI Emoji" font-size="20px" fill="#000000" text-anchor="start" style="white-space: pre;" direction="ltr">3</text></g><g transform="translate(121.27382778402455 320.42580913604513) rotate(0 76 14.5)"><text x="0" y="21" font-family="Virgil, Segoe UI Emoji" font-size="20px" fill="#000000" text-anchor="start" style="white-space: pre;" direction="ltr">精细触压觉是谁?</text></g><g stroke-linecap="round"><g transform="translate(272.4061444620118 334.49568604799265) rotate(0 13.261453445598875 0.702273979938397)"><path d="M-0.25 1.06 C4.27 1.37, 22.05 1.39, 26.77 1.46 M1.83 0.57 C6.16 0.62, 21.25 0.08, 25.57 -0.06" stroke="#000000" stroke-width="1" fill="none"></path></g><g transform="translate(272.4061444620118 334.49568604799265) rotate(0 13.261453445598875 0.702273979938397)"><path d="M14.13 4.48 C17.72 4.57, 21.23 1.12, 26.58 1.22 M12.43 4.51 C16.56 3.84, 21.45 1.71, 25.07 -0.69" stroke="#000000" stroke-width="1" fill="none"></path></g><g transform="translate(272.4061444620118 334.49568604799265) rotate(0 13.261453445598875 0.702273979938397)"><path d="M13.83 -4.83 C17.47 -2.18, 21.06 -3.06, 26.58 1.22 M12.12 -4.81 C16.31 -2.42, 21.3 -1.5, 25.07 -0.69" stroke="#000000" stroke-width="1" fill="none"></path></g></g><g transform="translate(304.53202647166285 323.16782707152095) rotate(0 14 12.5)"><text x="0" y="18" font-family="Virgil, Segoe UI Emoji" font-size="20px" fill="#000000" text-anchor="start" style="white-space: pre;" direction="ltr">Aβ</text></g><g stroke-linecap="round"><g transform="translate(163.90369498191762 349.65281510302253) rotate(0 0.5716740870888017 31.72936740168028)"><path d="M-0.42 0.78 C-0.26 11.2, 0.81 51.68, 0.84 62.04 M1.56 0.14 C1.58 10.76, -0.13 53.22, -0.04 63.32" stroke="#000000" stroke-width="1" fill="none"></path></g><g transform="translate(163.90369498191762 349.65281510302253) rotate(0 0.5716740870888017 31.72936740168028)"><path d="M-8.47 35.15 C-7.84 41.63, -3.59 52.1, -0.01 64.75 M-9.17 34.44 C-5.94 43.72, -3.87 54.44, -0.1 64.13" stroke="#000000" stroke-width="1" fill="none"></path></g><g transform="translate(163.90369498191762 349.65281510302253) rotate(0 0.5716740870888017 31.72936740168028)"><path d="M12.05 35.54 C6.69 41.84, 4.95 52.19, -0.01 64.75 M11.35 34.84 C7.55 43.92, 2.58 54.5, -0.1 64.13" stroke="#000000" stroke-width="1" fill="none"></path></g></g><g transform="translate(130.97262515934284 411.65248347064085) rotate(0 111 14.499999999999986)"><text x="0" y="21" font-family="Virgil, Segoe UI Emoji" font-size="20px" fill="#000000" text-anchor="start" style="white-space: pre;" direction="ltr">精细触觉与本体感觉一起</text></g><g stroke-linecap="round"><g transform="translate(358.94581397861987 427.6336510718012) rotate(0 12.07608481491917 -48.84396625109342)"><path d="M-1.16 -0.8 C6.4 -5.73, 42.68 -14.72, 45.86 -30.42 C49.04 -46.13, 29.23 -84.69, 17.91 -95.02 C6.59 -105.35, -15.49 -92.81, -22.05 -92.4 M0.43 1.4 C7.85 -3.27, 41.99 -13.08, 45.29 -28.99 C48.59 -44.91, 31.36 -83.66, 20.21 -94.11 C9.07 -104.56, -14.48 -91.95, -21.58 -91.7" stroke="#000000" stroke-width="1" fill="none"></path></g><g transform="translate(358.94581397861987 427.6336510718012) rotate(0 12.07608481491917 -48.84396625109342)"><path d="M-5.78 -102.28 C-10.7 -101.52, -17.49 -94.95, -22.89 -90.03 M-5.38 -104.38 C-8.08 -99.94, -11.22 -99.1, -21.76 -92.41" stroke="#000000" stroke-width="1" fill="none"></path></g><g transform="translate(358.94581397861987 427.6336510718012) rotate(0 12.07608481491917 -48.84396625109342)"><path d="M-2.22 -88.52 C-8.25 -92.47, -16.25 -90.58, -22.89 -90.03 M-1.81 -90.62 C-5.43 -89.23, -9.36 -91.46, -21.76 -92.41" stroke="#000000" stroke-width="1" fill="none"></path></g></g><g transform="translate(79.93351512620484 425.023596966494) rotate(0 7.5 12.5)"><text x="0" y="18" font-family="Virgil, Segoe UI Emoji" font-size="20px" fill="#000000" text-anchor="start" style="white-space: pre;" direction="ltr">4</text></g><g stroke-linecap="round"><g transform="translate(265.5605502511502 438.07533535940524) rotate(0 3.3367082687971816 27.375773062827164)"><path d="M-1.18 0.01 C0.31 9.46, 6.36 46.49, 7.86 55.78 M0.4 -1.03 C1.83 8.17, 5.8 45.01, 6.9 54.17" stroke="#000000" stroke-width="1" fill="none"></path></g><g transform="translate(265.5605502511502 438.07533535940524) rotate(0 3.3367082687971816 27.375773062827164)"><path d="M-5.43 29.37 C-1.45 34.51, 1.12 37.93, 8.48 55.03 M-6.03 29.9 C-2.72 37.74, 1.04 44.38, 7.02 54.57" stroke="#000000" stroke-width="1" fill="none"></path></g><g transform="translate(265.5605502511502 438.07533535940524) rotate(0 3.3367082687971816 27.375773062827164)"><path d="M13.38 27.23 C13.45 32.62, 12.13 36.49, 8.48 55.03 M12.78 27.76 C10.26 36.41, 8.21 43.71, 7.02 54.57" stroke="#000000" stroke-width="1" fill="none"></path></g></g><g transform="translate(163.25822374212729 498.20539551829245) rotate(0 91 14.5)"><text x="0" y="21" font-family="Virgil, Segoe UI Emoji" font-size="20px" fill="#000000" text-anchor="start" style="white-space: pre;" direction="ltr">还有谁传入本体感觉</text></g><g transform="translate(362.5187069372693 499.9153014496884) rotate(0 14.5 12.5)"><text x="0" y="18" font-family="Virgil, Segoe UI Emoji" font-size="20px" fill="#000000" text-anchor="start" style="white-space: pre;" direction="ltr">Aα</text></g><g transform="translate(100.2598533006385 523.7036988434385) rotate(0 7.5 12.5)"><text x="0" y="18" font-family="Virgil, Segoe UI Emoji" font-size="20px" fill="#000000" text-anchor="start" style="white-space: pre;" direction="ltr">5</text></g><g transform="translate(164.69484989493697 557.8715672532626) rotate(0 179.5 14.5)"><text x="0" y="21" font-family="Virgil, Segoe UI Emoji" font-size="20px" fill="#000000" text-anchor="start" style="white-space: pre;" direction="ltr">Aα=牵张反射:肌梭的传入+运动神经传出</text></g><g stroke-linecap="round"><g transform="translate(315.2693463917813 587.1149948148102) rotate(0 0.4594544552529811 32.512196328236485)"><path d="M-0.01 -0.87 C0.2 10.01, 0.02 54.69, 0.24 65.9 M-1.48 1.28 C-0.82 11.75, 2.05 53.49, 2.4 64.04" stroke="#000000" stroke-width="1" fill="none"></path></g><g transform="translate(315.2693463917813 587.1149948148102) rotate(0 0.4594544552529811 32.512196328236485)"><path d="M-10.8 34.66 C-5.83 42.45, -2.49 47.1, 1.49 63.91 M-9.06 35.92 C-6.41 43.95, -3.94 49.09, 1.97 63.49" stroke="#000000" stroke-width="1" fill="none"></path></g><g transform="translate(315.2693463917813 587.1149948148102) rotate(0 0.4594544552529811 32.512196328236485)"><path d="M9.69 33.57 C10.23 41.6, 9.13 46.47, 1.49 63.91 M11.43 34.83 C9.23 42.95, 6.84 48.35, 1.97 63.49" stroke="#000000" stroke-width="1" fill="none"></path></g></g><g transform="translate(331.7881977695287 607.2035016550578) rotate(0 76 14.5)"><text x="0" y="21" font-family="Virgil, Segoe UI Emoji" font-size="20px" fill="#000000" text-anchor="start" style="white-space: pre;" direction="ltr">谁调节肌梭功能?</text></g><g transform="translate(299.0875782233318 660.3420084176278) rotate(0 12 12.5)"><text x="0" y="18" font-family="Virgil, Segoe UI Emoji" font-size="20px" fill="#000000" text-anchor="start" style="white-space: pre;" direction="ltr">Aγ</text></g></svg>