<svg version="1.1" xmlns="http://www.w3.org/2000/svg" viewBox="0 0 663.8309397974288 480.8847307081367" width="1327.6618795948575" height="961.7694614162734">
  <!-- svg-source:excalidraw -->
  
  <defs>
    <style>
      @font-face {
        font-family: "Virgil";
        src: url("https://excalidraw.com/Virgil.woff2");
      }
      @font-face {
        font-family: "Cascadia";
        src: url("https://excalidraw.com/Cascadia.woff2");
      }
    </style>
  </defs>
  <rect x="0" y="0" width="663.8309397974288" height="480.8847307081367" fill="#fdf6e3"></rect><g transform="translate(10 241.57054314300473) rotate(0 112.5 14.5)"><text x="0" y="21" font-family="Virgil, Segoe UI Emoji" font-size="20px" fill="#000000" text-anchor="start" style="white-space: pre;" direction="ltr">如何记忆AT-1受体的作用</text></g><g transform="translate(386.46410754587123 53.7575388762009) rotate(0 21 14.5)"><text x="0" y="21" font-family="Virgil, Segoe UI Emoji" font-size="20px" fill="#000000" text-anchor="start" style="white-space: pre;" direction="ltr">中枢</text></g><g transform="translate(402.1583701003235 263.56984734580095) rotate(0 21 14.5)"><text x="0" y="21" font-family="Virgil, Segoe UI Emoji" font-size="20px" fill="#000000" text-anchor="start" style="white-space: pre;" direction="ltr">心脏</text></g><g transform="translate(374.0672356394575 397.6409406764644) rotate(0 31 14.5)"><text x="0" y="21" font-family="Virgil, Segoe UI Emoji" font-size="20px" fill="#000000" text-anchor="start" style="white-space: pre;" direction="ltr">肾上腺</text></g><g transform="translate(405.5899863277368 192.794978643734) rotate(0 21 14.5)"><text x="0" y="21" font-family="Virgil, Segoe UI Emoji" font-size="20px" fill="#000000" text-anchor="start" style="white-space: pre;" direction="ltr">垂体</text></g><g transform="translate(470.593155116685 10) rotate(0 71 14.5)"><text x="0" y="21" font-family="Virgil, Segoe UI Emoji" font-size="20px" fill="#000000" text-anchor="start" style="white-space: pre;" direction="ltr">压力敏感中枢↓</text></g><g transform="translate(478.9632596418528 48.218834308412454) rotate(0 51 14.5)"><text x="0" y="21" font-family="Virgil, Segoe UI Emoji" font-size="20px" fill="#000000" text-anchor="start" style="white-space: pre;" direction="ltr">交感中枢↑</text></g><g transform="translate(522.3029264313209 175.07973472435526) rotate(0 41 28.5)"><text x="0" y="21.5" font-family="Virgil, Segoe UI Emoji" font-size="20px" fill="#000000" text-anchor="start" style="white-space: pre;" direction="ltr">ADH↑</text><text x="0" y="50" font-family="Virgil, Segoe UI Emoji" font-size="20px" fill="#000000" text-anchor="start" style="white-space: pre;" direction="ltr">缩宫素↑</text></g><g transform="translate(521.7052427193871 281.1837889411233) rotate(0 31 14.5)"><text x="0" y="21" font-family="Virgil, Segoe UI Emoji" font-size="20px" fill="#000000" text-anchor="start" style="white-space: pre;" direction="ltr">重构↑</text></g><g transform="translate(491.5222152667561 441.8847307081367) rotate(0 41 14.5)"><text x="0" y="21" font-family="Virgil, Segoe UI Emoji" font-size="20px" fill="#000000" text-anchor="start" style="white-space: pre;" direction="ltr">醛固酮↑</text></g><g transform="translate(406.83093979742875 112.20644729869457) rotate(0 123.5 14.5)"><text x="0" y="21" font-family="Virgil, Segoe UI Emoji" font-size="20px" fill="#000000" text-anchor="start" style="white-space: pre;" direction="ltr">间脑:穹隆下器与终板血管器</text></g><g transform="translate(393.59579115944825 327.2169895563245) rotate(0 21 14.5)"><text x="0" y="21" font-family="Virgil, Segoe UI Emoji" font-size="20px" fill="#000000" text-anchor="start" style="white-space: pre;" direction="ltr">血管</text></g><g stroke-linecap="round"><g transform="translate(339.1609873276932 60.45180300974647) rotate(0 23.381110039212786 78.7138565914182)"><path d="M0.94 0.08 C8.06 10.58, 33.95 37.75, 41.58 63.93 C49.21 90.11, 45.96 141.5, 46.72 157.15 M-0.02 -0.93 C7 9.61, 32.65 38.35, 40.42 64.89 C48.18 91.44, 45.52 143.24, 46.57 158.36" stroke="#000000" stroke-width="1" fill="none"></path></g></g><g stroke-linecap="round"><g transform="translate(375.80203793892565 260.3060930245934) rotate(0 -9.706765230918961 82.56025324144423)"><path d="M-0.95 -0.57 C-1.16 14.21, 2.86 61.3, -0.35 89.01 C-3.57 116.72, -16.98 153.17, -20.24 165.69 M0.75 1.75 C0.39 16.15, 2.74 60.24, -0.82 87.26 C-4.37 114.29, -16.94 150.95, -20.59 163.9" stroke="#000000" stroke-width="1" fill="none"></path></g></g><g stroke-linecap="round"><g transform="translate(234.30801681302273 239.680939846692) rotate(0 71.61928533966488 -48.82312233830386)"><path d="M-0.91 0.71 C23.18 -15.8, 119.81 -81.68, 144.15 -98.35 M0.82 0.03 C24.8 -16.32, 119.25 -80.33, 143.27 -96.75" stroke="#000000" stroke-width="1" fill="none"></path></g><g transform="translate(234.30801681302273 239.680939846692) rotate(0 71.61928533966488 -48.82312233830386)"><path d="M126.91 -72.18 C130.47 -76.91, 133.48 -85.69, 142.17 -97.89 M126.3 -73.11 C132.06 -82.06, 140.04 -91.81, 142.75 -97.21" stroke="#000000" stroke-width="1" fill="none"></path></g><g transform="translate(234.30801681302273 239.680939846692) rotate(0 71.61928533966488 -48.82312233830386)"><path d="M115.37 -89.14 C122.1 -89.27, 128.19 -93.53, 142.17 -97.89 M114.76 -90.08 C125.17 -92.42, 137.72 -95.45, 142.75 -97.21" stroke="#000000" stroke-width="1" fill="none"></path></g></g><g stroke-linecap="round"><g transform="translate(234.47010053151325 273.726118403977) rotate(0 53.824491763737626 35.482550945443364)"><path d="M0.52 0.06 C18.33 11.77, 88.25 58.97, 106.09 70.75 M-0.67 -0.95 C17.58 10.85, 90.37 59.8, 108.32 71.91" stroke="#000000" stroke-width="1" fill="none"></path></g><g transform="translate(234.47010053151325 273.726118403977) rotate(0 53.824491763737626 35.482550945443364)"><path d="M79.31 63.15 C84.93 67.14, 91.86 67.06, 110.04 72.06 M80.01 65.34 C89.21 66.41, 97.92 69.12, 107.44 71.66" stroke="#000000" stroke-width="1" fill="none"></path></g><g transform="translate(234.47010053151325 273.726118403977) rotate(0 53.824491763737626 35.482550945443364)"><path d="M90.76 46.13 C93.75 54.19, 97.96 58.14, 110.04 72.06 M91.46 48.32 C97.23 54.58, 102.36 62.6, 107.44 71.66" stroke="#000000" stroke-width="1" fill="none"></path></g></g></svg>