<svg version="1.1" xmlns="http://www.w3.org/2000/svg" viewBox="0 0 426.0066495556117 372.99853882839466" width="852.0132991112234" height="745.9970776567893">
  <!-- svg-source:excalidraw -->
  
  <defs>
    <style>
      @font-face {
        font-family: "Virgil";
        src: url("https://excalidraw.com/Virgil.woff2");
      }
      @font-face {
        font-family: "Cascadia";
        src: url("https://excalidraw.com/Cascadia.woff2");
      }
    </style>
  </defs>
  <rect x="0" y="0" width="426.0066495556117" height="372.99853882839466" fill="#fdf6e3"></rect><g transform="translate(42.843435057879674 10) rotate(0 101 14.5)"><text x="0" y="21" font-family="Virgil, Segoe UI Emoji" font-size="20px" fill="#000000" text-anchor="start" style="white-space: pre;" direction="ltr">如何记忆内皮素的作用</text></g><g transform="translate(150.03187945154525 91.63766657309907) rotate(0 21 14.5)"><text x="0" y="21" font-family="Virgil, Segoe UI Emoji" font-size="20px" fill="#000000" text-anchor="start" style="white-space: pre;" direction="ltr">血管</text></g><g transform="translate(154.14345539395163 254.98864969063857) rotate(0 21 14.5)"><text x="0" y="21" font-family="Virgil, Segoe UI Emoji" font-size="20px" fill="#000000" text-anchor="start" style="white-space: pre;" direction="ltr">心脏</text></g><g transform="translate(10 153.36047819056796) rotate(0 31 14.5)"><text x="0" y="21" font-family="Virgil, Segoe UI Emoji" font-size="20px" fill="#000000" text-anchor="start" style="white-space: pre;" direction="ltr">内皮素</text></g><g transform="translate(264.3957236269449 70.72044949719486) rotate(0 41 14.5)"><text x="0" y="21" font-family="Virgil, Segoe UI Emoji" font-size="20px" fill="#000000" text-anchor="start" style="white-space: pre;" direction="ltr">收缩血管</text></g><g transform="translate(272.0515007266971 136.97469439801534) rotate(0 45.5 14.5)"><text x="0" y="21" font-family="Virgil, Segoe UI Emoji" font-size="20px" fill="#000000" text-anchor="start" style="white-space: pre;" direction="ltr">AngⅡ/NA</text></g><g stroke-linecap="round"><g transform="translate(307.2589973889965 133.55675160232022) rotate(0 0.7983520325181104 -16.718867695436302)"><path d="M-0.71 0.88 C-0.18 -4.71, 2.08 -26.81, 2.3 -32.63 M1.12 0.3 C1.66 -5.71, 2.21 -28.77, 1.96 -34.32" stroke="#000000" stroke-width="1" fill="none"></path></g><g transform="translate(307.2589973889965 133.55675160232022) rotate(0 0.7983520325181104 -16.718867695436302)"><path d="M8.97 -17.02 C7.44 -22.98, 4.15 -25.16, 2.32 -35.34 M7.68 -18.98 C5.7 -23.04, 4.2 -26.92, 1.53 -33.58" stroke="#000000" stroke-width="1" fill="none"></path></g><g transform="translate(307.2589973889965 133.55675160232022) rotate(0 0.7983520325181104 -16.718867695436302)"><path d="M-2.48 -16.97 C-1.38 -22.88, -2.04 -25.07, 2.32 -35.34 M-3.77 -18.93 C-2.62 -23.09, -0.99 -26.99, 1.53 -33.58" stroke="#000000" stroke-width="1" fill="none"></path></g></g><g stroke-linecap="round"><g transform="translate(201.90884729892764 104.7643725097738) rotate(0 26.106132060560697 -7.238266152926201)"><path d="M0.56 0.99 C9.5 -1.25, 44.21 -11.42, 52.81 -13.93 M-0.6 0.47 C8.2 -2.04, 42.41 -12.75, 51.59 -15.47" stroke="#000000" stroke-width="1" fill="none"></path></g><g transform="translate(201.90884729892764 104.7643725097738) rotate(0 26.106132060560697 -7.238266152926201)"><path d="M31.1 0.31 C36.55 -4.75, 41.57 -7.1, 51.23 -17.16 M30.36 1.18 C37.27 -4.85, 45.2 -10.61, 51.81 -16.09" stroke="#000000" stroke-width="1" fill="none"></path></g><g transform="translate(201.90884729892764 104.7643725097738) rotate(0 26.106132060560697 -7.238266152926201)"><path d="M25.57 -17.82 C32.25 -18.65, 38.57 -16.74, 51.23 -17.16 M24.83 -16.95 C33.85 -16.34, 43.83 -15.41, 51.81 -16.09" stroke="#000000" stroke-width="1" fill="none"></path></g></g><g transform="translate(300.5148024439085 248.27376910944565) rotate(0 41 14.5)"><text x="0" y="21" font-family="Virgil, Segoe UI Emoji" font-size="20px" fill="#000000" text-anchor="start" style="white-space: pre;" direction="ltr">正性肌力</text></g><g transform="translate(300.29920002558526 319.15779225636106) rotate(0 31 14.5)"><text x="0" y="21" font-family="Virgil, Segoe UI Emoji" font-size="20px" fill="#000000" text-anchor="start" style="white-space: pre;" direction="ltr">促重构</text></g><g transform="translate(290.60843869674886 186.7438649188972) rotate(0 31 14.5)"><text x="0" y="21" font-family="Virgil, Segoe UI Emoji" font-size="20px" fill="#000000" text-anchor="start" style="white-space: pre;" direction="ltr">缩冠脉</text></g><g stroke-linecap="round"><g transform="translate(348.9383490995548 83.24857503563067) rotate(0 31.977186127745817 51.946940410020204)"><path d="M-1.03 -0.81 C4.75 -1.59, 23.96 -13.41, 34.35 -4.22 C44.75 4.97, 57.37 36.77, 61.36 54.32 C65.35 71.88, 68.06 91.58, 58.31 101.1 C48.56 110.62, 12.31 109.68, 2.87 111.43 M0.63 1.38 C6.36 0.77, 23.83 -11.08, 33.87 -2.61 C43.91 5.86, 56.79 34.75, 60.88 52.18 C64.97 69.6, 68.24 92.06, 58.42 101.96 C48.6 111.86, 11.2 110.18, 1.98 111.59" stroke="#000000" stroke-width="1" fill="none"></path></g><g transform="translate(348.9383490995548 83.24857503563067) rotate(0 31.977186127745817 51.946940410020204)"><path d="M27.13 101.65 C21.56 103.96, 14.79 105.71, 1.2 113.43 M28.52 99.18 C22.14 102.76, 15.23 105.32, 1.86 111.77" stroke="#000000" stroke-width="1" fill="none"></path></g><g transform="translate(348.9383490995548 83.24857503563067) rotate(0 31.977186127745817 51.946940410020204)"><path d="M28.27 121.36 C22.31 118.32, 15.23 114.73, 1.2 113.43 M29.66 118.89 C22.99 117.25, 15.78 114.61, 1.86 111.77" stroke="#000000" stroke-width="1" fill="none"></path></g></g><g stroke-linecap="round"><g transform="translate(197.35471902417385 255.06478994627582) rotate(0 45.30762877699902 -27.982363116575243)"><path d="M-0.21 1.17 C15.14 -8.02, 76.87 -45.89, 92.4 -55.58 M-1.78 0.73 C13.37 -8.73, 75.64 -47.71, 91.34 -57.13" stroke="#000000" stroke-width="1" fill="none"></path></g><g transform="translate(197.35471902417385 255.06478994627582) rotate(0 45.30762877699902 -27.982363116575243)"><path d="M74.65 -33.98 C80.6 -40.59, 84.3 -50.6, 90.75 -55.14 M72.12 -33.19 C78.79 -42.4, 86.99 -49.89, 90.35 -57.85" stroke="#000000" stroke-width="1" fill="none"></path></g><g transform="translate(197.35471902417385 255.06478994627582) rotate(0 45.30762877699902 -27.982363116575243)"><path d="M63.89 -51.46 C73.25 -52.42, 80.42 -56.79, 90.75 -55.14 M61.37 -50.67 C71.8 -53.5, 83.92 -54.6, 90.35 -57.85" stroke="#000000" stroke-width="1" fill="none"></path></g></g><g stroke-linecap="round"><g transform="translate(214.78068992267117 263.87422910898476) rotate(0 35.33504055212383 -2.824631226592942)"><path d="M0.11 0.24 C11.95 -0.9, 59.98 -5.07, 71.96 -5.89 M-1.29 -0.69 C10.4 -1.77, 59.39 -3.75, 71.56 -4.76" stroke="#000000" stroke-width="1" fill="none"></path></g><g transform="translate(214.78068992267117 263.87422910898476) rotate(0 35.33504055212383 -2.824631226592942)"><path d="M44.42 8.9 C52.99 4.42, 65.42 -3.58, 73.29 -6.76 M44.32 7.82 C50.6 2.95, 57.76 0.73, 72.56 -4.95" stroke="#000000" stroke-width="1" fill="none"></path></g><g transform="translate(214.78068992267117 263.87422910898476) rotate(0 35.33504055212383 -2.824631226592942)"><path d="M43.21 -11.59 C52.4 -8.35, 65.28 -8.63, 73.29 -6.76 M43.1 -12.66 C49.6 -12.09, 57.08 -8.87, 72.56 -4.95" stroke="#000000" stroke-width="1" fill="none"></path></g></g><g stroke-linecap="round"><g transform="translate(195.9665420500587 286.90208038531466) rotate(0 52.425805023062566 14.297016924230547)"><path d="M1.14 -0.72 C18.72 4.18, 87.15 23.11, 104.57 28.32 M0.28 1.52 C17.77 6.62, 86.05 24.76, 103.57 29.31" stroke="#000000" stroke-width="1" fill="none"></path></g><g transform="translate(195.9665420500587 286.90208038531466) rotate(0 52.425805023062566 14.297016924230547)"><path d="M72.5 31.87 C78.72 32.77, 89.19 32.19, 103.57 28.22 M74.64 32.2 C85.48 31.2, 96.34 29.19, 104.1 28.47" stroke="#000000" stroke-width="1" fill="none"></path></g><g transform="translate(195.9665420500587 286.90208038531466) rotate(0 52.425805023062566 14.297016924230547)"><path d="M77.73 12.03 C82.6 17.46, 91.88 21.36, 103.57 28.22 M79.88 12.35 C88.83 18.74, 97.75 24.1, 104.1 28.47" stroke="#000000" stroke-width="1" fill="none"></path></g></g><g transform="translate(148.61322706573196 122.27766490542035) rotate(0 4 12.5)"><text x="0" y="18" font-family="Virgil, Segoe UI Emoji" font-size="20px" fill="#000000" text-anchor="start" style="white-space: pre;" direction="ltr">1</text></g><g transform="translate(238.13738974376622 152.47858725463675) rotate(0 8 12.5)"><text x="0" y="18" font-family="Virgil, Segoe UI Emoji" font-size="20px" fill="#000000" text-anchor="start" style="white-space: pre;" direction="ltr">2</text></g><g transform="translate(380.5131665329293 209.64461884422496) rotate(0 8 12.5)"><text x="0" y="18" font-family="Virgil, Segoe UI Emoji" font-size="20px" fill="#000000" text-anchor="start" style="white-space: pre;" direction="ltr">3</text></g><g transform="translate(401.0066495556117 246.31716741113064) rotate(0 7.5 12.5)"><text x="0" y="18" font-family="Virgil, Segoe UI Emoji" font-size="20px" fill="#000000" text-anchor="start" style="white-space: pre;" direction="ltr">4</text></g><g transform="translate(385.90618838100363 337.99853882839466) rotate(0 7.5 12.5)"><text x="0" y="18" font-family="Virgil, Segoe UI Emoji" font-size="20px" fill="#000000" text-anchor="start" style="white-space: pre;" direction="ltr">5</text></g></svg>