<svg version="1.1" xmlns="http://www.w3.org/2000/svg" viewBox="0 0 1212.6477684720826 494.8100452124304" width="2425.295536944165" height="989.6200904248608">
  <!-- svg-source:excalidraw -->
  
  <defs>
    <style>
      @font-face {
        font-family: "Virgil";
        src: url("https://excalidraw.com/Virgil.woff2");
      }
      @font-face {
        font-family: "Cascadia";
        src: url("https://excalidraw.com/Cascadia.woff2");
      }
    </style>
  </defs>
  <rect x="0" y="0" width="1212.6477684720826" height="494.8100452124304" fill="#fdf6e3"></rect><g transform="translate(97.57580099310837 39.01602621953907) rotate(0 121 14.5)"><text x="0" y="21" font-family="Virgil, Segoe UI Emoji" font-size="20px" fill="#c92a2a" text-anchor="start" style="white-space: pre;" direction="ltr">如何记忆乳糖操纵子的思路</text></g><g transform="translate(10 259.2520370575171) rotate(0 77.5 14.5)"><text x="0" y="21" font-family="Virgil, Segoe UI Emoji" font-size="20px" fill="#c92a2a" text-anchor="start" style="white-space: pre;" direction="ltr">1.明确其在DNA上</text></g><g stroke-linecap="round"><g transform="translate(361.7305956907314 232.1358443535321) rotate(0 342.2343809743577 -5.716829354978358)"><path d="M-1.09 -0.51 C62.46 -1.14, 266.44 -3.22, 380.88 -4.95 C495.32 -6.69, 634.84 -9.83, 685.56 -10.93 M0.54 -1.82 C63.96 -2.22, 265.88 -2.6, 379.89 -3.91 C493.9 -5.22, 633.74 -8.51, 684.6 -9.67" stroke="#000000" stroke-width="1" fill="none"></path></g></g><g stroke-linecap="round"><g transform="translate(354.85274629627907 264.8190072486261) rotate(0 347.39959973783533 -4.699533658298151)"><path d="M-0.56 1.03 C64.63 0.5, 274.3 -2.08, 390.29 -3.67 C506.28 -5.26, 644.67 -7.61, 695.36 -8.51 M1.35 0.53 C66.47 0.14, 273.91 -0.91, 389.49 -2.74 C505.06 -4.56, 643.98 -9.58, 694.8 -10.43" stroke="#000000" stroke-width="1" fill="none"></path></g></g><g stroke-linecap="round" transform="translate(521.8714833915581 192.6275810568302) rotate(0 90.5 35)"><path d="M-1.15 -0.64 C68.98 -0.39, 141.37 1.43, 179.8 0.15 M0.06 0.86 C53.68 0.3, 106.04 -0.04, 181.71 -0.17 M179.97 0.38 C180.68 15.1, 180.7 27.49, 180.36 71.82 M181.04 0.86 C179.73 22.12, 180.81 44.89, 180.58 70.01 M179.58 69.93 C122.86 69.72, 64.74 69.47, 0.32 68.14 M180.61 70.9 C125.59 68.58, 67.97 67.74, 0.2 70.34 M-0.73 71.13 C2.6 47.17, 2.06 27.13, 1.79 -0.56 M0.47 69.4 C-1.02 52.56, -0.15 35.13, 0.2 -0.34" stroke="#000000" stroke-width="1" fill="none"></path></g><g stroke-linecap="round" transform="translate(796.3695015189394 183.56330187459685) rotate(0 106.22231778687123 38.554478789031805)"><path d="M1.62 -0.65 C65.49 -2.04, 134.88 -2.21, 210.93 -1.62 M-0.25 -0.56 C77.52 -0.48, 155 -0.47, 213.29 0.31 M213.43 0.62 C213.34 19.18, 213.6 36.95, 210.65 77.35 M212.19 -0.95 C212.58 22.23, 211.67 43.94, 212.29 76.73 M210.93 78.12 C154.48 76.69, 97.74 76.79, -1.37 77.24 M212.96 76.64 C135.57 77.25, 59.71 76.32, 0.47 76.53 M1.42 78.25 C0.82 55.64, -2.36 30.33, -1.29 0.91 M-0.62 77 C-0.71 52.11, 0.26 26.32, -0.3 0.62" stroke="#000000" stroke-width="1" fill="none"></path></g><g transform="translate(833.3710193501358 196.01054718804494) rotate(0 9 12.5)"><text x="0" y="18" font-family="Virgil, Segoe UI Emoji" font-size="20px" fill="#000000" text-anchor="start" style="white-space: pre;" direction="ltr">Z</text></g><g transform="translate(898.376923198054 198.89370318149963) rotate(0 6.5 12.5)"><text x="0" y="18" font-family="Virgil, Segoe UI Emoji" font-size="20px" fill="#000000" text-anchor="start" style="white-space: pre;" direction="ltr">Y</text></g><g transform="translate(950.8003052301167 198.06158600638764) rotate(0 7.5 12.5)"><text x="0" y="18" font-family="Virgil, Segoe UI Emoji" font-size="20px" fill="#000000" text-anchor="start" style="white-space: pre;" direction="ltr">A</text></g><g transform="translate(857.502417428387 143.2036111455791) rotate(0 41 14.5)"><text x="0" y="21" font-family="Virgil, Segoe UI Emoji" font-size="20px" fill="#000000" text-anchor="start" style="white-space: pre;" direction="ltr">结构基因</text></g><g transform="translate(577.0789294156069 143.58716515598235) rotate(0 41 14.5)"><text x="0" y="21" font-family="Virgil, Segoe UI Emoji" font-size="20px" fill="#000000" text-anchor="start" style="white-space: pre;" direction="ltr">调控序列</text></g><g stroke-linecap="round" transform="translate(398.3232578214068 202.8262396033756) rotate(0 25.758252164749592 35.293469872528476)"><path d="M-0.6 0.79 C17.39 0.52, 35.61 1.21, 52.3 -0.14 M-0.09 -0.34 C12.72 -0.53, 26.5 -0.27, 52.19 0.59 M51.63 0.37 C52.43 18.12, 52.72 38.68, 52.48 70.26 M52.02 0.44 C50.47 17.77, 51.01 37.79, 52.25 69.95 M50.62 71 C39.22 70.57, 26.54 69.15, -0.32 69.13 M50.97 70.02 C35.1 70.61, 18.43 70.99, 0.93 70.33 M-0.71 72.14 C2.45 56.11, 1.81 42.79, 1.5 0.25 M0.4 69.72 C0.35 48.68, -1.01 26.31, 0.64 0.87" stroke="#000000" stroke-width="1" fill="none"></path></g><g transform="translate(384.09512058883536 232.04812059318874) rotate(0 36.5 14.5)"><text x="0" y="21" font-family="Virgil, Segoe UI Emoji" font-size="20px" fill="#000000" text-anchor="start" style="white-space: pre;" direction="ltr">I单独的</text></g><g stroke-linecap="round"><g transform="translate(175.60350152597874 269.4240583132271) rotate(0 83.53457036187024 -1.4151930413338505)"><path d="M-0.93 -0.28 C27.07 -0.45, 139.67 -0.56, 168 -0.93 M0.78 -1.48 C28.59 -1.97, 138.86 -2.53, 166.83 -2.55" stroke="#000000" stroke-width="1" fill="none"></path></g><g transform="translate(175.60350152597874 269.4240583132271) rotate(0 83.53457036187024 -1.4151930413338505)"><path d="M166.95 -2.25 L151.52 5.55 L153.81 -7.95 L166.8 -3.85" stroke="none" stroke-width="0" fill="#000000" fill-rule="evenodd"></path><path d="M166.48 -3.06 C164 0.04, 157.96 -0.05, 152.75 3 M167.13 -2.31 C163.35 -0.59, 160.46 -0.46, 152.75 4.28 M153.34 3.6 C151.91 -0.34, 154.01 -4.33, 152.19 -9.62 M153.84 3.33 C153.48 -0.72, 152.6 -5.67, 152.7 -8.66 M153.63 -7.91 C154.89 -7.95, 158.73 -7.15, 166.84 -3.72 M153.91 -9.02 C156.78 -7.31, 159.17 -6.37, 167.38 -2.77 M166.83 -2.55 C166.83 -2.55, 166.83 -2.55, 166.83 -2.55 M166.83 -2.55 C166.83 -2.55, 166.83 -2.55, 166.83 -2.55" stroke="#000000" stroke-width="1" fill="none"></path></g></g><g transform="translate(515.7670515605132 10) rotate(0 83 14.5)"><text x="0" y="21" font-family="Virgil, Segoe UI Emoji" font-size="20px" fill="#c92a2a" text-anchor="start" style="white-space: pre;" direction="ltr">2 画出三个大成分</text></g><g transform="translate(845.791906695265 50.91416631536822) rotate(0 97.5 14.5)"><text x="0" y="21" font-family="Virgil, Segoe UI Emoji" font-size="20px" fill="#c92a2a" text-anchor="start" style="white-space: pre;" direction="ltr">3记忆结构基因为ZYA</text></g><g stroke-linecap="round"><g transform="translate(915.9695848395758 84.47770349619327) rotate(0 -0.328243183549489 21.880146462587277)"><path d="M-1.09 0.26 C-1.33 7.64, -0.5 37, -0.72 44.41 M0.54 -0.65 C0.15 6.34, -1.12 35.23, -1.19 42.47" stroke="#000000" stroke-width="1" fill="none"></path></g><g transform="translate(915.9695848395758 84.47770349619327) rotate(0 -0.328243183549489 21.880146462587277)"><path d="M-0.3 44.36 L-5.94 28.75 L5.93 27.57 L-0.8 44.46" stroke="none" stroke-width="0" fill="#000000" fill-rule="evenodd"></path><path d="M-0.87 43.59 C-2.93 36.48, -4.64 32.2, -7.23 29.32 M-0.49 42.62 C-2.33 38.01, -4.19 34.39, -7.61 27.96 M-6.73 28.96 C-3.45 29.36, 3.59 28.2, 5.17 28.27 M-6.6 29.12 C-1.69 28.3, 2.94 28.45, 5.51 28.78 M4.76 28.61 C3.79 33.96, 0.68 38.2, -0.36 41.6 M6.28 29.27 C2.6 34, 0.94 37.7, -1.33 42.41 M-1.19 42.47 C-1.19 42.47, -1.19 42.47, -1.19 42.47 M-1.19 42.47 C-1.19 42.47, -1.19 42.47, -1.19 42.47" stroke="#000000" stroke-width="1" fill="none"></path></g></g><g stroke-linecap="round"><g transform="translate(832.1197930315884 228.5225920495327) rotate(0 -10.007649289324462 45.03366200312291)"><path d="M0.4 1.05 C-3.04 15.92, -16.96 73.4, -20.42 88.16 M-0.85 0.55 C-3.94 15.69, -15.31 74.95, -18.14 89.51" stroke="#000000" stroke-width="1" fill="none"></path></g><g transform="translate(832.1197930315884 228.5225920495327) rotate(0 -10.007649289324462 45.03366200312291)"><path d="M-17.86 88.19 L-20.65 74.51 L-8 77.32 L-16.69 90.65" stroke="none" stroke-width="0" fill="#000000" fill-rule="evenodd"></path><path d="M-16.83 88.48 C-19.63 83.91, -18.92 79.47, -22.62 76.22 M-18.08 88.79 C-19.62 83.8, -20.66 79.52, -21.16 74.57 M-22.21 75.07 C-17.72 74.85, -14.59 76.63, -8.72 78.61 M-21.86 74.57 C-17.84 75.65, -13.36 76.55, -9.34 77.4 M-7.84 78.47 C-11.19 79.33, -12.33 84.5, -19.25 88.99 M-9.75 77.75 C-13.09 81.89, -14.97 86.21, -17.69 89.54 M-18.14 89.51 C-18.14 89.51, -18.14 89.51, -18.14 89.51 M-18.14 89.51 C-18.14 89.51, -18.14 89.51, -18.14 89.51" stroke="#000000" stroke-width="1" fill="none"></path></g></g><g transform="translate(725.68372662209 329.36262835645243) rotate(0 96.5 14.5)"><text x="0" y="21" font-family="Virgil, Segoe UI Emoji" font-size="20px" fill="#000000" text-anchor="start" style="white-space: pre;" direction="ltr">Z像2→β-半乳糖苷酶</text></g><g stroke-linecap="round"><g transform="translate(967.4959825884446 223.61483792435592) rotate(0 29.641204171838922 33.22388492189225)"><path d="M-0.29 0.15 C9.62 11.06, 49.55 55.03, 59.57 66.26 M1.76 -0.81 C11.5 10.13, 49.08 55.64, 58.65 67.26" stroke="#000000" stroke-width="1" fill="none"></path></g><g transform="translate(967.4959825884446 223.61483792435592) rotate(0 29.641204171838922 33.22388492189225)"><path d="M59.9 66.62 L45.96 60.95 L53 51.13 L57.77 65.99" stroke="none" stroke-width="0" fill="#000000" fill-rule="evenodd"></path><path d="M58.84 67.33 C53.12 65.6, 50.42 62.46, 43.98 60.75 M59.24 66.98 C53.9 65.22, 49.87 63.67, 45.05 60.26 M43.95 60.33 C48 57.41, 52.06 57.22, 56.04 51.57 M45.01 61.22 C47.69 57.76, 51.11 56.18, 55.22 53.14 M55.1 54.17 C56.01 57.94, 57.41 63.39, 57.45 67.85 M54.94 53.16 C56.2 57.95, 57.24 63.64, 58.82 67.12 M58.65 67.26 C58.65 67.26, 58.65 67.26, 58.65 67.26 M58.65 67.26 C58.65 67.26, 58.65 67.26, 58.65 67.26" stroke="#000000" stroke-width="1" fill="none"></path></g></g><g transform="translate(1031.2282209724344 293.1479657265486) rotate(0 51.99999999999997 12.5)"><text x="0" y="18" font-family="Virgil, Segoe UI Emoji" font-size="20px" fill="#000000" text-anchor="start" style="white-space: pre;" direction="ltr">A for Acel</text></g><g transform="translate(1149.5678448022422 290.92074570465775) rotate(0 21 14.5)"><text x="0" y="21" font-family="Virgil, Segoe UI Emoji" font-size="20px" fill="#000000" text-anchor="start" style="white-space: pre;" direction="ltr">乙酰</text></g><g transform="translate(1066.6477684720826 332.02307883591857) rotate(0 68 14.5)"><text x="0" y="21" font-family="Virgil, Segoe UI Emoji" font-size="20px" fill="#000000" text-anchor="start" style="white-space: pre;" direction="ltr">乙酰基转移酶a</text></g><g stroke-linecap="round"><g transform="translate(905.5758914040844 227.45173059843182) rotate(0 8.723265187626794 57.29831959581179)"><path d="M-0.78 0.77 C2.21 19.76, 14.98 94.34, 18.23 113.07 M1.01 0.13 C3.82 19.37, 14.46 95.42, 17.33 114.46" stroke="#000000" stroke-width="1" fill="none"></path></g><g transform="translate(905.5758914040844 227.45173059843182) rotate(0 8.723265187626794 57.29831959581179)"><path d="M16.89 113.86 L8.69 100.6 L20.07 101.43 L17.05 115.12" stroke="none" stroke-width="0" fill="#000000" fill-rule="evenodd"></path><path d="M18.3 114.59 C14.41 111.06, 11.84 105.77, 9.36 100.67 M16.9 114.71 C15.89 110.85, 13.64 108.96, 8.97 101.57 M8.14 103.07 C12.88 100.46, 15.77 100.7, 21.95 101.23 M9.49 102.37 C12.4 102.01, 15.15 100.35, 22.26 99.6 M21.09 99.7 C20.2 104.7, 18.22 108.44, 17.6 114.97 M21.04 99.83 C20.68 103.33, 18.79 106.85, 16.91 114.66 M17.33 114.46 C17.33 114.46, 17.33 114.46, 17.33 114.46 M17.33 114.46 C17.33 114.46, 17.33 114.46, 17.33 114.46" stroke="#000000" stroke-width="1" fill="none"></path></g></g><g transform="translate(908.5556418273111 369.17040914042786) rotate(0 46 28.5)"><text x="0" y="21.5" font-family="Virgil, Segoe UI Emoji" font-size="20px" fill="#000000" text-anchor="start" style="white-space: pre;" direction="ltr">Y像比基尼</text><text x="0" y="50" font-family="Virgil, Segoe UI Emoji" font-size="20px" fill="#000000" text-anchor="start" style="white-space: pre;" direction="ltr">通透!</text></g><g stroke-linecap="round"><g transform="translate(44.060049804602556 247.05126679107275) rotate(0 232.0878460544684 -107.66821162406166)"><path d="M0.72 0.41 C64.93 -30.99, 307.18 -151.44, 384.49 -187.47 C461.79 -223.5, 451.17 -211.13, 464.53 -215.75 M-0.35 -0.42 C64.3 -32.24, 309.42 -153.48, 386.81 -189.13 C464.2 -224.78, 450.94 -209.62, 463.99 -214.31" stroke="#c92a2a" stroke-width="1" fill="none"></path></g><g transform="translate(44.060049804602556 247.05126679107275) rotate(0 232.0878460544684 -107.66821162406166)"><path d="M464.82 -216.15 L452.22 -207.85 L451.28 -219.22 L462.32 -215.9" stroke="none" stroke-width="0" fill="#c92a2a" fill-rule="evenodd"></path><path d="M464.51 -215.24 C462.07 -211.86, 458.16 -209.91, 452.09 -205.22 M463.5 -213.93 C461.36 -212.5, 459.01 -211.61, 450.54 -206.76 M451.11 -206.09 C449.62 -211.8, 449.64 -214.41, 448.62 -218.5 M450.78 -206.27 C449.96 -212.02, 449.71 -215.77, 449.27 -219.3 M451.15 -220.7 C454.3 -218.21, 457.43 -217.36, 463.03 -213.06 M449.66 -219.05 C453.55 -217.73, 456.86 -217.06, 463.9 -214.33 M463.99 -214.31 C463.99 -214.31, 463.99 -214.31, 463.99 -214.31 M463.99 -214.31 C463.99 -214.31, 463.99 -214.31, 463.99 -214.31" stroke="#c92a2a" stroke-width="1" fill="none"></path></g></g><g stroke-linecap="round"><g transform="translate(690.1865107506627 34.22302151379745) rotate(0 71.64389917881965 10.397362795715253)"><path d="M0.92 -1.12 C22.16 -0.52, 105.21 0.71, 128.41 4.39 C151.61 8.08, 138.14 18.18, 140.12 20.98 M-0.06 0.9 C20.98 1.59, 103.89 2.11, 127.67 5.61 C151.44 9.11, 140.52 19.18, 142.61 21.92" stroke="#c92a2a" stroke-width="1" fill="none"></path></g><g transform="translate(690.1865107506627 34.22302151379745) rotate(0 71.64389917881965 10.397362795715253)"><path d="M142.8 20.71 L139.22 9.44 L148.77 7.7 L143.14 20.8" stroke="none" stroke-width="0" fill="#c92a2a" fill-rule="evenodd"></path><path d="M141.21 22.4 C139.8 15.68, 137.7 10.53, 136.82 8.1 M141.89 21.72 C141.07 18.1, 139.43 14.62, 138.07 8.13 M137.84 6.64 C140.76 8.95, 144.4 7.54, 149.46 8.59 M137.16 7.83 C140.87 8.62, 143.07 8.09, 150.28 8.85 M150.2 9.59 C147.88 12.38, 144.73 18.2, 142.17 22.99 M149.93 9.42 C148.54 12.68, 145.29 16.85, 141.95 22.11 M142.61 21.92 C142.61 21.92, 142.61 21.92, 142.61 21.92 M142.61 21.92 C142.61 21.92, 142.61 21.92, 142.61 21.92" stroke="#c92a2a" stroke-width="1" fill="none"></path></g></g><g stroke-linecap="round" transform="translate(1022.0999934584721 29.796077382978638) rotate(0 0.19572539586317816 0.09954998582691132)"><path d="M0.33 -0.07 C0.47 0, 0.2 0.6, 0.18 0.63 C0.17 0.66, 0.12 0.2, 0.23 0.12 C0.33 0.05, 0.92 0.23, 0.83 0.18 C0.74 0.12, -0.34 -0.1, -0.31 -0.22 C-0.28 -0.34, 1 -0.67, 1.01 -0.55 C1.02 -0.43, -0.21 0.52, -0.24 0.52 C-0.27 0.51, 0.91 -0.65, 0.83 -0.57 C0.74 -0.5, -0.52 0.78, -0.77 1 C-1.02 1.21, -0.94 0.88, -0.66 0.71 C-0.39 0.54, 0.66 0.03, 0.88 -0.04 M0.65 1.11 C0.66 1.01, 1.6 0.08, 1.36 -0.16 C1.12 -0.39, -0.55 -0.23, -0.79 -0.3 C-1.02 -0.36, 0.04 -0.58, -0.04 -0.57 C-0.11 -0.56, -1.25 -0.22, -1.24 -0.25 C-1.22 -0.28, -0.15 -0.9, 0.06 -0.75 C0.26 -0.59, -0.05 0.42, -0.01 0.69 C0.03 0.95, 0.35 0.98, 0.3 0.83 C0.25 0.68, -0.05 -0.04, -0.29 -0.22 C-0.53 -0.39, -1.29 -0.17, -1.13 -0.22 C-0.97 -0.27, 0.38 -0.37, 0.66 -0.53" stroke="#a61e4d" stroke-width="1" fill="none"></path></g><g transform="translate(585.6160307576613 93.77881968844304) rotate(0 88 14.5)"><text x="0" y="21" font-family="Virgil, Segoe UI Emoji" font-size="20px" fill="#c92a2a" text-anchor="start" style="white-space: pre;" direction="ltr">4填充调控序列CPO</text></g><g transform="translate(553.975124210136 215.13799032161523) rotate(0 7.5 12.5)"><text x="0" y="18" font-family="Virgil, Segoe UI Emoji" font-size="20px" fill="#000000" text-anchor="start" style="white-space: pre;" direction="ltr">C</text></g><g transform="translate(606.2508462199592 215.31778644202723) rotate(0 7.5 12.5)"><text x="0" y="18" font-family="Virgil, Segoe UI Emoji" font-size="20px" fill="#000000" text-anchor="start" style="white-space: pre;" direction="ltr">P</text></g><g transform="translate(660.9217094052725 209.74731735425894) rotate(0 8.5 12.5)"><text x="0" y="18" font-family="Virgil, Segoe UI Emoji" font-size="20px" fill="#000000" text-anchor="start" style="white-space: pre;" direction="ltr">O</text></g><g stroke-linecap="round"><g transform="translate(611.3942995217487 248.00271466131653) rotate(0 -1.9234856543584513 32.805988076117046)"><path d="M0.08 0.78 C-0.64 11.59, -3.44 53.39, -3.92 63.9 M-1.34 0.14 C-1.73 11.25, -1.4 54.64, -1.76 65.47" stroke="#000000" stroke-width="1" fill="none"></path></g><g transform="translate(611.3942995217487 248.00271466131653) rotate(0 -1.9234856543584513 32.805988076117046)"><path d="M-0.12 66.1 L-9.51 53 L3.61 53.1 L-0.61 64.74" stroke="none" stroke-width="0" fill="#000000" fill-rule="evenodd"></path><path d="M-0.79 64.17 C-3.62 61.05, -5.77 56.52, -6.99 52.21 M-1.71 64.85 C-3.69 62.65, -3.72 59.83, -8.03 51.2 M-9.09 52.86 C-4.06 52.81, -0.31 50.75, 4.96 52.92 M-7.75 51.31 C-3.32 51.67, 0.95 51.99, 5.3 52.05 M4.4 53.14 C1.42 56.86, 2.39 61.17, -1.79 64.22 M4.28 51.58 C3.33 55.55, 1.35 57.96, -1.36 64.78 M-1.76 65.47 C-1.76 65.47, -1.76 65.47, -1.76 65.47 M-1.76 65.47 C-1.76 65.47, -1.76 65.47, -1.76 65.47" stroke="#000000" stroke-width="1" fill="none"></path></g></g><g transform="translate(573.2871539294018 328.0274794253737) rotate(0 43 12.5)"><text x="0" y="18" font-family="Virgil, Segoe UI Emoji" font-size="20px" fill="#000000" text-anchor="start" style="white-space: pre;" direction="ltr">promoter</text></g><g stroke-linecap="round"><g transform="translate(671.8860621054043 235.87610846852067) rotate(0 1.5904142073285783 32.101996800268694)"><path d="M-0.78 -0.49 C-0.04 10.35, 3.07 53.91, 3.96 64.68 M1.01 -1.79 C1.67 9.24, 2.63 54.86, 3.18 66" stroke="#000000" stroke-width="1" fill="none"></path></g><g transform="translate(671.8860621054043 235.87610846852067) rotate(0 1.5904142073285783 32.101996800268694)"><path d="M3.67 67.55 L-4.08 54.56 L7.76 54.08 L2.89 64.66" stroke="none" stroke-width="0" fill="#000000" fill-rule="evenodd"></path><path d="M2.57 66.39 C0.93 63.69, -1.46 57.86, -2.29 52.34 M2.59 65.94 C1.87 62, -1.07 58.73, -4.08 53.24 M-4.32 53.35 C1.32 51.94, 5.73 52.69, 9.51 51.8 M-3.09 52.43 C0.6 52.69, 4.52 52.29, 8.49 51.99 M8.8 52.06 C6.35 54.64, 5.84 59.53, 2.65 65.94 M8.48 52.83 C6.91 55.9, 6.97 58.23, 3.72 65.71 M3.18 66 C3.18 66, 3.18 66, 3.18 66 M3.18 66 C3.18 66, 3.18 66, 3.18 66" stroke="#000000" stroke-width="1" fill="none"></path></g></g><g transform="translate(668.630468067942 309.9451267439265) rotate(0 31.5 12.5)"><text x="0" y="18" font-family="Virgil, Segoe UI Emoji" font-size="20px" fill="#000000" text-anchor="start" style="white-space: pre;" direction="ltr">operon</text></g><g stroke-linecap="round"><g transform="translate(558.0462220794674 240.78518468477296) rotate(0 -8.330003426724518 29.370298056805268)"><path d="M-0.93 1.01 C-3.81 10.57, -15.09 48.97, -17.45 58.25 M0.79 0.49 C-1.73 9.63, -12.68 46.93, -15.35 56.44" stroke="#000000" stroke-width="1" fill="none"></path></g><g transform="translate(558.0462220794674 240.78518468477296) rotate(0 -8.330003426724518 29.370298056805268)"><path d="M-16.87 57.03 L-18.25 40.67 L-4.24 45.23 L-16.18 54.86" stroke="none" stroke-width="0" fill="#000000" fill-rule="evenodd"></path><path d="M-14.09 54.97 C-15.38 53.62, -17.97 48.98, -18.25 41.73 M-15.5 55.93 C-15.87 51.11, -16.48 45.46, -17.95 41.39 M-16.91 42.08 C-14.71 43.83, -9.42 44.11, -6.75 45.44 M-18.09 42.22 C-13.18 42.41, -8.77 44.39, -5.24 44.6 M-6.45 45.86 C-6.43 47.45, -10.28 50.87, -15.88 57.62 M-5.44 45.31 C-8.46 48.38, -11.27 50.92, -14.92 57.01 M-15.35 56.44 C-15.35 56.44, -15.35 56.44, -15.35 56.44 M-15.35 56.44 C-15.35 56.44, -15.35 56.44, -15.35 56.44" stroke="#000000" stroke-width="1" fill="none"></path></g></g><g transform="translate(501.7796683254966 306.65742625639064) rotate(0 20.5 12.5)"><text x="0" y="18" font-family="Virgil, Segoe UI Emoji" font-size="20px" fill="#000000" text-anchor="start" style="white-space: pre;" direction="ltr">CAP</text></g><g transform="translate(350.4592753351836 118.51974202846964) rotate(0 103 14.5)"><text x="0" y="21" font-family="Virgil, Segoe UI Emoji" font-size="20px" fill="#c92a2a" text-anchor="start" style="white-space: pre;" direction="ltr">5因为I有单独的启动子</text></g><g stroke-linecap="round"><g transform="translate(428.19881270668577 191.98801509377085) rotate(0 116.54275014563828 -10.885184172077743)"><path d="M0.88 -0.33 C1.98 -6.21, -7.61 -30.78, 7.24 -34.24 C22.08 -37.69, 57.6 -25.02, 89.92 -21.05 C122.25 -17.08, 177.42 -16.11, 201.18 -10.43 C224.94 -4.74, 227.03 9.44, 232.48 13.06 M-0.12 -1.55 C1.3 -6.78, -5.51 -30.09, 9.43 -33.16 C24.37 -36.23, 57.54 -23.9, 89.5 -19.96 C121.45 -16.03, 177.02 -14.61, 201.15 -9.55 C225.27 -4.49, 229.1 6.55, 234.25 10.4" stroke="#000000" stroke-width="1" fill="none"></path></g><g transform="translate(428.19881270668577 191.98801509377085) rotate(0 116.54275014563828 -10.885184172077743)"><path d="M235.17 10.76 L220.49 4.94 L227.62 -3.44 L235.39 10.01" stroke="none" stroke-width="0" fill="#000000" fill-rule="evenodd"></path><path d="M233.84 9.17 C228.2 9.42, 223.84 6.06, 219.7 3.98 M234.06 9.9 C229.25 8.35, 223.74 5.79, 220.2 5.11 M219.57 6.23 C221.11 2.65, 222.97 2.61, 229.72 -3.29 M219.69 5.51 C223.17 2.56, 226.82 -0.69, 229.7 -4.21 M228.96 -3.44 C231.96 0.96, 232.46 6.68, 233.63 10.02 M229.59 -4.34 C231.8 1.47, 233.12 6.57, 233.64 10.79 M234.25 10.4 C234.25 10.4, 234.25 10.4, 234.25 10.4 M234.25 10.4 C234.25 10.4, 234.25 10.4, 234.25 10.4" stroke="#000000" stroke-width="1" fill="none"></path></g></g><g stroke-linecap="round"><g transform="translate(834.6235582494586 66.38816552437561) rotate(0 -34.13452686967091 15.854560606612495)"><path d="M-0.94 0.65 C-12.42 5.61, -57.84 25.41, -69.04 30.37 M0.77 -0.06 C-10.33 5.04, -55.19 26.48, -66.8 31.77" stroke="#c92a2a" stroke-width="1" fill="none"></path></g><g transform="translate(834.6235582494586 66.38816552437561) rotate(0 -34.13452686967091 15.854560606612495)"><path d="M-68.37 32.06 L-57.29 19.15 L-50.74 31.86 L-65.24 30.88" stroke="none" stroke-width="0" fill="#c92a2a" fill-rule="evenodd"></path><path d="M-65.99 30.63 C-64.43 28.51, -61.57 24.18, -57.11 20.43 M-67.16 32.38 C-64.13 28.18, -61.69 25.98, -56.83 20.74 M-57.16 19.06 C-56.39 23.31, -52.5 27.46, -52.67 32.7 M-57.04 20.44 C-55.07 23.36, -53.81 26.95, -51.97 31.13 M-52.94 32.25 C-56.18 32.81, -61.33 32.19, -65.9 31.11 M-52.14 31.59 C-55.98 31.33, -61.57 31.8, -66.94 31.87 M-66.8 31.77 C-66.8 31.77, -66.8 31.77, -66.8 31.77 M-66.8 31.77 C-66.8 31.77, -66.8 31.77, -66.8 31.77" stroke="#c92a2a" stroke-width="1" fill="none"></path></g></g><g stroke-linecap="round"><g transform="translate(576.6268846341349 110.2423821595844) rotate(0 -13.563076015204391 3.5468382769740856)"><path d="M-1 0.09 C-5.69 1.05, -23.32 5.47, -27.8 6.63 M0.68 -0.91 C-3.68 0.15, -21.26 6.45, -25.65 8" stroke="#c92a2a" stroke-width="1" fill="none"></path></g><g transform="translate(576.6268846341349 110.2423821595844) rotate(0 -13.563076015204391 3.5468382769740856)"><path d="M-25.85 9.75 L-17.58 -1.67 L-12.78 9.35 L-24.04 7.75" stroke="none" stroke-width="0" fill="#c92a2a" fill-rule="evenodd"></path><path d="M-25.54 6.79 C-22.85 3.56, -19.15 1.06, -16.58 -2.74 M-25.78 8.24 C-21.96 4.39, -19.04 1.47, -15.62 -2 M-16.59 -1.69 C-14.85 1.56, -14.27 4.65, -11.05 8.72 M-15.62 -1.79 C-15.19 1.09, -14.08 2.76, -11.32 9.36 M-12.99 10.47 C-17.62 7.86, -23.91 8.4, -25.73 7.23 M-12.2 9.28 C-17.05 8.93, -21.59 8.25, -25.28 7.98 M-25.65 8 C-25.65 8, -25.65 8, -25.65 8 M-25.65 8 C-25.65 8, -25.65 8, -25.65 8" stroke="#c92a2a" stroke-width="1" fill="none"></path></g></g><g stroke-linecap="round"><g transform="translate(446.1479174632221 395.60156680057776) rotate(0 202.3584153049182 -11.513578096475385)"><path d="M-0.13 -10.89 C18.92 -11.06, 47.53 -12.62, 114.88 -12.74 C182.23 -12.86, 355.66 -11.98, 403.98 -11.63 M-1.66 -11.52 C17.28 -11.59, 46.45 -11.97, 114.46 -11.76 C182.46 -11.56, 357.95 -10.14, 406.37 -10.28" stroke="#0b7285" stroke-width="1" fill="none"></path></g><g transform="translate(446.1479174632221 395.60156680057776) rotate(0 202.3584153049182 -11.513578096475385)"><path d="M407.72 -11.82 L391.74 -2.49 L391.86 -17.56 L407.14 -10.34" stroke="none" stroke-width="0" fill="#0b7285" fill-rule="evenodd"></path><path d="M407.35 -9.04 C400.31 -9.31, 396.98 -6.08, 394.07 -5.32 M406.98 -10.38 C402.65 -8.26, 398.78 -6.98, 392.34 -3.32 M393.46 -2.89 C392.72 -6.97, 392.21 -12.15, 392 -15.87 M392.4 -4.03 C392.8 -8.97, 392.72 -13.65, 392.66 -16.11 M393.2 -15.73 C396.77 -16.64, 400.41 -14.25, 405.77 -10.47 M392.25 -16.84 C395.92 -15.19, 399.61 -13.55, 406.69 -10.63 M406.37 -10.28 C406.37 -10.28, 406.37 -10.28, 406.37 -10.28 M406.37 -10.28 C406.37 -10.28, 406.37 -10.28, 406.37 -10.28" stroke="#0b7285" stroke-width="1" fill="none"></path></g></g><g transform="translate(500.30405356594235 455.8100452124304) rotate(0 91 14.5)"><text x="0" y="21" font-family="Virgil, Segoe UI Emoji" font-size="20px" fill="#0b7285" text-anchor="start" style="white-space: pre;" direction="ltr">这个方向是转录方向</text></g><g transform="translate(680.9679567939361 394.16407392563497) rotate(0 68.5 14.5)"><text x="0" y="21" font-family="Virgil, Segoe UI Emoji" font-size="20px" fill="#0b7285" text-anchor="start" style="white-space: pre;" direction="ltr">所以O在前面挡</text></g><g transform="translate(488.5490505300936 398.69157760243115) rotate(0 47.5 14.5)"><text x="0" y="21" font-family="Virgil, Segoe UI Emoji" font-size="20px" fill="#0b7285" text-anchor="start" style="white-space: pre;" direction="ltr">C在后面推</text></g><g transform="translate(599.0838082643781 400.05631341125695) rotate(0 37.5 14.5)"><text x="0" y="21" font-family="Virgil, Segoe UI Emoji" font-size="20px" fill="#0b7285" text-anchor="start" style="white-space: pre;" direction="ltr">P在中间</text></g><g transform="translate(529.2965836212603 433.40243912453616) rotate(0 21 14.5)"><text x="0" y="21" font-family="Virgil, Segoe UI Emoji" font-size="20px" fill="#0b7285" text-anchor="start" style="white-space: pre;" direction="ltr">促进</text></g><g transform="translate(707.3783949085811 430.38410334000514) rotate(0 21 14.5)"><text x="0" y="21" font-family="Virgil, Segoe UI Emoji" font-size="20px" fill="#0b7285" text-anchor="start" style="white-space: pre;" direction="ltr">抑制</text></g><g transform="translate(481.0032110687665 169.29805797808558) rotate(0 44 14.5)"><text x="0" y="21" font-family="Virgil, Segoe UI Emoji" font-size="20px" fill="#0b7285" text-anchor="start" style="white-space: pre;" direction="ltr">记忆为IO</text></g></svg>