<svg version="1.1" xmlns="http://www.w3.org/2000/svg" viewBox="0 0 877.9565064894584 525.9358065743834" width="1755.9130129789169" height="1051.8716131487668">
  <!-- svg-source:excalidraw -->
  
  <defs>
    <style>
      @font-face {
        font-family: "Virgil";
        src: url("https://excalidraw.com/Virgil.woff2");
      }
      @font-face {
        font-family: "Cascadia";
        src: url("https://excalidraw.com/Cascadia.woff2");
      }
    </style>
  </defs>
  <rect x="0" y="0" width="877.9565064894584" height="525.9358065743834" fill="#fdf6e3"></rect><g transform="translate(180.63801972869493 10) rotate(0 131 14.5)"><text x="0" y="21" font-family="Virgil, Segoe UI Emoji" font-size="20px" fill="#000000" text-anchor="start" style="white-space: pre;" direction="ltr">如何记忆促进肾素释放的因素</text></g><g transform="translate(42.38531137903891 143.1860812769916) rotate(0 41 14.5)"><text x="0" y="21" font-family="Virgil, Segoe UI Emoji" font-size="20px" fill="#000000" text-anchor="start" style="white-space: pre;" direction="ltr">肾内调节</text></g><g transform="translate(10 275.2577706261364) rotate(0 41 14.5)"><text x="0" y="21" font-family="Virgil, Segoe UI Emoji" font-size="20px" fill="#000000" text-anchor="start" style="white-space: pre;" direction="ltr">神经调节</text></g><g transform="translate(39.26893274955637 355.94993009162727) rotate(0 41 14.5)"><text x="0" y="21" font-family="Virgil, Segoe UI Emoji" font-size="20px" fill="#000000" text-anchor="start" style="white-space: pre;" direction="ltr">体液调节</text></g><g transform="translate(191.79073960612732 231.3543715018019) rotate(0 90.00000000000003 14.5)"><text x="0" y="21" font-family="Virgil, Segoe UI Emoji" font-size="20px" fill="#000000" text-anchor="start" style="white-space: pre;" direction="ltr">β1受体刺激球旁细胞</text></g><g transform="translate(204.9057479493223 51.50329952177668) rotate(0 100.99999999999997 14.5)"><text x="0" y="21" font-family="Virgil, Segoe UI Emoji" font-size="20px" fill="#000000" text-anchor="start" style="white-space: pre;" direction="ltr">入球小动脉牵张感受器</text></g><g transform="translate(471.41868668902185 75.91592522921405) rotate(0 31 14.5)"><text x="0" y="21" font-family="Virgil, Segoe UI Emoji" font-size="20px" fill="#000000" text-anchor="start" style="white-space: pre;" direction="ltr">致密斑</text></g><g transform="translate(167.40194853447957 162.63092336450268) rotate(0 31 14.5)"><text x="0" y="21" font-family="Virgil, Segoe UI Emoji" font-size="20px" fill="#000000" text-anchor="start" style="white-space: pre;" direction="ltr">低灌注</text></g><g stroke-linecap="round"><g transform="translate(206.79250790590078 159.86853060236422) rotate(0 40.46079228582465 -38.886807070168885)"><path d="M-0.3 1.01 C13.2 -12.3, 67.53 -65.74, 81.22 -78.78 M1.75 0.5 C15.06 -12.18, 66.95 -64.48, 80.22 -77.78" stroke="#000000" stroke-width="1" fill="none"></path></g><g transform="translate(206.79250790590078 159.86853060236422) rotate(0 40.46079228582465 -38.886807070168885)"><path d="M69.29 -50.74 C69.66 -58.33, 76.26 -66.48, 80.81 -78.25 M66.61 -50.63 C73.11 -61.36, 76.79 -71.04, 80.48 -77.13" stroke="#000000" stroke-width="1" fill="none"></path></g><g transform="translate(206.79250790590078 159.86853060236422) rotate(0 40.46079228582465 -38.886807070168885)"><path d="M54.74 -65.21 C59.87 -68.17, 71.09 -71.72, 80.81 -78.25 M52.06 -65.11 C63.84 -70.58, 72.84 -74.95, 80.48 -77.13" stroke="#000000" stroke-width="1" fill="none"></path></g></g><g transform="translate(261.78512004141277 153.9352537406185) rotate(0 71 28.5)"><text x="0" y="21.5" font-family="Virgil, Segoe UI Emoji" font-size="20px" fill="#000000" text-anchor="start" style="white-space: pre;" direction="ltr">长期低盐饮食</text><text x="0" y="50" font-family="Virgil, Segoe UI Emoji" font-size="20px" fill="#000000" text-anchor="start" style="white-space: pre;" direction="ltr">也可看成低容量</text></g><g stroke-linecap="round"><g transform="translate(300.825538533862 142.52684684582402) rotate(0 1.8005004662255146 -27.662421642918773)"><path d="M-0.15 -0.89 C0.21 -10, 2.44 -45.55, 2.97 -54.61 M-1.68 1.26 C-1.01 -8.24, 4.68 -47.36, 5.28 -56.58" stroke="#000000" stroke-width="1" fill="none"></path></g><g transform="translate(300.825538533862 142.52684684582402) rotate(0 1.8005004662255146 -27.662421642918773)"><path d="M10.29 -31.13 C9.83 -40.86, 6.38 -50.01, 6.69 -54.71 M12.73 -30.66 C9.4 -37.49, 8.08 -44.24, 5.98 -56.02" stroke="#000000" stroke-width="1" fill="none"></path></g><g transform="translate(300.825538533862 142.52684684582402) rotate(0 1.8005004662255146 -27.662421642918773)"><path d="M-8.41 -33.22 C-1.96 -42.15, 1.49 -50.53, 6.69 -54.71 M-5.97 -32.75 C-4.4 -39.08, -0.82 -45.29, 5.98 -56.02" stroke="#000000" stroke-width="1" fill="none"></path></g></g><g transform="translate(446.8769567043914 155.81862873779136) rotate(0 86 14.5)"><text x="0" y="21" font-family="Virgil, Segoe UI Emoji" font-size="20px" fill="#000000" text-anchor="start" style="white-space: pre;" direction="ltr">低钠血症/滤过少了</text></g><g stroke-linecap="round"><g transform="translate(499.04104334945094 141.45230201564556) rotate(0 -7.476775691875957 -15.326276088263754)"><path d="M-0.23 0.37 C-2.61 -4.42, -11.19 -24.28, -13.48 -29.52 M-1.8 -0.49 C-4.47 -5.51, -13.1 -26.1, -14.73 -31.02" stroke="#000000" stroke-width="1" fill="none"></path></g><g transform="translate(499.04104334945094 141.45230201564556) rotate(0 -7.476775691875957 -15.326276088263754)"><path d="M-3.28 -19.25 C-6.09 -24.54, -12.31 -29.38, -15.1 -29.41 M-4.57 -18.18 C-7.11 -21.32, -10.51 -24.97, -14.36 -31.49" stroke="#000000" stroke-width="1" fill="none"></path></g><g transform="translate(499.04104334945094 141.45230201564556) rotate(0 -7.476775691875957 -15.326276088263754)"><path d="M-13.91 -15.16 C-12.78 -21.94, -15.07 -28.28, -15.1 -29.41 M-15.21 -14.09 C-14.65 -18.52, -14.96 -23.36, -14.36 -31.49" stroke="#000000" stroke-width="1" fill="none"></path></g></g><g stroke-linecap="round"><g transform="translate(129.72137557086438 358.8173527862154) rotate(0 69.4465955407515 -20.494344555902327)"><path d="M0.79 -0.23 C24 -7.17, 116.24 -33.92, 139.15 -40.76 M-0.26 -1.39 C22.79 -8.2, 114.64 -32.7, 138.12 -39.17" stroke="#000000" stroke-width="1" fill="none"></path></g><g transform="translate(129.72137557086438 358.8173527862154) rotate(0 69.4465955407515 -20.494344555902327)"><path d="M113.22 -22.16 C120.79 -28.83, 127.08 -33.39, 136.84 -39.33 M112.82 -22.22 C119.31 -25.57, 122.92 -28.65, 137.71 -39.15" stroke="#000000" stroke-width="1" fill="none"></path></g><g transform="translate(129.72137557086438 358.8173527862154) rotate(0 69.4465955407515 -20.494344555902327)"><path d="M107.85 -41.97 C117.13 -42.91, 124.98 -41.71, 136.84 -39.33 M107.45 -42.03 C115.2 -41.19, 119.94 -40.14, 137.71 -39.15" stroke="#000000" stroke-width="1" fill="none"></path></g></g><g stroke-linecap="round"><g transform="translate(127.09757941436573 377.9327306894273) rotate(0 56.80264713313713 38.15733596510161)"><path d="M0.19 0.91 C19.19 13.45, 95.84 63.65, 114.78 75.98 M-1.17 0.34 C17.59 12.47, 94.18 61.63, 113.73 74.22" stroke="#000000" stroke-width="1" fill="none"></path></g><g transform="translate(127.09757941436573 377.9327306894273) rotate(0 56.80264713313713 38.15733596510161)"><path d="M85.99 67.3 C96.3 68.08, 105.01 73.51, 114.15 72.25 M84.17 67.62 C91.53 69.83, 97.69 70.57, 113.63 73.41" stroke="#000000" stroke-width="1" fill="none"></path></g><g transform="translate(127.09757941436573 377.9327306894273) rotate(0 56.80264713313713 38.15733596510161)"><path d="M97.09 50.04 C103.48 57.09, 108.17 68.77, 114.15 72.25 M95.27 50.36 C99.99 56.77, 103.48 61.67, 113.63 73.41" stroke="#000000" stroke-width="1" fill="none"></path></g></g><g transform="translate(148.21903916319735 310.97484132786013) rotate(0 31 14.5)"><text x="0" y="21" font-family="Virgil, Segoe UI Emoji" font-size="20px" fill="#000000" text-anchor="start" style="white-space: pre;" direction="ltr">舒血管</text></g><g transform="translate(307.1444181685583 298.63247242817613) rotate(0 15.5 12.5)"><text x="0" y="18" font-family="Virgil, Segoe UI Emoji" font-size="20px" fill="#000000" text-anchor="start" style="white-space: pre;" direction="ltr">PG</text></g><g transform="translate(372.1414699666365 291.9925401411399) rotate(0 31 14.5)"><text x="0" y="21" font-family="Virgil, Segoe UI Emoji" font-size="20px" fill="#000000" text-anchor="start" style="white-space: pre;" direction="ltr">缓激肽</text></g><g transform="translate(466.29622621391985 294.56469458676116) rotate(0 61 14.5)"><text x="0" y="21" font-family="Virgil, Segoe UI Emoji" font-size="20px" fill="#000000" text-anchor="start" style="white-space: pre;" direction="ltr">小剂量多巴胺</text></g><g stroke-linecap="round" transform="translate(264.0553691003665 274.47054916632817) rotate(0 172.56077689662754 27.67995703025359)"><path d="M1.28 -0.12 C134.93 0.42, 269.55 2.12, 345.87 0.1 M0.54 0.07 C71.23 0.73, 141.96 0.65, 345.24 -0.5 M343.36 1.72 C346.09 17.75, 344.16 34.42, 344.19 56.75 M345.6 0.96 C344.91 14.64, 344.53 28.29, 345.81 54.59 M344.85 55.32 C208.74 55.66, 72.35 53.44, -0.48 56.61 M345.46 54.9 C242.16 57.4, 139.93 57.72, -0.37 55.43 M0.17 53.47 C1.18 38.73, 0.2 19.23, -1.83 1.99 M0.57 55.85 C-0.19 42.13, -0.34 28.87, 0.21 -0.62" stroke="#000000" stroke-width="1" fill="none"></path></g><g transform="translate(306.1274737082045 341.8526119932105) rotate(0 15 12.5)"><text x="0" y="18" font-family="Virgil, Segoe UI Emoji" font-size="20px" fill="#000000" text-anchor="start" style="white-space: pre;" direction="ltr">NO</text></g><g transform="translate(362.75260968520655 336.5732401658271) rotate(0 31 14.5)"><text x="0" y="21" font-family="Virgil, Segoe UI Emoji" font-size="20px" fill="#000000" text-anchor="start" style="white-space: pre;" direction="ltr">钠尿肽</text></g><g transform="translate(625.9565064894584 288.4632761020948) rotate(0 121.00000000000006 14.5)"><text x="0" y="21" font-family="Virgil, Segoe UI Emoji" font-size="20px" fill="#000000" text-anchor="start" style="white-space: pre;" direction="ltr">舒张血管所以肾素分泌增加</text></g><g stroke-linecap="round" transform="translate(275.5972914814517 334.25600888254957) rotate(0 84.36865203602764 20.438200189531386)"><path d="M0.06 -1.03 C33.23 -2.99, 70.31 -2.13, 170.39 1.11 M0.65 0.8 C36.83 0.72, 73.21 0.4, 168.08 -0.36 M168.51 1.31 C168.19 16.81, 168.73 32.51, 169.33 40.77 M167.88 0.77 C169.46 11.72, 167.98 23.6, 169.44 40.45 M170.22 41.19 C126.79 38.53, 81.53 37.61, -1.64 39.94 M169.23 40.62 C110.83 39.3, 51.42 39.98, -0.06 40.39 M-1.34 40.92 C-1.85 28.14, 1.21 12.35, -1.7 -0.57 M0.59 40.66 C-0.09 31.57, -1.27 23.38, -0.97 0.38" stroke="#000000" stroke-width="1" fill="none"></path></g><g stroke-linecap="round"><g transform="translate(447.28810417176095 363.59644553947453) rotate(0 32.25628654572671 -1.2598728623059205)"><path d="M0.53 1.06 C11.4 0.56, 54.32 -2.79, 65.16 -3.58 M-0.65 0.57 C10.04 0.26, 53.1 -1.9, 64.01 -2.47" stroke="#000000" stroke-width="1" fill="none"></path></g><g transform="translate(447.28810417176095 363.59644553947453) rotate(0 32.25628654572671 -1.2598728623059205)"><path d="M38.15 8.58 C43.22 5.7, 51.2 3.56, 65.58 -2.83 M37.13 9.51 C42.94 6.73, 48.5 3.71, 63.06 -2.81" stroke="#000000" stroke-width="1" fill="none"></path></g><g transform="translate(447.28810417176095 363.59644553947453) rotate(0 32.25628654572671 -1.2598728623059205)"><path d="M37.11 -11.91 C42.39 -8.78, 50.67 -4.89, 65.58 -2.83 M36.1 -10.98 C42.07 -9.35, 47.85 -7.97, 63.06 -2.81" stroke="#000000" stroke-width="1" fill="none"></path></g></g><g transform="translate(526.804421604968 343.88674919137407) rotate(0 150.99999999999994 14.5)"><text x="0" y="21" font-family="Virgil, Segoe UI Emoji" font-size="20px" fill="#000000" text-anchor="start" style="white-space: pre;" direction="ltr">记忆为让肾素分泌减少所以舒血管</text></g><g transform="translate(266.97511198458517 425.7507782498508) rotate(0 27.49999999999997 14.5)"><text x="0" y="21" font-family="Virgil, Segoe UI Emoji" font-size="20px" fill="#000000" text-anchor="start" style="white-space: pre;" direction="ltr">AngⅡ</text></g><g transform="translate(343.10095247673 427.0716143165213) rotate(0 43 14.5)"><text x="0" y="21" font-family="Virgil, Segoe UI Emoji" font-size="20px" fill="#000000" text-anchor="start" style="white-space: pre;" direction="ltr">大剂量VP</text></g><g transform="translate(459.68608722162054 426.25925048002773) rotate(0 16 12.5)"><text x="0" y="18" font-family="Virgil, Segoe UI Emoji" font-size="20px" fill="#000000" text-anchor="start" style="white-space: pre;" direction="ltr">ET</text></g><g transform="translate(291.6658084429004 483.59148065211934) rotate(0 26 12.5)"><text x="0" y="18" font-family="Virgil, Segoe UI Emoji" font-size="20px" fill="#000000" text-anchor="start" style="white-space: pre;" direction="ltr">NE/E</text></g><g stroke-linecap="round" transform="translate(251.56403372699776 404.1014228441503) rotate(0 133.19489656072696 33.46978730746292)"><path d="M-1.1 0.57 C71.61 -0.42, 144.29 -0.06, 265.42 1.55 M0.12 -0.77 C102.28 0.87, 202.9 -0.08, 266.83 0.64 M268.3 1.75 C266.61 16.22, 265.16 29.18, 264.71 65.92 M265.46 -0.29 C265.98 21.8, 265.89 43.55, 265.66 66.6 M265.98 66.17 C189.3 65.99, 111.12 66.9, -1.56 67.29 M266.1 67.09 C192.23 66.74, 118.03 66.19, 0.7 66.22 M-1.97 68.28 C0.58 45.46, -0.12 23.39, -1.61 1.23 M-0.42 67.59 C0.14 41.98, 0.43 17.22, 1 -0.78" stroke="#000000" stroke-width="1" fill="none"></path></g><g transform="translate(542.0585885102741 430.8355005516196) rotate(0 131 14.5)"><text x="0" y="21" font-family="Virgil, Segoe UI Emoji" font-size="20px" fill="#000000" text-anchor="start" style="white-space: pre;" direction="ltr">收缩血管所以让肾素分泌减少</text></g><g stroke-linecap="round" transform="translate(261.49910441193816 480.19349760225987) rotate(0 86.2466227142786 16.610754925660927)"><path d="M-1.33 1.29 C58.26 -1.35, 113.64 -1.71, 174.3 -0.22 M0.76 -0.94 C52.47 -1.08, 106.16 -0.67, 172.03 0.43 M171.95 -0.88 C171.85 12.3, 172.37 22.84, 174.47 32.78 M172.15 0.75 C172.11 11.35, 172.03 24.5, 173.39 32.64 M174.22 33.81 C123.8 36.38, 78.14 34.17, -0.16 32.83 M172.7 32.71 C135.76 31.81, 98.34 32.62, -0.96 34.15 M-0.25 35.22 C1.62 24.55, 1.29 14.28, 0.85 0.64 M-0.18 33.25 C-0.25 19.61, -0.59 7.8, 0.3 -0.73" stroke="#000000" stroke-width="1" fill="none"></path></g><g stroke-linecap="round"><g transform="translate(440.515095168233 494.0116277012462) rotate(0 48.139002572536185 1.193495798265424)"><path d="M0.91 -0.69 C16.42 -0.3, 78.37 1.21, 94.12 1.96 M-0.08 1.56 C15.72 2.12, 80.54 3, 96.36 3.08" stroke="#000000" stroke-width="1" fill="none"></path></g><g transform="translate(440.515095168233 494.0116277012462) rotate(0 48.139002572536185 1.193495798265424)"><path d="M66.9 11.54 C77.64 9.6, 91.64 4, 95.87 1.11 M67.5 13.93 C79.16 8.94, 89.45 5.17, 95.5 2.58" stroke="#000000" stroke-width="1" fill="none"></path></g><g transform="translate(440.515095168233 494.0116277012462) rotate(0 48.139002572536185 1.193495798265424)"><path d="M67.12 -8.98 C77.71 -3.03, 91.62 -0.74, 95.87 1.11 M67.72 -6.59 C79.46 -3.76, 89.68 0.29, 95.5 2.58" stroke="#000000" stroke-width="1" fill="none"></path></g></g><g transform="translate(548.6687275025733 485.24202918054516) rotate(0 111 14.5)"><text x="0" y="21" font-family="Virgil, Segoe UI Emoji" font-size="20px" fill="#000000" text-anchor="start" style="white-space: pre;" direction="ltr">让肾素增多所以收缩血管</text></g><g transform="translate(121.62753050066607 410.12916070945585) rotate(0 31 14.5)"><text x="0" y="21" font-family="Virgil, Segoe UI Emoji" font-size="20px" fill="#000000" text-anchor="start" style="white-space: pre;" direction="ltr">缩血管</text></g><g transform="translate(458.1388221149494 444.0339301200778) rotate(0 31 14.5)"><text x="0" y="21" font-family="Virgil, Segoe UI Emoji" font-size="20px" fill="#000000" text-anchor="start" style="white-space: pre;" direction="ltr">内皮素</text></g><g stroke-linecap="round"><g transform="translate(250.17800786680652 513.0708013403816) rotate(0 -20.344862275591908 -121.163328711563)"><path d="M0.62 0.55 C-3.55 -1.68, -17.52 12.68, -24.41 -13.97 C-31.29 -40.63, -42.89 -120.82, -40.7 -159.36 C-38.51 -197.9, -16.05 -230.91, -11.26 -245.19 M-0.52 -0.2 C-4.8 -2.19, -18.08 13.91, -24.84 -12.46 C-31.61 -38.82, -42.91 -119.72, -41.12 -158.4 C-39.32 -197.08, -18.72 -230.1, -14.07 -244.54" stroke="#000000" stroke-width="1" fill="none"></path></g><g transform="translate(250.17800786680652 513.0708013403816) rotate(0 -20.344862275591908 -121.163328711563)"><path d="M-14.8 -212.96 C-15.07 -223.9, -15.57 -233.5, -15.5 -243.78 M-14.97 -213.97 C-15.6 -221.34, -15.66 -229.25, -13.34 -243.9" stroke="#000000" stroke-width="1" fill="none"></path></g><g transform="translate(250.17800786680652 513.0708013403816) rotate(0 -20.344862275591908 -121.163328711563)"><path d="M-33.67 -221.03 C-27.42 -229.26, -21.35 -236.05, -15.5 -243.78 M-33.84 -222.04 C-29.92 -227.57, -25.47 -233.55, -13.34 -243.9" stroke="#000000" stroke-width="1" fill="none"></path></g></g></svg>