<svg version="1.1" xmlns="http://www.w3.org/2000/svg" viewBox="0 0 477.24073784173453 470.23612227670293" width="954.4814756834691" height="940.4722445534059">
  <!-- svg-source:excalidraw -->
  
  <defs>
    <style>
      @font-face {
        font-family: "Virgil";
        src: url("https://excalidraw.com/Virgil.woff2");
      }
      @font-face {
        font-family: "Cascadia";
        src: url("https://excalidraw.com/Cascadia.woff2");
      }
    </style>
  </defs>
  <rect x="0" y="0" width="477.24073784173453" height="470.23612227670293" fill="#fdf6e3"></rect><g transform="translate(212.4016481867821 10) rotate(0 121 14.5)"><text x="0" y="21" font-family="Virgil, Segoe UI Emoji" font-size="20px" fill="#000000" text-anchor="start" style="white-space: pre;" direction="ltr">如何记忆脑电波的常见部位</text></g><g stroke-linecap="round"><g transform="translate(267.8277077679475 159.75380150227437) rotate(0 77.2905402726116 57.52960055034494)"><path d="M0.05 -0.13 C4.03 -8.42, 10.11 -39.13, 24.78 -49.74 C39.45 -60.36, 67.42 -69.1, 88.06 -63.8 C108.7 -58.51, 133.72 -46.38, 148.61 -17.96 C163.51 10.46, 181.61 75.33, 177.43 106.73 C173.25 138.13, 144.95 159.18, 123.55 170.44 C102.15 181.7, 73.49 184.15, 49.01 174.29 C24.54 164.43, -15.03 140.27, -23.29 111.3 C-31.54 82.33, -4.59 18.96, -0.51 0.47 M-1.38 -1.24 C2.41 -9.83, 9.26 -41.04, 24.14 -51.25 C39.02 -61.46, 67.09 -68.19, 87.9 -62.5 C108.71 -56.82, 133.76 -44.91, 148.99 -17.15 C164.23 10.61, 183.88 72.97, 179.32 104.07 C174.75 135.18, 143.25 157.99, 121.61 169.47 C99.96 180.95, 73.73 182.63, 49.46 172.96 C25.19 163.29, -15.98 140.41, -24.02 111.47 C-32.07 82.53, -2.61 17.9, 1.21 -0.67" stroke="#000000" stroke-width="1" fill="none"></path></g></g><g transform="translate(296.31918868403443 288.17021627144004) rotate(271.36424207244175 61 108.49999999999999)"><text x="0" y="152" font-family="Virgil, Segoe UI Emoji" font-size="170.80089813076975px" fill="#000000" text-anchor="start" style="white-space: pre;" direction="ltr">α</text></g><g stroke-linecap="round"><g transform="translate(345.96287611773977 332.26172235364174) rotate(0 1.968056462329514 20.772590390806677)"><path d="M0.04 0.89 C0.9 7.43, 4.56 33.38, 5.33 39.82 M-1.39 0.32 C-0.72 6.99, 2.91 34.52, 4.33 41.23" stroke="#000000" stroke-width="1" fill="none"></path></g><g transform="translate(345.96287611773977 332.26172235364174) rotate(0 1.968056462329514 20.772590390806677)"><path d="M-4.09 23.44 C-2.77 27.88, -0.1 34.74, 3.59 41.9 M-6.18 23.44 C-3.03 29.59, -0.59 35.15, 4.44 40.75" stroke="#000000" stroke-width="1" fill="none"></path></g><g transform="translate(345.96287611773977 332.26172235364174) rotate(0 1.968056462329514 20.772590390806677)"><path d="M9.55 21.2 C6.57 26.35, 4.93 33.92, 3.59 41.9 M7.47 21.19 C6.47 27.88, 4.79 34.13, 4.44 40.75" stroke="#000000" stroke-width="1" fill="none"></path></g></g><g transform="translate(69.6215680189182 336.4005350051512) rotate(0 106 14.5)"><text x="0" y="21" font-family="Virgil, Segoe UI Emoji" font-size="20px" fill="#000000" text-anchor="start" style="white-space: pre;" direction="ltr">1 记忆为枕在α的分叉上</text></g><g stroke-linecap="round" transform="translate(300.2697714480975 91.6018729371336) rotate(0 34.755914945232234 47.98288276980959)"><path d="M-0.35 -1.58 C28.13 0.61, 54.77 0.95, 71.44 0.85 M-0.97 0.74 C25.39 -1.02, 50.11 -0.83, 69.39 0.89 M70.94 -1.13 C69.99 36.1, 67.47 71.43, 70.6 97.04 M68.54 -0.7 C69.6 25.09, 68.56 51.08, 68.52 95.07 M67.81 96.65 C47.98 96.18, 22.69 97.29, -1.15 97.32 M70.25 96.06 C54.52 95.28, 40.52 95.93, 0.95 96.93 M1.77 94.1 C1.19 61.48, -0.79 26.51, -0.49 1.44 M-0.53 95.2 C1.01 76.21, 1.35 56.21, 0.57 -0.8" stroke="#000000" stroke-width="1" fill="none"></path></g><g transform="translate(91.60303848827806 76.85408994657814) rotate(0 73 14.5)"><text x="0" y="21" font-family="Virgil, Segoe UI Emoji" font-size="20px" fill="#000000" text-anchor="start" style="white-space: pre;" direction="ltr">2 活动时额顶叶</text></g><g stroke-linecap="round" transform="translate(303.3758626075136 211.31972912090623) rotate(0 34.755914945232234 65.2363273790472)"><path d="M0.46 -1.12 C19.33 0.06, 43.65 0.69, 69.43 1.95 M-0.46 0.7 C21.55 -0.48, 41.23 0.99, 68.6 -0.77 M69.61 1.55 C68.62 33.49, 66.9 70.23, 71.15 130.97 M69.47 0.37 C70 44.27, 69.48 88.89, 68.88 130.58 M70.02 132.37 C51.98 128.4, 34.91 130.35, 0.47 132.34 M69.88 130.66 C49.19 130.14, 29.71 130.94, 0.19 129.95 M0.91 130.24 C-0.09 97.93, -0.81 64.32, 0.92 -1.18 M-0.92 131.1 C-2.09 102.21, -0.21 75.89, -0.82 0.64" stroke="#000000" stroke-width="1" fill="none"></path></g><g transform="translate(89.1565289835159 272.81041520421496) rotate(0 73 14.5)"><text x="0" y="21" font-family="Virgil, Segoe UI Emoji" font-size="20px" fill="#000000" text-anchor="start" style="white-space: pre;" direction="ltr">3 睡眠时枕颞叶</text></g><g stroke-linecap="round"><g transform="translate(153.36478393655915 112.49016772358056) rotate(0 -0.3706710389151624 43.07541901060805)"><path d="M0.53 -0.4 C0.33 14.28, -0.36 73.12, -0.55 87.81 M-0.65 -1.66 C-1.02 12.67, -1.17 70.74, -1.27 85.88" stroke="#000000" stroke-width="1" fill="none"></path></g><g transform="translate(153.36478393655915 112.49016772358056) rotate(0 -0.3706710389151624 43.07541901060805)"><path d="M-12.07 58.37 C-7.24 68.16, -3.78 78.6, 0.58 84.62 M-11.45 58.11 C-7.83 68.34, -4.39 78.14, -0.37 85.51" stroke="#000000" stroke-width="1" fill="none"></path></g><g transform="translate(153.36478393655915 112.49016772358056) rotate(0 -0.3706710389151624 43.07541901060805)"><path d="M8.45 58.47 C6.01 68.31, 2.21 78.72, 0.58 84.62 M9.07 58.21 C5.48 68.54, 1.71 78.32, -0.37 85.51" stroke="#000000" stroke-width="1" fill="none"></path></g></g><g stroke-linecap="round"><g transform="translate(164.83006300495634 265.19341641353043) rotate(0 -4.041232927279864 -36.2531941358433)"><path d="M-0.11 0.39 C-1.17 -11.81, -5.87 -60.74, -6.8 -72.9 M-1.62 -0.44 C-2.85 -12.46, -7.23 -58.95, -7.98 -71.33" stroke="#000000" stroke-width="1" fill="none"></path></g><g transform="translate(164.83006300495634 265.19341641353043) rotate(0 -4.041232927279864 -36.2531941358433)"><path d="M5.15 -44.77 C1.22 -50.2, -1.55 -57.58, -9.14 -71.04 M4.01 -43.9 C-0.26 -54.16, -4.31 -64.25, -8.96 -71.56" stroke="#000000" stroke-width="1" fill="none"></path></g><g transform="translate(164.83006300495634 265.19341641353043) rotate(0 -4.041232927279864 -36.2531941358433)"><path d="M-15.31 -43.14 C-13.8 -48.98, -11.13 -56.8, -9.14 -71.04 M-16.45 -42.28 C-13.18 -53, -9.67 -63.69, -8.96 -71.56" stroke="#000000" stroke-width="1" fill="none"></path></g></g><g transform="translate(10 165.24181753429036) rotate(0 77 28.5)"><text x="0" y="21.5" font-family="Virgil, Segoe UI Emoji" font-size="20px" fill="#000000" text-anchor="start" style="white-space: pre;" direction="ltr">4困倦则夹在中间</text><text x="0" y="50" font-family="Virgil, Segoe UI Emoji" font-size="20px" fill="#000000" text-anchor="start" style="white-space: pre;" direction="ltr">颞顶叶</text></g></svg>