<svg version="1.1" xmlns="http://www.w3.org/2000/svg" viewBox="0 0 669.0875087232375 252.56486994714578" width="1338.175017446475" height="505.12973989429156">
  <!-- svg-source:excalidraw -->
  
  <defs>
    <style>
      @font-face {
        font-family: "Virgil";
        src: url("https://excalidraw.com/Virgil.woff2");
      }
      @font-face {
        font-family: "Cascadia";
        src: url("https://excalidraw.com/Cascadia.woff2");
      }
    </style>
  </defs>
  <rect x="0" y="0" width="669.0875087232375" height="252.56486994714578" fill="#fdf6e3"></rect><g transform="translate(10 101.35063794004554) rotate(0 110.5 28)"><text x="221" y="21" font-family="Cascadia, Segoe UI Emoji" font-size="20px" fill="#000000" text-anchor="end" style="white-space: pre;" direction="ltr">如何记忆哪些检查与指标</text><text x="221" y="49" font-family="Cascadia, Segoe UI Emoji" font-size="20px" fill="#000000" text-anchor="end" style="white-space: pre;" direction="ltr">能反应上尿路感染</text></g><g stroke-linecap="round"><g transform="translate(239.67905946612495 123.24614602446854) rotate(0 64.56677179135613 -38.113619283364756)"><path d="M-0.96 -0.55 C20.38 -13.18, 106.41 -63.6, 127.93 -76.05 M0.74 1.77 C22.45 -11.2, 108.43 -64.86, 130.09 -78" stroke="#000000" stroke-width="1" fill="none"></path></g><g transform="translate(239.67905946612495 123.24614602446854) rotate(0 64.56677179135613 -38.113619283364756)"><path d="M110.55 -56.24 C117.51 -62.47, 124.22 -69.39, 128.88 -79.37 M111.8 -53.48 C116.91 -62.02, 124.02 -69.8, 129.71 -77.13" stroke="#000000" stroke-width="1" fill="none"></path></g><g transform="translate(239.67905946612495 123.24614602446854) rotate(0 64.56677179135613 -38.113619283364756)"><path d="M99.78 -73.71 C109.83 -74.78, 119.67 -76.62, 128.88 -79.37 M101.04 -70.95 C109.7 -73.55, 120.41 -75.49, 129.71 -77.13" stroke="#000000" stroke-width="1" fill="none"></path></g></g><g stroke-linecap="round"><g transform="translate(238.90228094869394 146.5555267348243) rotate(0 77.26908510739418 30.20156595247954)"><path d="M-0.85 0.57 C25.21 10.49, 129.36 49.46, 155.39 59.62 M0.9 -0.17 C26.93 9.84, 129.04 50.6, 154.69 60.57" stroke="#000000" stroke-width="1" fill="none"></path></g><g transform="translate(238.90228094869394 146.5555267348243) rotate(0 77.26908510739418 30.20156595247954)"><path d="M125.66 60.56 C129.4 60.89, 139.18 59.33, 153.65 61.26 M124.29 60.46 C135.06 59.73, 144.58 59.46, 154.84 61.2" stroke="#000000" stroke-width="1" fill="none"></path></g><g transform="translate(238.90228094869394 146.5555267348243) rotate(0 77.26908510739418 30.20156595247954)"><path d="M133.19 41.47 C135.31 45.92, 143.44 48.53, 153.65 61.26 M131.82 41.37 C140.07 46.76, 147.16 52.66, 154.84 61.2" stroke="#000000" stroke-width="1" fill="none"></path></g></g><g transform="translate(241.37067203539448 82.84401345309925) rotate(0 70.04141797327969 9.708711402236759)"><text x="140.08283594655938" y="15.417422804473588" font-family="Cascadia, Segoe UI Emoji" font-size="13.869587717481132px" fill="#000000" text-anchor="end" style="white-space: pre;" direction="ltr">上尿路特有的物或表现</text></g><g transform="translate(244.54790696545706 156.6211750866487) rotate(0 63.994894041685484 11.06084588374813)"><text x="127.98978808337094" y="17.121691767496216" font-family="Cascadia, Segoe UI Emoji" font-size="15.801208405354435px" fill="#000000" text-anchor="end" style="white-space: pre;" direction="ltr">排除下尿路的干扰</text></g><g transform="translate(320.91872938097106 214.56486994714578) rotate(0 101 14)"><text x="202" y="21" font-family="Cascadia, Segoe UI Emoji" font-size="20px" fill="#000000" text-anchor="end" style="white-space: pre;" direction="ltr">膀胱灌洗后再做尿培养</text></g><g transform="translate(375.08750872323753 10) rotate(0 142 14)"><text x="284" y="21" font-family="Cascadia, Segoe UI Emoji" font-size="20px" fill="#000000" text-anchor="end" style="white-space: pre;" direction="ltr">物质:NAG,β二微球,白细胞管型</text></g><g transform="translate(374.3050387627444 47.25815685040834) rotate(0 87 14)"><text x="174" y="21" font-family="Cascadia, Segoe UI Emoji" font-size="20px" fill="#000000" text-anchor="end" style="white-space: pre;" direction="ltr">功能:低渗低比重尿</text></g></svg>