<svg version="1.1" xmlns="http://www.w3.org/2000/svg" viewBox="0 0 527.8477351065344 548.677378939384" width="1055.6954702130688" height="1097.354757878768">
  <!-- svg-source:excalidraw -->
  
  <defs>
    <style>
      @font-face {
        font-family: "Virgil";
        src: url("https://excalidraw.com/Virgil.woff2");
      }
      @font-face {
        font-family: "Cascadia";
        src: url("https://excalidraw.com/Cascadia.woff2");
      }
    </style>
  </defs>
  <rect x="0" y="0" width="527.8477351065344" height="548.677378939384" fill="#fdf6e3"></rect><g transform="translate(10 257.18311005349983) rotate(0 41 14.5)"><text x="0" y="21" font-family="Virgil, Segoe UI Emoji" font-size="20px" fill="#000000" text-anchor="start" style="white-space: pre;" direction="ltr">玻璃样变</text></g><g stroke-linecap="round"><g transform="translate(74.11853750352378 249.62273086842256) rotate(0 94.37481200545751 -44.771269710971225)"><path d="M-0.55 -0.43 C30.59 -15.22, 155.71 -72.97, 187.03 -87.6 M1.35 -1.7 C32.87 -16.28, 158.47 -74.35, 189.3 -89.11" stroke="#000000" stroke-width="1" fill="none"></path></g><g transform="translate(74.11853750352378 249.62273086842256) rotate(0 94.37481200545751 -44.771269710971225)"><path d="M167.42 -69.25 C176.46 -75.19, 182.06 -80.75, 187.9 -89.85 M168.21 -67.38 C172.11 -71.63, 176.2 -77.91, 189.89 -89.68" stroke="#000000" stroke-width="1" fill="none"></path></g><g transform="translate(74.11853750352378 249.62273086842256) rotate(0 94.37481200545751 -44.771269710971225)"><path d="M158.71 -87.83 C170.63 -87.95, 178.94 -87.73, 187.9 -89.85 M159.49 -85.96 C165.36 -86.22, 171.34 -88.5, 189.89 -89.68" stroke="#000000" stroke-width="1" fill="none"></path></g></g><g stroke-linecap="round"><g transform="translate(103.97546004110905 264.57782066746614) rotate(0 77.9950361943844 7.018680335371059)"><path d="M0.7 -0.68 C26.58 1.78, 128.31 10.99, 154.06 13.76 M-0.38 1.58 C25.98 4.23, 130.53 12.62, 156.37 14.72" stroke="#000000" stroke-width="1" fill="none"></path></g><g transform="translate(103.97546004110905 264.57782066746614) rotate(0 77.9950361943844 7.018680335371059)"><path d="M126.31 21.42 C131.53 21.56, 141.02 18.71, 156.33 13.9 M127.88 23.49 C134.78 20.4, 142.31 18.87, 156.11 14.71" stroke="#000000" stroke-width="1" fill="none"></path></g><g transform="translate(103.97546004110905 264.57782066746614) rotate(0 77.9950361943844 7.018680335371059)"><path d="M127.97 0.96 C132.68 5.26, 141.84 6.55, 156.33 13.9 M129.53 3.03 C135.86 5.49, 142.95 9.49, 156.11 14.71" stroke="#000000" stroke-width="1" fill="none"></path></g></g><g stroke-linecap="round"><g transform="translate(96.3698445913326 289.80137894138295) rotate(0 70.2722979161958 65.75149402322366)"><path d="M-0.2 -0.3 C23.58 21.72, 118.64 109.74, 142.31 131.9 M-1.76 -1.5 C21.93 20.67, 117.77 110.44, 141.56 133" stroke="#000000" stroke-width="1" fill="none"></path></g><g transform="translate(96.3698445913326 289.80137894138295) rotate(0 70.2722979161958 65.75149402322366)"><path d="M113.51 121.78 C119.99 124.19, 128.59 127.31, 140.75 132.97 M114.73 121.57 C124.76 125.78, 133.04 129.46, 142.06 132.72" stroke="#000000" stroke-width="1" fill="none"></path></g><g transform="translate(96.3698445913326 289.80137894138295) rotate(0 70.2722979161958 65.75149402322366)"><path d="M127.58 106.84 C130.26 113.23, 135.08 120.37, 140.75 132.97 M128.8 106.63 C133.68 116.18, 136.91 125.23, 142.06 132.72" stroke="#000000" stroke-width="1" fill="none"></path></g></g><g transform="translate(281.35444016905643 149.85463041331082) rotate(0 41 14.5)"><text x="0" y="21" font-family="Virgil, Segoe UI Emoji" font-size="20px" fill="#000000" text-anchor="start" style="white-space: pre;" direction="ltr">结缔组织</text></g><g transform="translate(287.84672944929235 266.0666085295349) rotate(0 21 14.5)"><text x="0" y="21" font-family="Virgil, Segoe UI Emoji" font-size="20px" fill="#000000" text-anchor="start" style="white-space: pre;" direction="ltr">细胞</text></g><g transform="translate(248.71265797811722 413.1541484150923) rotate(0 21 14.5)"><text x="0" y="21" font-family="Virgil, Segoe UI Emoji" font-size="20px" fill="#000000" text-anchor="start" style="white-space: pre;" direction="ltr">血管</text></g><g transform="translate(165.7916909808559 209.3181990047535) rotate(0 21 14.5)"><text x="0" y="21" font-family="Virgil, Segoe UI Emoji" font-size="20px" fill="#000000" text-anchor="start" style="white-space: pre;" direction="ltr">间质</text></g><g transform="translate(162.54554634073793 276.83800751920774) rotate(0 21 14.5)"><text x="0" y="21" font-family="Virgil, Segoe UI Emoji" font-size="20px" fill="#000000" text-anchor="start" style="white-space: pre;" direction="ltr">实质</text></g><g transform="translate(134.6287024357232 350.20087638587427) rotate(0 21 14.5)"><text x="0" y="21" font-family="Virgil, Segoe UI Emoji" font-size="20px" fill="#000000" text-anchor="start" style="white-space: pre;" direction="ltr">血管</text></g><g stroke-linecap="round" transform="translate(273.79554151229536 142.67960276749182) rotate(0 25.258292786144096 24.779014812373646)"><path d="M0.26 0.25 C9.52 0.88, 21.22 -0.94, 48.7 0.75 M-0.78 -0.57 C16.78 -0.87, 33.85 0.09, 51.12 0.21 M49.65 0.72 C51.5 12.95, 49.2 22.86, 50.91 48.18 M50.38 0.45 C51.53 16.93, 51.12 34.46, 49.62 49.51 M49.01 48.82 C32.38 48.78, 14.61 49.21, 0.53 49.31 M49.62 48.66 C34.24 50.05, 17.7 49.05, 0.13 49.45 M-0.19 50.96 C-0.51 35.88, -1.82 26.29, -1.1 0.84 M-0.17 50.21 C1.3 37.74, 0.86 24.87, 0.58 -0.98" stroke="#000000" stroke-width="1" fill="none"></path></g><g stroke-linecap="round"><g transform="translate(311.17485985024706 133.2237770112169) rotate(0 65.47278982455893 -25.770726960984803)"><path d="M0 -0.17 C21.97 -8.61, 110.52 -41.29, 132.4 -49.62 M-1.45 -1.3 C20.34 -9.57, 109.8 -43.48, 131.73 -51.38" stroke="#000000" stroke-width="1" fill="none"></path></g><g transform="translate(311.17485985024706 133.2237770112169) rotate(0 65.47278982455893 -25.770726960984803)"><path d="M108.59 -31.06 C117.9 -39.82, 125.13 -46.47, 129.93 -51.46 M108.12 -32.32 C117.65 -39.35, 126.54 -46.31, 131.99 -51.5" stroke="#000000" stroke-width="1" fill="none"></path></g><g transform="translate(311.17485985024706 133.2237770112169) rotate(0 65.47278982455893 -25.770726960984803)"><path d="M101.45 -50.3 C113.44 -52.28, 123.18 -52.17, 129.93 -51.46 M100.98 -51.56 C113.08 -51.46, 124.6 -51.31, 131.99 -51.5" stroke="#000000" stroke-width="1" fill="none"></path></g></g><g transform="translate(467.49746733197804 59.69514748669798) rotate(0 21 14.5)"><text x="0" y="21" font-family="Virgil, Segoe UI Emoji" font-size="20px" fill="#000000" text-anchor="start" style="white-space: pre;" direction="ltr">斑痕</text></g><g stroke-linecap="round"><g transform="translate(343.2732472207072 277.1232122512672) rotate(0 50.11075362414013 -6.426069610836876)"><path d="M-0.76 0.2 C16.2 -1.66, 83.79 -9.2, 100.98 -11.23 M1.04 -0.73 C17.9 -2.95, 83.06 -11.38, 99.92 -13.06" stroke="#000000" stroke-width="1" fill="none"></path></g><g transform="translate(343.2732472207072 277.1232122512672) rotate(0 50.11075362414013 -6.426069610836876)"><path d="M73.44 0.02 C80.34 -0.66, 85.37 -6.09, 98.21 -11.7 M73.08 0.04 C78.66 -1.51, 83.7 -5.03, 99.93 -13.16" stroke="#000000" stroke-width="1" fill="none"></path></g><g transform="translate(343.2732472207072 277.1232122512672) rotate(0 50.11075362414013 -6.426069610836876)"><path d="M71.07 -20.36 C78.51 -16.26, 84.09 -16.91, 98.21 -11.7 M70.71 -20.34 C76.9 -17.66, 82.43 -16.96, 99.93 -13.16" stroke="#000000" stroke-width="1" fill="none"></path></g></g><g transform="translate(465.4236086931832 236.91671536246497) rotate(0 21 14.5)"><text x="0" y="21" font-family="Virgil, Segoe UI Emoji" font-size="20px" fill="#000000" text-anchor="start" style="white-space: pre;" direction="ltr">小体</text></g><g stroke-linecap="round"><g transform="translate(258.8983727161319 443.1541484150923) rotate(0 73.17323535835995 25.74279062714676)"><path d="M-1.09 -1.07 C23.17 7.82, 120.51 43.6, 145.05 52.56 M0.53 0.98 C25.25 9.55, 123.26 42.3, 147.44 50.56" stroke="#000000" stroke-width="1" fill="none"></path></g><g transform="translate(258.8983727161319 443.1541484150923) rotate(0 73.17323535835995 25.74279062714676)"><path d="M115.66 50.25 C125.46 52.11, 133.32 53.15, 147.76 51.93 M117.2 51.69 C124.03 51.3, 132.47 50.95, 147.9 51.49" stroke="#000000" stroke-width="1" fill="none"></path></g><g transform="translate(258.8983727161319 443.1541484150923) rotate(0 73.17323535835995 25.74279062714676)"><path d="M122.22 30.8 C130.23 37.55, 136.42 43.53, 147.76 51.93 M123.77 32.25 C129.11 36.52, 135.98 40.85, 147.9 51.49" stroke="#000000" stroke-width="1" fill="none"></path></g></g><g transform="translate(395.84773510653446 509.67737893938397) rotate(0 61 14.5)"><text x="0" y="21" font-family="Virgil, Segoe UI Emoji" font-size="20px" fill="#000000" text-anchor="start" style="white-space: pre;" direction="ltr">高血压糖尿病</text></g><g transform="translate(46.36026462239283 175.96628863103876) rotate(0 4 12.5)"><text x="0" y="18" font-family="Virgil, Segoe UI Emoji" font-size="20px" fill="#000000" text-anchor="start" style="white-space: pre;" direction="ltr">1</text></g><g transform="translate(282.1175053957146 87.45093469448477) rotate(0 8 12.5)"><text x="0" y="18" font-family="Virgil, Segoe UI Emoji" font-size="20px" fill="#000000" text-anchor="start" style="white-space: pre;" direction="ltr">2</text></g><g transform="translate(461.7015407862233 10) rotate(0 8 12.5)"><text x="0" y="18" font-family="Virgil, Segoe UI Emoji" font-size="20px" fill="#000000" text-anchor="start" style="white-space: pre;" direction="ltr">3</text></g></svg>