<svg version="1.1" xmlns="http://www.w3.org/2000/svg" viewBox="0 0 1224.2168686270145 616.436909325746" width="2448.433737254029" height="1232.873818651492">
  <!-- svg-source:excalidraw -->
  
  <defs>
    <style>
      @font-face {
        font-family: "Virgil";
        src: url("https://excalidraw.com/Virgil.woff2");
      }
      @font-face {
        font-family: "Cascadia";
        src: url("https://excalidraw.com/Cascadia.woff2");
      }
    </style>
  </defs>
  <rect x="0" y="0" width="1224.2168686270145" height="616.436909325746" fill="#fdf6e3"></rect><g transform="translate(64.35874765040353 56.36863161890119) rotate(0 311.5 30)"><text x="0" y="44" font-family="Virgil, Segoe UI Emoji" font-size="41.4740527955117px" fill="#c92a2a" text-anchor="start" style="white-space: pre;" direction="ltr">如何记忆CAP对乳糖操纵子的影响</text></g><g stroke-linecap="round"><g transform="translate(157.47119933398517 291.5779207698138) rotate(0 409.7081046764254 -7.208215680460098)"><path d="M-0.42 -0.91 C136.38 -3.66, 683.02 -13.22, 819.83 -15.65 M1.56 1.23 C138.29 -1.44, 682.54 -11.82, 818.97 -14.41" stroke="#000000" stroke-width="1" fill="none"></path></g></g><g transform="translate(282.27975262770667 273.6389475375249) rotate(0 6.5 12.5)"><text x="0" y="18" font-family="Virgil, Segoe UI Emoji" font-size="20px" fill="#000000" text-anchor="start" style="white-space: pre;" direction="ltr">I</text></g><g transform="translate(432.1979780372003 271.9360775143318) rotate(0 7.5 12.5)"><text x="0" y="18" font-family="Virgil, Segoe UI Emoji" font-size="20px" fill="#000000" text-anchor="start" style="white-space: pre;" direction="ltr">C</text></g><g transform="translate(498.2246838465089 270.1631665647351) rotate(0 7.5 12.5)"><text x="0" y="18" font-family="Virgil, Segoe UI Emoji" font-size="20px" fill="#000000" text-anchor="start" style="white-space: pre;" direction="ltr">P</text></g><g transform="translate(557.1597458574299 265.3259650849709) rotate(0 8.5 12.5)"><text x="0" y="18" font-family="Virgil, Segoe UI Emoji" font-size="20px" fill="#000000" text-anchor="start" style="white-space: pre;" direction="ltr">O</text></g><g transform="translate(667.745613533274 265.3215875270703) rotate(0 9 12.5)"><text x="0" y="18" font-family="Virgil, Segoe UI Emoji" font-size="20px" fill="#000000" text-anchor="start" style="white-space: pre;" direction="ltr">Z</text></g><g transform="translate(762.7692628737672 267.18204963467315) rotate(0 6.5 12.5)"><text x="0" y="18" font-family="Virgil, Segoe UI Emoji" font-size="20px" fill="#000000" text-anchor="start" style="white-space: pre;" direction="ltr">Y</text></g><g transform="translate(854.8818362106016 264.1396468940061) rotate(0 7.5 12.5)"><text x="0" y="18" font-family="Virgil, Segoe UI Emoji" font-size="20px" fill="#000000" text-anchor="start" style="white-space: pre;" direction="ltr">A</text></g><g stroke-linecap="round" transform="translate(10 10) rotate(0 602.1084343135072 298.218454662873)"><path d="M-0.43 -0.5 C358.07 -1.94, 716.84 -1.77, 1204.82 0.28 M0.23 0.37 C379.3 4.91, 757.83 4.37, 1204.46 0.37 M1204.06 -0.62 C1202.88 120.61, 1203.67 241.9, 1204.09 595.68 M1204.17 0.11 C1204.29 195.24, 1204.35 389.72, 1204.54 596.46 M1203.78 595.67 C799.29 591.89, 395.61 592.19, -0.68 595.75 M1204.6 596.41 C772.01 600.55, 340.24 600.62, -0.07 596.68 M0.75 595.95 C0.59 400.21, 0.29 205.12, 0.78 0.62 M0.3 596.47 C-1.26 417.51, -1.17 237.75, -0.17 -0.11" stroke="#c92a2a" stroke-width="1" fill="none"></path></g><g transform="translate(198.45609056350713 450.718454662873) rotate(0 20.5 12.5)"><text x="0" y="18" font-family="Virgil, Segoe UI Emoji" font-size="20px" fill="#000000" text-anchor="start" style="white-space: pre;" direction="ltr">CAP</text></g><g transform="translate(44.57327806350713 464.04072028787334) rotate(0 20.820312499999943 65.06347656249984)"><text x="0" y="90.12695312499969" font-family="Virgil, Segoe UI Emoji" font-size="104.10156249999969px" fill="#c92a2a" text-anchor="start" style="white-space: pre;" direction="ltr">1</text></g><g transform="translate(76.18830626963427 515.8813661330922) rotate(0 136.5 14.5)"><text x="0" y="21" font-family="Virgil, Segoe UI Emoji" font-size="20px" fill="#000000" text-anchor="start" style="white-space: pre;" direction="ltr">首先知道CAP必须与cAMP结合</text></g><g transform="translate(303.10843431350713 380.991892162873) rotate(0 50.5 12.5)"><text x="0" y="18" font-family="Virgil, Segoe UI Emoji" font-size="20px" fill="#c92a2a" text-anchor="start" style="white-space: pre;" direction="ltr">CAP-cAMP</text></g><g stroke-linecap="round"><g transform="translate(232.90530931350713 447.027048412873) rotate(0 43.330774863585816 -19.389668435677876)"><path d="M0.31 0.84 C14.96 -5.71, 73.15 -31.28, 87.65 -38.11 M-0.99 0.24 C13.58 -6.11, 72.38 -33.04, 87 -39.62" stroke="#000000" stroke-width="1" fill="none"></path></g><g transform="translate(232.90530931350713 447.027048412873) rotate(0 43.330774863585816 -19.389668435677876)"><path d="M66.98 -17.68 C73.24 -24.03, 75.8 -30.01, 85.75 -39.91 M66.28 -18.27 C73.26 -25.05, 80.08 -32.66, 87.23 -39.67" stroke="#000000" stroke-width="1" fill="none"></path></g><g transform="translate(232.90530931350713 447.027048412873) rotate(0 43.330774863585816 -19.389668435677876)"><path d="M58.49 -36.36 C67.28 -37.57, 72.2 -38.38, 85.75 -39.91 M57.79 -36.95 C67.54 -37.3, 77.26 -38.51, 87.23 -39.67" stroke="#000000" stroke-width="1" fill="none"></path></g></g><g stroke-linecap="round"><g transform="translate(384.04593431350713 371.773142162873) rotate(0 29.191995278829722 -35.44339507677592)"><path d="M1.12 0.6 C10.82 -11.09, 48.69 -57.8, 58.14 -69.92 M0.24 -0.13 C9.86 -12.15, 48.1 -59.61, 57.61 -71.49" stroke="#000000" stroke-width="1" fill="none"></path></g><g transform="translate(384.04593431350713 371.773142162873) rotate(0 29.191995278829722 -35.44339507677592)"><path d="M48.95 -41.77 C52.52 -50.76, 51.69 -61.11, 59.44 -70.95 M47.07 -43.44 C51.22 -51.81, 52.99 -59.99, 57.16 -70.5" stroke="#000000" stroke-width="1" fill="none"></path></g><g transform="translate(384.04593431350713 371.773142162873) rotate(0 29.191995278829722 -35.44339507677592)"><path d="M32.95 -54.62 C41.26 -59.98, 45.15 -66.54, 59.44 -70.95 M31.07 -56.29 C39.64 -61.16, 45.93 -65.7, 57.16 -70.5" stroke="#000000" stroke-width="1" fill="none"></path></g></g><g transform="translate(33.92484056350713 333.859079662873) rotate(0 39.476640625000016 61.68225097656247)"><text x="0" y="86.36450195312494" font-family="Virgil, Segoe UI Emoji" font-size="98.69160156249994px" fill="#c92a2a" text-anchor="start" style="white-space: pre;" direction="ltr">2</text></g><g transform="translate(101.8215814745156 374.4789104241057) rotate(0 77 14.5)"><text x="0" y="21" font-family="Virgil, Segoe UI Emoji" font-size="20px" fill="#000000" text-anchor="start" style="white-space: pre;" direction="ltr">葡糖多时cAMP少</text></g><g transform="translate(437.54656683455914 325.07021376308205) rotate(0 74 14.5)"><text x="0" y="21" font-family="Virgil, Segoe UI Emoji" font-size="20px" fill="#000000" text-anchor="start" style="white-space: pre;" direction="ltr">RNApol活性升高</text></g></svg>