<svg version="1.1" xmlns="http://www.w3.org/2000/svg" viewBox="0 0 304.0078125 249.90322618569624" width="608.015625" height="499.8064523713925">
  <!-- svg-source:excalidraw -->
  
  <defs>
    <style>
      @font-face {
        font-family: "Virgil";
        src: url("https://excalidraw.com/Virgil.woff2");
      }
      @font-face {
        font-family: "Cascadia";
        src: url("https://excalidraw.com/Cascadia.woff2");
      }
    </style>
  </defs>
  <rect x="0" y="0" width="304.0078125" height="249.90322618569624" fill="#fdf6e3"></rect><g stroke-linecap="round" transform="translate(10 36.03603868569624) rotate(0 142.00390625 101.93359375)"><path d="M168.68 1.83 C184.38 2.14, 202.16 7.85, 216.25 13.93 C230.33 20.02, 243.17 29.1, 253.2 38.34 C263.23 47.58, 271.28 58.51, 276.42 69.36 C281.56 80.21, 284.39 91.82, 284.04 103.46 C283.7 115.1, 280.3 128.23, 274.36 139.2 C268.41 150.16, 259.06 160.71, 248.37 169.24 C237.67 177.77, 224.39 184.68, 210.18 190.37 C195.98 196.07, 179.22 201.63, 163.15 203.41 C147.09 205.2, 129.38 203.38, 113.78 201.08 C98.19 198.78, 83.41 195.41, 69.58 189.62 C55.76 183.82, 41.03 175.44, 30.83 166.31 C20.63 157.17, 13.58 145.8, 8.41 134.78 C3.23 123.76, -0.35 111.61, -0.23 100.18 C-0.12 88.76, 3.1 77.22, 9.07 66.21 C15.05 55.2, 25.05 42.87, 35.6 34.12 C46.15 25.36, 58.47 19.32, 72.37 13.7 C86.28 8.07, 100.37 1.78, 119.02 0.34 C137.66 -1.09, 170.91 3.51, 184.26 5.06 C197.62 6.62, 199.73 8, 199.14 9.68 M151.45 1.04 C166.95 -0.07, 182.61 4.43, 197.07 8.9 C211.53 13.37, 226.23 20, 238.2 27.85 C250.16 35.7, 261.63 45.79, 268.87 56.01 C276.12 66.22, 279.92 77.67, 281.67 89.16 C283.41 100.66, 283.07 113.47, 279.36 124.96 C275.64 136.46, 267.93 148.17, 259.39 158.12 C250.85 168.08, 241.06 177.67, 228.1 184.72 C215.14 191.76, 197.2 197.09, 181.65 200.38 C166.11 203.67, 150.67 205.35, 134.83 204.45 C118.99 203.54, 101.46 199.78, 86.62 194.93 C71.77 190.08, 57.81 182.94, 45.76 175.33 C33.71 167.72, 21.72 159.34, 14.29 149.27 C6.87 139.21, 3.05 126.92, 1.21 114.96 C-0.62 103.01, -0.19 88.98, 3.29 77.54 C6.77 66.1, 13.09 55.9, 22.1 46.31 C31.11 36.73, 44.3 26.89, 57.34 20.02 C70.38 13.16, 85.09 8.27, 100.33 5.1 C115.57 1.94, 140.58 1.76, 148.78 1.05 C156.98 0.35, 149.44 -0.74, 149.5 0.89" stroke="#000000" stroke-width="1" fill="none"></path></g><g stroke-linecap="round" transform="translate(120.4921875 89.48916368569624) rotate(0 25.482421875 25.24609375)"><path d="M14.86 1.78 C19.42 -0.83, 26.73 -0.22, 31.99 1.26 C37.26 2.74, 43.38 6.29, 46.46 10.66 C49.54 15.02, 50.98 22.25, 50.47 27.47 C49.96 32.7, 46.92 38.18, 43.39 42.01 C39.87 45.85, 34.54 49.82, 29.33 50.48 C24.11 51.14, 16.93 49.11, 12.1 45.98 C7.27 42.84, 1.98 36.76, 0.34 31.66 C-1.29 26.57, -0.35 20.47, 2.28 15.4 C4.91 10.32, 13.31 3.68, 16.13 1.22 C18.95 -1.25, 18.93 0.18, 19.21 0.61 M14.74 2.58 C19.13 0.19, 25.8 0.29, 30.96 1.77 C36.13 3.25, 42.16 7.28, 45.72 11.47 C49.28 15.66, 52.44 21.72, 52.32 26.92 C52.19 32.13, 49.01 38.67, 44.97 42.7 C40.94 46.74, 33.78 50.51, 28.1 51.13 C22.42 51.75, 15.56 49.44, 10.91 46.44 C6.27 43.44, 1.71 38.58, 0.23 33.12 C-1.25 27.67, -0.52 19, 2.03 13.72 C4.59 8.45, 13.28 3.05, 15.55 1.46 C17.82 -0.13, 15.57 3.83, 15.64 4.18" stroke="#000000" stroke-width="1" fill="none"></path></g><g stroke-linecap="round"><g transform="translate(85.11328125 102.45791368569624) rotate(0 72.48031600966475 21.27934676238472)"><path d="M0.87 -0.33 C6.96 -5.28, 26.36 -21.18, 35.76 -28.46 C45.16 -35.75, 50.93 -45.68, 57.28 -44.04 C63.63 -42.4, 65.34 -21.68, 73.86 -18.61 C82.39 -15.54, 102.27 -27.12, 108.44 -25.62 C114.6 -24.12, 110.54 -16.43, 110.83 -9.61 C111.12 -2.78, 104.49 8.49, 110.19 15.35 C115.89 22.21, 146.82 25.88, 145.02 31.56 C143.22 37.25, 106.8 42.32, 99.39 49.46 C91.99 56.61, 106.71 72.07, 100.59 74.44 C94.48 76.81, 74.82 69.11, 62.68 63.7 C50.54 58.28, 35.08 38.23, 27.75 41.95 C20.42 45.68, 23.22 93.14, 18.72 86.06 C14.22 78.98, 3.79 14.01, 0.75 -0.51 M-0.14 -1.56 C6.42 -6.34, 28.15 -23.36, 38.12 -30.24 C48.09 -37.13, 53.64 -44.96, 59.68 -42.87 C65.71 -40.78, 66.42 -20.66, 74.35 -17.68 C82.29 -14.7, 101.5 -26.24, 107.29 -25 C113.08 -23.76, 109.05 -16.74, 109.1 -10.21 C109.15 -3.68, 101.77 7.2, 107.6 14.19 C113.43 21.19, 145.68 25.55, 144.08 31.77 C142.48 37.99, 105.07 44.37, 98 51.5 C90.93 58.64, 107.57 72.41, 101.67 74.56 C95.77 76.72, 75.07 69.88, 62.59 64.45 C50.12 59.03, 34.13 38.46, 26.82 42.01 C19.51 45.57, 23.14 92.94, 18.74 85.78 C14.34 78.61, 3.38 13.08, 0.43 -0.97" stroke="#000000" stroke-width="1" fill="none"></path></g></g><g stroke-linecap="round"><g transform="translate(132.96369000300538 188.64155848036978) rotate(0 23.232821364887606 -84.50802774156006)"><path d="M-0.34 -0.84 C2.38 -8.02, 12.53 -28.57, 16.2 -42.41 C19.87 -56.25, 16.6 -62.56, 21.7 -83.88 C26.8 -105.2, 42.72 -156.04, 46.8 -170.35 M1.68 1.33 C4.32 -5.73, 12.38 -26.54, 15.65 -41.05 C18.91 -55.56, 16.55 -64.26, 21.27 -85.71 C26 -107.16, 40.04 -155.78, 43.99 -169.75" stroke="#000000" stroke-width="1" fill="none"></path></g><g transform="translate(132.96369000300538 188.64155848036978) rotate(0 23.232821364887606 -84.50802774156006)"><path d="M44.75 -138.58 C44.81 -147.43, 46.35 -155.27, 42.41 -168.84 M45.53 -139.47 C46.36 -148.58, 45.41 -156.54, 44.75 -169.52" stroke="#000000" stroke-width="1" fill="none"></path></g><g transform="translate(132.96369000300538 188.64155848036978) rotate(0 23.232821364887606 -84.50802774156006)"><path d="M25.01 -144.19 C30.82 -151.36, 38.09 -157.57, 42.41 -168.84 M25.8 -145.09 C32.04 -152.63, 36.49 -159.06, 44.75 -169.52" stroke="#000000" stroke-width="1" fill="none"></path></g></g><g transform="translate(144.55603896301483 187.6574000315058) rotate(0 5.72395283593318 17.88735261229118)"><text x="0" y="25.774705224582362" font-family="Virgil, Segoe UI Emoji" font-size="28.619764179665914px" fill="#c92a2a" text-anchor="start" style="white-space: pre;" direction="ltr">1</text></g><g transform="translate(168.42122007015462 135.728330295983) rotate(0 8 12.5)"><text x="0" y="18" font-family="Virgil, Segoe UI Emoji" font-size="20px" fill="#c92a2a" text-anchor="start" style="white-space: pre;" direction="ltr">2</text></g><g transform="translate(179.0926603792485 47.09847017069191) rotate(0 8 12.5)"><text x="0" y="18" font-family="Virgil, Segoe UI Emoji" font-size="20px" fill="#c92a2a" text-anchor="start" style="white-space: pre;" direction="ltr">3</text></g><g transform="translate(101.4879778267458 194.91670387775784) rotate(0 7.5 12.5)"><text x="0" y="18" font-family="Virgil, Segoe UI Emoji" font-size="20px" fill="#c92a2a" text-anchor="start" style="white-space: pre;" direction="ltr">C</text></g><g transform="translate(143.11033014617652 107.73474969516656) rotate(0 21 14.5)"><text x="0" y="21" font-family="Virgil, Segoe UI Emoji" font-size="20px" fill="#c92a2a" text-anchor="start" style="white-space: pre;" direction="ltr">不定</text></g><g transform="translate(141.38119209321036 10) rotate(0 17.5 14.5)"><text x="0" y="21" font-family="Virgil, Segoe UI Emoji" font-size="20px" fill="#c92a2a" text-anchor="start" style="white-space: pre;" direction="ltr">N端</text></g></svg>