<svg version="1.1" xmlns="http://www.w3.org/2000/svg" viewBox="0 0 917.8459043718245 294.1262575088383" width="1835.691808743649" height="588.2525150176766">
  <!-- svg-source:excalidraw -->
  
  <defs>
    <style>
      @font-face {
        font-family: "Virgil";
        src: url("https://excalidraw.com/Virgil.woff2");
      }
      @font-face {
        font-family: "Cascadia";
        src: url("https://excalidraw.com/Cascadia.woff2");
      }
    </style>
  </defs>
  <rect x="0" y="0" width="917.8459043718245" height="294.1262575088383" fill="#fdf6e3"></rect><g transform="translate(10 136.2151114098274) rotate(0 121 14.5)"><text x="0" y="21" font-family="Virgil, Segoe UI Emoji" font-size="20px" fill="#000000" text-anchor="start" style="white-space: pre;" direction="ltr">颈椎屈曲型骨折的临床思维</text></g><g transform="translate(344.7502986316167 61.062112638390374) rotate(0 31 14.5)"><text x="0" y="21" font-family="Virgil, Segoe UI Emoji" font-size="20px" fill="#000000" text-anchor="start" style="white-space: pre;" direction="ltr">无脱位</text></g><g stroke-linecap="round"><g transform="translate(256.4306561320752 146.87032403515818) rotate(0 50.993640424041075 -30.172115718259178)"><path d="M1.08 -0.47 C18.16 -10.27, 84.99 -48.39, 101.79 -58.09 M0.2 -1.77 C17.12 -11.98, 83.8 -50.61, 100.59 -59.87" stroke="#000000" stroke-width="1" fill="none"></path></g><g transform="translate(256.4306561320752 146.87032403515818) rotate(0 50.993640424041075 -30.172115718259178)"><path d="M80.35 -37.83 C86.91 -43.51, 90.75 -50.11, 102.51 -60.42 M80.74 -37.13 C84.48 -41.4, 90.06 -46.97, 101.09 -60.52" stroke="#000000" stroke-width="1" fill="none"></path></g><g transform="translate(256.4306561320752 146.87032403515818) rotate(0 50.993640424041075 -30.172115718259178)"><path d="M70.22 -55.67 C79.39 -57.03, 85.73 -59.22, 102.51 -60.42 M70.61 -54.97 C76.71 -55.31, 84.53 -56.96, 101.09 -60.52" stroke="#000000" stroke-width="1" fill="none"></path></g></g><g stroke-linecap="round"><g transform="translate(251.54177094394072 150.96564553179712) rotate(0 43.38122276987792 18.61499275200312)"><path d="M0.96 0.34 C15.49 6.75, 72.5 31.5, 86.75 37.76 M0.01 -0.53 C14.5 5.57, 71.99 29.76, 86.33 35.82" stroke="#000000" stroke-width="1" fill="none"></path></g><g transform="translate(251.54177094394072 150.96564553179712) rotate(0 43.38122276987792 18.61499275200312)"><path d="M56.93 36 C64.98 35.65, 73.27 33.31, 87.08 35.49 M55.62 35.28 C63.88 33.98, 71.37 34.7, 87.09 35.17" stroke="#000000" stroke-width="1" fill="none"></path></g><g transform="translate(251.54177094394072 150.96564553179712) rotate(0 43.38122276987792 18.61499275200312)"><path d="M64.9 17.09 C70.69 21.88, 76.84 24.64, 87.08 35.49 M63.59 16.37 C69.76 19.98, 75.15 25.68, 87.09 35.17" stroke="#000000" stroke-width="1" fill="none"></path></g></g><g transform="translate(337.65009207773187 177.39246011424626) rotate(0 31 14.5)"><text x="0" y="21" font-family="Virgil, Segoe UI Emoji" font-size="20px" fill="#000000" text-anchor="start" style="white-space: pre;" direction="ltr">有脱位</text></g><g stroke-linecap="round"><g transform="translate(405.47029072885596 65.18274260243209) rotate(0 25.859030821454326 -16.72566065383799)"><path d="M-1.09 -0.15 C7.58 -5.58, 43.92 -27.99, 52.81 -33.3 M0.54 -1.27 C9 -6.51, 43.49 -26.75, 51.95 -32.24" stroke="#000000" stroke-width="1" fill="none"></path></g><g transform="translate(405.47029072885596 65.18274260243209) rotate(0 25.859030821454326 -16.72566065383799)"><path d="M33.04 -8.48 C38.7 -17.78, 47.56 -24.76, 51.09 -31.06 M34.1 -7.88 C38.75 -14.89, 42.72 -20.65, 51.62 -32.72" stroke="#000000" stroke-width="1" fill="none"></path></g><g transform="translate(405.47029072885596 65.18274260243209) rotate(0 25.859030821454326 -16.72566065383799)"><path d="M22.3 -25.97 C31.75 -28.83, 44.51 -29.46, 51.09 -31.06 M23.36 -25.38 C30.39 -28.34, 36.88 -30, 51.62 -32.72" stroke="#000000" stroke-width="1" fill="none"></path></g></g><g transform="translate(389.442968403255 10) rotate(0 15.5 12.5)"><text x="0" y="18" font-family="Virgil, Segoe UI Emoji" font-size="20px" fill="#000000" text-anchor="start" style="white-space: pre;" direction="ltr">1/3</text></g><g stroke-linecap="round"><g transform="translate(406.5435998943319 91.49213836964088) rotate(0 26.159012160422208 7.327847410899835)"><path d="M-0.45 -1.07 C8.24 1.39, 43.79 13.1, 52.76 15.73 M1.52 0.98 C9.99 2.99, 43.26 11.36, 51.84 13.81" stroke="#000000" stroke-width="1" fill="none"></path></g><g transform="translate(406.5435998943319 91.49213836964088) rotate(0 26.159012160422208 7.327847410899835)"><path d="M22.7 16.31 C34.85 16.62, 42.89 14.07, 51.91 13.14 M24.02 15.37 C31.12 15.59, 38.5 16.03, 51.94 13.43" stroke="#000000" stroke-width="1" fill="none"></path></g><g transform="translate(406.5435998943319 91.49213836964088) rotate(0 26.159012160422208 7.327847410899835)"><path d="M27.53 -1.84 C38.1 4.91, 44.42 8.83, 51.91 13.14 M28.85 -2.78 C34.58 1.98, 40.75 6.96, 51.94 13.43" stroke="#000000" stroke-width="1" fill="none"></path></g></g><g transform="translate(482.6210476039671 12.344533496217082) rotate(0 40.99999999999994 14.5)"><text x="0" y="21" font-family="Virgil, Segoe UI Emoji" font-size="20px" fill="#000000" text-anchor="start" style="white-space: pre;" direction="ltr">支具固定</text></g><g transform="translate(490.41586026671484 96.62594541217686) rotate(0 21.000000000000057 14.5)"><text x="0" y="21" font-family="Virgil, Segoe UI Emoji" font-size="20px" fill="#000000" text-anchor="start" style="white-space: pre;" direction="ltr">手术</text></g><g transform="translate(425.1343042162026 69.34410109255981) rotate(0 20.5 12.5)"><text x="0" y="18" font-family="Virgil, Segoe UI Emoji" font-size="20px" fill="#000000" text-anchor="start" style="white-space: pre;" direction="ltr">&gt;1/3</text></g><g transform="translate(197.27876111347473 230.87713049669867) rotate(0 81 14.5)"><text x="0" y="21" font-family="Virgil, Segoe UI Emoji" font-size="20px" fill="#000000" text-anchor="start" style="white-space: pre;" direction="ltr">肯定手术考虑术式</text></g><g stroke-linecap="round"><g transform="translate(410.14793953867854 186.6208237664752) rotate(0 74.07833331238157 -16.026035317930265)"><path d="M0.1 0.03 C24.77 -5.19, 122.47 -26.99, 147.36 -32.09 M-1.31 -0.99 C23.78 -5.99, 124.39 -25.53, 149.47 -30.75" stroke="#000000" stroke-width="1" fill="none"></path></g><g transform="translate(410.14793953867854 186.6208237664752) rotate(0 74.07833331238157 -16.026035317930265)"><path d="M123.89 -17.09 C129.51 -17.41, 138.25 -22.96, 151.28 -31.51 M123.09 -15.39 C129.02 -19.29, 134.41 -21.47, 149.9 -31.08" stroke="#000000" stroke-width="1" fill="none"></path></g><g transform="translate(410.14793953867854 186.6208237664752) rotate(0 74.07833331238157 -16.026035317930265)"><path d="M119.87 -37.21 C126.33 -32.66, 136.06 -33.32, 151.28 -31.51 M119.07 -35.51 C125.72 -35.14, 131.98 -33.02, 149.9 -31.08" stroke="#000000" stroke-width="1" fill="none"></path></g></g><g stroke-linecap="round"><g transform="translate(388.004233180029 200.66429816633115) rotate(0 98.77579569177885 22.121217015263042)"><path d="M-0.85 -0.22 C32.27 7.31, 165.28 36.86, 198.4 44.14 M0.91 -1.37 C34 6.43, 165.31 37.98, 198.07 45.62" stroke="#000000" stroke-width="1" fill="none"></path></g><g transform="translate(388.004233180029 200.66429816633115) rotate(0 98.77579569177885 22.121217015263042)"><path d="M167.91 51.06 C176.27 49.45, 183.39 46.29, 196.32 45.27 M168.13 49.94 C175.64 48.84, 182.49 47.78, 197.33 46.43" stroke="#000000" stroke-width="1" fill="none"></path></g><g transform="translate(388.004233180029 200.66429816633115) rotate(0 98.77579569177885 22.121217015263042)"><path d="M172.65 31.09 C179.54 34.92, 185.37 37.25, 196.32 45.27 M172.87 29.98 C179.29 33.84, 184.96 37.74, 197.33 46.43" stroke="#000000" stroke-width="1" fill="none"></path></g></g><g transform="translate(394.0616232695853 152.98419175184333) rotate(0 61 14.5)"><text x="0" y="21" font-family="Virgil, Segoe UI Emoji" font-size="20px" fill="#000000" text-anchor="start" style="white-space: pre;" direction="ltr">无椎间盘突出</text></g><g transform="translate(394.2424111609332 209.0893350436227) rotate(0 60.99999999999994 14.5)"><text x="0" y="21" font-family="Virgil, Segoe UI Emoji" font-size="20px" fill="#000000" text-anchor="start" style="white-space: pre;" direction="ltr">有椎间盘突出</text></g><g transform="translate(557.8301638318295 123.84637294182969) rotate(0 173.5 14.5)"><text x="0" y="21" font-family="Virgil, Segoe UI Emoji" font-size="20px" fill="#000000" text-anchor="start" style="white-space: pre;" direction="ltr">颅骨牵引,前路椎间融合或后路切开复位</text></g><g transform="translate(601.8459043718245 227.1262575088383) rotate(0 153 28.5)"><text x="0" y="21.5" font-family="Virgil, Segoe UI Emoji" font-size="20px" fill="#000000" text-anchor="start" style="white-space: pre;" direction="ltr">切除椎间盘+植骨融合+前路内固定</text><text x="0" y="50" font-family="Virgil, Segoe UI Emoji" font-size="20px" fill="#000000" text-anchor="start" style="white-space: pre;" direction="ltr">+后路切开内固定</text></g></svg>