<svg version="1.1" xmlns="http://www.w3.org/2000/svg" viewBox="0 0 942.2328528080449 622.165435719088" width="1884.4657056160897" height="1244.330871438176">
  <!-- svg-source:excalidraw -->
  
  <defs>
    <style>
      @font-face {
        font-family: "Virgil";
        src: url("https://excalidraw.com/Virgil.woff2");
      }
      @font-face {
        font-family: "Cascadia";
        src: url("https://excalidraw.com/Cascadia.woff2");
      }
    </style>
  </defs>
  <rect x="0" y="0" width="942.2328528080449" height="622.165435719088" fill="#fdf6e3"></rect><g transform="translate(10 288.6038682677124) rotate(0 81 14.5)"><text x="0" y="21" font-family="Virgil, Segoe UI Emoji" font-size="20px" fill="#000000" text-anchor="start" style="white-space: pre;" direction="ltr">腹外疝的治疗策略</text></g><g transform="translate(53.10782424528401 330.8615907498145) rotate(0 41 14.5)"><text x="0" y="21" font-family="Virgil, Segoe UI Emoji" font-size="20px" fill="#000000" text-anchor="start" style="white-space: pre;" direction="ltr">四个层次</text></g><g transform="translate(327.5687529263422 78.42317536823424) rotate(0 41 14.5)"><text x="0" y="21" font-family="Virgil, Segoe UI Emoji" font-size="20px" fill="#000000" text-anchor="start" style="white-space: pre;" direction="ltr">保守治疗</text></g><g transform="translate(337.86055869863424 220.6061792840215) rotate(0 41 14.5)"><text x="0" y="21" font-family="Virgil, Segoe UI Emoji" font-size="20px" fill="#000000" text-anchor="start" style="white-space: pre;" direction="ltr">单纯结扎</text></g><g transform="translate(340.57809712192056 349.50808516190205) rotate(0 41 14.5)"><text x="0" y="21" font-family="Virgil, Segoe UI Emoji" font-size="20px" fill="#000000" text-anchor="start" style="white-space: pre;" direction="ltr">单纯修补</text></g><g transform="translate(319.64608321537685 475.608836049626) rotate(0 61 14.5)"><text x="0" y="21" font-family="Virgil, Segoe UI Emoji" font-size="20px" fill="#000000" text-anchor="start" style="white-space: pre;" direction="ltr">既结扎又修补</text></g><g stroke-linecap="round"><g transform="translate(413.76804628690707 74.3709315905304) rotate(0 41.753508455868015 -24.776199488304627)"><path d="M0.23 -1.08 C14.52 -9.53, 70.36 -42.5, 84.61 -50.52 M-1.11 0.97 C13.1 -7.36, 69.12 -40.69, 83.54 -49.4" stroke="#000000" stroke-width="1" fill="none"></path></g><g transform="translate(413.76804628690707 74.3709315905304) rotate(0 41.753508455868015 -24.776199488304627)"><path d="M62.83 -26.5 C67.19 -29.48, 73.27 -37.37, 82.33 -48.17 M65.29 -25.12 C70.76 -32.11, 76.8 -40.54, 84.14 -50.32" stroke="#000000" stroke-width="1" fill="none"></path></g><g transform="translate(413.76804628690707 74.3709315905304) rotate(0 41.753508455868015 -24.776199488304627)"><path d="M52.28 -44.1 C58.86 -43.46, 67.12 -47.7, 82.33 -48.17 M54.75 -42.73 C63.21 -44.48, 72.36 -47.72, 84.14 -50.32" stroke="#000000" stroke-width="1" fill="none"></path></g></g><g transform="translate(513.922208291391 10) rotate(0 41 14.5)"><text x="0" y="21" font-family="Virgil, Segoe UI Emoji" font-size="20px" fill="#000000" text-anchor="start" style="white-space: pre;" direction="ltr">不用修补</text></g><g transform="translate(416.5472321472513 36.53432388685707) rotate(0 40 14.5)"><text x="0" y="21" font-family="Virgil, Segoe UI Emoji" font-size="20px" fill="#000000" text-anchor="start" style="white-space: pre;" direction="ltr">&lt;1岁小儿</text></g><g stroke-linecap="round"><g transform="translate(420.7538240271693 111.49978763434609) rotate(0 51.76136417813003 9.719134652444978)"><path d="M0.13 -1.13 C17.41 1.99, 85.43 15.52, 102.59 18.98 M-1.26 0.9 C16.47 4.2, 87.55 17.77, 104.78 20.57" stroke="#000000" stroke-width="1" fill="none"></path></g><g transform="translate(420.7538240271693 111.49978763434609) rotate(0 51.76136417813003 9.719134652444978)"><path d="M73.35 24.04 C81.62 23.82, 88.93 24.49, 106.67 20.06 M75.96 25.54 C84.02 24.71, 92.92 22.62, 104.8 20.97" stroke="#000000" stroke-width="1" fill="none"></path></g><g transform="translate(420.7538240271693 111.49978763434609) rotate(0 51.76136417813003 9.719134652444978)"><path d="M76.96 3.84 C84.51 7.9, 91.06 12.84, 106.67 20.06 M79.57 5.33 C86.38 10.8, 94.15 15.03, 104.8 20.97" stroke="#000000" stroke-width="1" fill="none"></path></g></g><g transform="translate(542.0487309724043 117.67723398729055) rotate(0 41 14.5)"><text x="0" y="21" font-family="Virgil, Segoe UI Emoji" font-size="20px" fill="#000000" text-anchor="start" style="white-space: pre;" direction="ltr">无法修补</text></g><g transform="translate(434.681575087258 91.08019767528071) rotate(0 31 14.5)"><text x="0" y="21" font-family="Virgil, Segoe UI Emoji" font-size="20px" fill="#000000" text-anchor="start" style="white-space: pre;" direction="ltr">状态差</text></g><g stroke-linecap="round"><g transform="translate(422.00669715916104 231.1317461264531) rotate(0 56.21420955171962 -19.491472092042983)"><path d="M-0.91 0.95 C17.51 -5.85, 92.22 -33.14, 111.1 -39.94 M0.81 0.41 C19.55 -6.28, 94.86 -31.93, 113.34 -38.41" stroke="#000000" stroke-width="1" fill="none"></path></g><g transform="translate(422.00669715916104 231.1317461264531) rotate(0 56.21420955171962 -19.491472092042983)"><path d="M91.63 -20.99 C97.95 -25.32, 106.2 -31.87, 112.08 -39.73 M90.1 -19.98 C97.59 -25.12, 103.2 -30.83, 113.02 -38.34" stroke="#000000" stroke-width="1" fill="none"></path></g><g transform="translate(422.00669715916104 231.1317461264531) rotate(0 56.21420955171962 -19.491472092042983)"><path d="M84.94 -40.38 C93.72 -37.95, 104.29 -37.76, 112.08 -39.73 M83.4 -39.38 C92.77 -38.81, 100.37 -38.75, 113.02 -38.34" stroke="#000000" stroke-width="1" fill="none"></path></g></g><g transform="translate(439.47907561144416 188.13812767003708) rotate(0 18.5 14.5)"><text x="0" y="21" font-family="Virgil, Segoe UI Emoji" font-size="20px" fill="#000000" text-anchor="start" style="white-space: pre;" direction="ltr">&gt;1岁</text></g><g stroke-linecap="round"><g transform="translate(428.2849077216764 243.9808252355299) rotate(0 46.297016880535075 18.374195749173936)"><path d="M-1.1 -0.75 C14.38 5.51, 77.89 31.14, 93.7 37.5 M0.52 1.47 C15.83 7.36, 77.64 29.37, 93.11 35.61" stroke="#000000" stroke-width="1" fill="none"></path></g><g transform="translate(428.2849077216764 243.9808252355299) rotate(0 46.297016880535075 18.374195749173936)"><path d="M61.86 36.43 C74.9 36.86, 85.75 37.31, 93.25 36.98 M62.4 35.55 C70.37 35.16, 78.93 36.04, 93.76 36.11" stroke="#000000" stroke-width="1" fill="none"></path></g><g transform="translate(428.2849077216764 243.9808252355299) rotate(0 46.297016880535075 18.374195749173936)"><path d="M69.09 17.22 C79.46 24.66, 87.65 32.18, 93.25 36.98 M69.63 16.35 C75.71 20.94, 82.41 26.77, 93.76 36.11" stroke="#000000" stroke-width="1" fill="none"></path></g></g><g transform="translate(431.5947301602944 232.35387142635312) rotate(0 41 14.5)"><text x="0" y="21" font-family="Virgil, Segoe UI Emoji" font-size="20px" fill="#000000" text-anchor="start" style="white-space: pre;" direction="ltr">无法修补</text></g><g transform="translate(556.319291718277 265.73430172571994) rotate(0 91 14.5)"><text x="0" y="21" font-family="Virgil, Segoe UI Emoji" font-size="20px" fill="#000000" text-anchor="start" style="white-space: pre;" direction="ltr">绞窄疝导致修补失败</text></g><g stroke-linecap="round"><g transform="translate(433.0196958207098 359.6225372172211) rotate(0 65.69372668000999 2.889822237247067)"><path d="M-0.5 1.18 C21.52 1.89, 110.15 4.52, 131.89 5.02 M1.44 0.76 C23.42 1.08, 109.72 2.6, 131.55 3.41" stroke="#000000" stroke-width="1" fill="none"></path></g><g transform="translate(433.0196958207098 359.6225372172211) rotate(0 65.69372668000999 2.889822237247067)"><path d="M105.08 14.87 C112.64 9.06, 119.25 7.45, 133.15 4.77 M102.67 13.07 C112.23 9.81, 121.95 6.98, 131.82 4.09" stroke="#000000" stroke-width="1" fill="none"></path></g><g transform="translate(433.0196958207098 359.6225372172211) rotate(0 65.69372668000999 2.889822237247067)"><path d="M105.6 -5.64 C113.16 -5.69, 119.62 -1.55, 133.15 4.77 M103.2 -7.44 C112.59 -3.69, 122.12 0.51, 131.82 4.09" stroke="#000000" stroke-width="1" fill="none"></path></g></g><g transform="translate(469.80401719642373 324.60036480244486) rotate(0 17 14.5)"><text x="0" y="21" font-family="Virgil, Segoe UI Emoji" font-size="20px" fill="#000000" text-anchor="start" style="white-space: pre;" direction="ltr">L法</text></g><g transform="translate(594.67142372281 333.4044924891686) rotate(0 63.5 14.5)"><text x="0" y="21" font-family="Virgil, Segoe UI Emoji" font-size="20px" fill="#000000" text-anchor="start" style="white-space: pre;" direction="ltr">缺点:异物感染</text></g><g stroke-linecap="round"><g transform="translate(454.13636297909227 484.8923484716707) rotate(0 71.60111761846538 -25.863231526148986)"><path d="M-0.86 0.32 C22.68 -8.23, 117.85 -43.55, 141.87 -52.05 M0.9 -0.55 C24.74 -8.94, 120.43 -43, 144.06 -51.11" stroke="#000000" stroke-width="1" fill="none"></path></g><g transform="translate(454.13636297909227 484.8923484716707) rotate(0 71.60111761846538 -25.863231526148986)"><path d="M121.39 -33.76 C127.3 -38.04, 137.85 -46.95, 143.01 -51.08 M121.55 -32.3 C126.41 -38.01, 133.11 -42.74, 144.6 -51.34" stroke="#000000" stroke-width="1" fill="none"></path></g><g transform="translate(454.13636297909227 484.8923484716707) rotate(0 71.60111761846538 -25.863231526148986)"><path d="M114.6 -53.12 C122.8 -50.5, 135.75 -52.55, 143.01 -51.08 M114.76 -51.66 C121.3 -52.36, 129.77 -52.04, 144.6 -51.34" stroke="#000000" stroke-width="1" fill="none"></path></g></g><g transform="translate(488.5341281753816 434.2164579340415) rotate(0 17 14.5)"><text x="0" y="21" font-family="Virgil, Segoe UI Emoji" font-size="20px" fill="#000000" text-anchor="start" style="white-space: pre;" direction="ltr">F法</text></g><g transform="translate(618.7529949814701 412.81061681523244) rotate(0 21 14.5)"><text x="0" y="21" font-family="Virgil, Segoe UI Emoji" font-size="20px" fill="#000000" text-anchor="start" style="white-space: pre;" direction="ltr">前壁</text></g><g stroke-linecap="round"><g transform="translate(445.20332641844345 503.98828193068647) rotate(0 79.27654210898858 5.618380081970486)"><path d="M-0.67 0.22 C26.05 1.87, 132.45 8.82, 159.22 10.58 M1.18 -0.71 C27.84 1.06, 131.88 9.81, 158.28 11.94" stroke="#000000" stroke-width="1" fill="none"></path></g><g transform="translate(445.20332641844345 503.98828193068647) rotate(0 79.27654210898858 5.618380081970486)"><path d="M129.71 19.87 C134.74 19.62, 141.15 16.69, 157.03 13.53 M130.25 20.08 C139.18 17.35, 148.52 15.51, 157.46 11.93" stroke="#000000" stroke-width="1" fill="none"></path></g><g transform="translate(445.20332641844345 503.98828193068647) rotate(0 79.27654210898858 5.618380081970486)"><path d="M131.4 -0.58 C136.19 3.4, 142.26 4.72, 157.03 13.53 M131.94 -0.37 C140.52 3.59, 149.31 8.43, 157.46 11.93" stroke="#000000" stroke-width="1" fill="none"></path></g></g><g transform="translate(492.10176836184985 477.9200502182767) rotate(0 19 14.5)"><text x="0" y="21" font-family="Virgil, Segoe UI Emoji" font-size="20px" fill="#000000" text-anchor="start" style="white-space: pre;" direction="ltr">M法</text></g><g transform="translate(630.2328528080449 492.07563818470265) rotate(0 151 14.5)"><text x="0" y="21" font-family="Virgil, Segoe UI Emoji" font-size="20px" fill="#000000" text-anchor="start" style="white-space: pre;" direction="ltr">大直男反复摸中年女性屁股真可耻</text></g><g stroke-linecap="round"><g transform="translate(419.89886286930437 513.7888403726151) rotate(0 59.065550371041645 44.960704143955404)"><path d="M0.16 -0.78 C19.9 14.18, 99.56 75.49, 119.35 90.7 M-1.22 1.43 C18.29 15.93, 98.53 73.73, 118.39 88.81" stroke="#000000" stroke-width="1" fill="none"></path></g><g transform="translate(419.89886286930437 513.7888403726151) rotate(0 59.065550371041645 44.960704143955404)"><path d="M88.31 80.28 C101.1 82.68, 111.4 87.76, 119.59 88.29 M89.5 80.93 C100.58 83.2, 112.39 87.01, 118.22 88.07" stroke="#000000" stroke-width="1" fill="none"></path></g><g transform="translate(419.89886286930437 513.7888403726151) rotate(0 59.065550371041645 44.960704143955404)"><path d="M100.49 63.76 C108.88 72.31, 114.66 83.54, 119.59 88.29 M101.68 64.41 C108.21 72.86, 115.38 82.95, 118.22 88.07" stroke="#000000" stroke-width="1" fill="none"></path></g></g><g transform="translate(493.88558845508396 533.2184731085335) rotate(0 17 14.5)"><text x="0" y="21" font-family="Virgil, Segoe UI Emoji" font-size="20px" fill="#000000" text-anchor="start" style="white-space: pre;" direction="ltr">S法</text></g><g transform="translate(579.5089529303202 583.165435719088) rotate(0 21 14.5)"><text x="0" y="21" font-family="Virgil, Segoe UI Emoji" font-size="20px" fill="#000000" text-anchor="start" style="white-space: pre;" direction="ltr">内环</text></g><g stroke-linecap="round" transform="translate(543.8464871601168 247.42826660712183) rotate(0 99.49674652847483 26.4959996270415)"><path d="M1.36 1.65 C60.26 0.63, 117.17 -0.3, 197.83 0.55 M0.89 0.07 C48.82 -0.97, 97.04 -1.97, 198.21 -0.75 M198.56 1.91 C197.62 17, 200.55 35.23, 200.92 53.5 M199.58 -0.36 C198.89 14.66, 199.84 30.1, 198.2 52.97 M198.73 54.07 C131.02 51.98, 62.1 50.63, -1.74 53.46 M199.11 53.4 C157.22 54.98, 113.46 53.76, -0.29 53.85 M-1.76 53.35 C-1.42 36.55, 0.96 24.29, 1.6 0.4 M-0.13 52.9 C-0.39 40.78, -0.24 26.25, 0.96 0.01" stroke="#c92a2a" stroke-width="1" fill="none"></path></g></svg>