<svg version="1.1" xmlns="http://www.w3.org/2000/svg" viewBox="0 0 607.7463934995234 449.74609375" width="1215.4927869990468" height="899.4921875">
  <!-- svg-source:excalidraw -->
  
  <defs>
    <style>
      @font-face {
        font-family: "Virgil";
        src: url("https://excalidraw.com/Virgil.woff2");
      }
      @font-face {
        font-family: "Cascadia";
        src: url("https://excalidraw.com/Cascadia.woff2");
      }
    </style>
  </defs>
  <rect x="0" y="0" width="607.7463934995234" height="449.74609375" fill="#fdf6e3"></rect><g transform="translate(283.4296875 94.58203125) rotate(0 61 14.5)"><text x="0" y="21" font-family="Virgil, Segoe UI Emoji" font-size="20px" fill="#000000" text-anchor="start" style="white-space: pre;" direction="ltr">对氨基苯甲酸</text></g><g transform="translate(313.74609375 294.4921875) rotate(0 41 14.5)"><text x="0" y="21" font-family="Virgil, Segoe UI Emoji" font-size="20px" fill="#000000" text-anchor="start" style="white-space: pre;" direction="ltr">二氢叶酸</text></g><g transform="translate(310.984375 410.74609375) rotate(0 41 14.5)"><text x="0" y="21" font-family="Virgil, Segoe UI Emoji" font-size="20px" fill="#000000" text-anchor="start" style="white-space: pre;" direction="ltr">四氢叶酸</text></g><g transform="translate(305.5390625 214.765625) rotate(0 41 14.5)"><text x="0" y="21" font-family="Virgil, Segoe UI Emoji" font-size="20px" fill="#c92a2a" text-anchor="start" style="white-space: pre;" direction="ltr">二氢蝶酸</text></g><g stroke-linecap="round"><g transform="translate(344.2934485406442 128.48828125) rotate(0 0.7267302396138433 40.65959042867646)"><path d="M-1.07 -0.24 C-0.93 6.57, -0.25 27.12, 0.13 40.83 C0.5 54.54, 0.94 74.98, 1.19 82.03 M0.57 -1.42 C1.18 5.54, 2.57 27.94, 2.52 41.96 C2.48 55.99, 0.37 75.7, 0.28 82.74" stroke="#c92a2a" stroke-width="1" fill="none"></path></g><g transform="translate(344.2934485406442 128.48828125) rotate(0 0.7267302396138433 40.65959042867646)"><path d="M0.85 82.13 L-6.34 69.67 L8.94 70.81 L-1.48 83.47" stroke="none" stroke-width="0" fill="#c92a2a" fill-rule="evenodd"></path><path d="M-0.02 81.98 C-2 79.03, -3.81 76.29, -5.39 69.01 M0.18 82.7 C-1.82 78.71, -3.19 73.7, -4.93 69.27 M-4.98 69.48 C-2.16 68.92, 1.21 70.14, 6.17 70.75 M-5.15 68.65 C-0.81 69.27, 2.18 68.99, 7.03 69.87 M7.66 69.16 C3.77 75.06, 1.06 79.29, 0.51 83.45 M7.63 69.63 C4.68 73.07, 2.8 77.04, 0.07 83.15 M0.28 82.74 C0.28 82.74, 0.28 82.74, 0.28 82.74 M0.28 82.74 C0.28 82.74, 0.28 82.74, 0.28 82.74" stroke="#c92a2a" stroke-width="1" fill="none"></path></g></g><g stroke-linecap="round"><g transform="translate(597.1171875 96.77734375) rotate(0 -103.41342034563422 61.67113719840533)"><path d="M0.63 0.4 C-33.95 20.73, -173 101.93, -207.46 122.57 M-0.5 -0.43 C-34.72 19.99, -170.94 103.28, -205.32 123.77" stroke="#c92a2a" stroke-width="1" fill="none"></path></g><g transform="translate(597.1171875 96.77734375) rotate(0 -103.41342034563422 61.67113719840533)"><path d="M-185.83 98.58 C-193.11 107.93, -195.91 113.38, -203.76 124.47 M-185.75 99.89 C-193.49 109.02, -198.77 117.09, -204.98 123.39" stroke="#c92a2a" stroke-width="1" fill="none"></path></g><g transform="translate(597.1171875 96.77734375) rotate(0 -103.41342034563422 61.67113719840533)"><path d="M-175.22 116.14 C-185.77 120.27, -191.77 120.44, -203.76 124.47 M-175.13 117.45 C-186.48 120.58, -195.41 122.61, -204.98 123.39" stroke="#c92a2a" stroke-width="1" fill="none"></path></g></g><g transform="translate(451.92578125 114) rotate(0 31 14.5)"><text x="0" y="21" font-family="Virgil, Segoe UI Emoji" font-size="20px" fill="#c92a2a" text-anchor="start" style="white-space: pre;" direction="ltr">记住它</text></g><g transform="translate(10 298.8671875) rotate(0 11 14.5)"><text x="0" y="21" font-family="Virgil, Segoe UI Emoji" font-size="20px" fill="#c92a2a" text-anchor="start" style="white-space: pre;" direction="ltr">人</text></g><g transform="translate(123.6015625 303.4453125) rotate(0 21 14.5)"><text x="0" y="21" font-family="Virgil, Segoe UI Emoji" font-size="20px" fill="#495057" text-anchor="start" style="white-space: pre;" direction="ltr">叶酸</text></g><g stroke-linecap="round"><g transform="translate(175.3828125 314.640625) rotate(0 63.01240757865364 -1.8686628200113784)"><path d="M-0.18 -0.24 C21.25 -0.83, 106.28 -3.09, 127.76 -3.5 M-1.74 -1.41 C19.62 -1.9, 105.22 -2.54, 126.93 -2.57" stroke="#495057" stroke-width="1" fill="none"></path></g><g transform="translate(175.3828125 314.640625) rotate(0 63.01240757865364 -1.8686628200113784)"><path d="M98.39 8.18 C103.39 7.36, 111.24 2.24, 125.3 -3.8 M97.79 6.97 C108.21 5.35, 116.54 0.81, 127.33 -1.96" stroke="#495057" stroke-width="1" fill="none"></path></g><g transform="translate(175.3828125 314.640625) rotate(0 63.01240757865364 -1.8686628200113784)"><path d="M98.29 -12.34 C103.31 -8.39, 111.19 -8.74, 125.3 -3.8 M97.68 -13.55 C108.23 -8.36, 116.6 -6.1, 127.33 -1.96" stroke="#495057" stroke-width="1" fill="none"></path></g></g><g transform="translate(297.92578125 10) rotate(0 21 14.5)"><text x="0" y="21" font-family="Virgil, Segoe UI Emoji" font-size="20px" fill="#c92a2a" text-anchor="start" style="white-space: pre;" direction="ltr">细菌</text></g><g transform="translate(64.31305803571433 135.3152901785714) rotate(0 81 14.5)"><text x="0" y="21" font-family="Virgil, Segoe UI Emoji" font-size="20px" fill="#c92a2a" text-anchor="start" style="white-space: pre;" direction="ltr">磺胺类抑制它生成</text></g><g stroke-linecap="round"><g transform="translate(216.15625 202.32421875) rotate(0 40.61119442907628 13.327313739852983)"><path d="M-0.37 0.79 C12.74 5.12, 65.99 20.77, 79.19 24.94 M1.64 0.16 C15.1 4.78, 68.33 22.52, 81.59 26.49" stroke="#c92a2a" stroke-width="1" fill="none"></path></g><g transform="translate(216.15625 202.32421875) rotate(0 40.61119442907628 13.327313739852983)"><path d="M52.94 26.71 C62 25.77, 73.86 26.76, 81.24 25.83 M51.06 27.1 C58.54 27.92, 65.55 27.82, 80.68 26.34" stroke="#c92a2a" stroke-width="1" fill="none"></path></g><g transform="translate(216.15625 202.32421875) rotate(0 40.61119442907628 13.327313739852983)"><path d="M59.18 7.16 C65.92 12.95, 75.62 20.7, 81.24 25.83 M57.3 7.55 C63.36 13.07, 68.85 17.73, 80.68 26.34" stroke="#c92a2a" stroke-width="1" fill="none"></path></g></g><g transform="translate(63.756138392857224 186.4322985053397) rotate(0 61 14.5)"><text x="0" y="21" font-family="Virgil, Segoe UI Emoji" font-size="20px" fill="#c92a2a" text-anchor="start" style="white-space: pre;" direction="ltr">二氢蝶酸合酶</text></g><g transform="translate(162.361049107143 340.3552895767683) rotate(0 71 14.5)"><text x="0" y="21" font-family="Virgil, Segoe UI Emoji" font-size="20px" fill="#c92a2a" text-anchor="start" style="white-space: pre;" direction="ltr">二氢叶酸还原酶</text></g></svg>