<svg version="1.1" xmlns="http://www.w3.org/2000/svg" viewBox="0 0 4286.872279861489 1689.3987543235341" width="8573.744559722978" height="3378.7975086470683">
  <!-- svg-source:excalidraw -->
  
  <defs>
    <style>
      @font-face {
        font-family: "Virgil";
        src: url("https://excalidraw.com/Virgil.woff2");
      }
      @font-face {
        font-family: "Cascadia";
        src: url("https://excalidraw.com/Cascadia.woff2");
      }
    </style>
  </defs>
  <rect x="0" y="0" width="4286.872279861489" height="1689.3987543235341" fill="#fdf6e3"></rect><a href="/膜受体包括哪些类型"><g transform="translate(1192.0731165852624 1131.3277028283146) rotate(0 91 14.5)"><text x="0" y="21" font-family="Virgil, Segoe UI Emoji" font-size="20px" fill="#000000" text-anchor="start" style="white-space: pre;" direction="ltr">膜受体包括哪些类型</text></g></a><a href="/离子通道型受体的主要配体包括"><g transform="translate(2763.529274210633 44.30967826888951) rotate(0 141 14.5)"><text x="0" y="21" font-family="Virgil, Segoe UI Emoji" font-size="20px" fill="#000000" text-anchor="start" style="white-space: pre;" direction="ltr">离子通道型受体的主要配体包括</text></g></a><a href="/如何记忆谷氨酸脱羧基的产物是"><g transform="translate(3207.435303996347 10) rotate(0 141 14.5)"><text x="0" y="21" font-family="Virgil, Segoe UI Emoji" font-size="20px" fill="#000000" text-anchor="start" style="white-space: pre;" direction="ltr">如何记忆谷氨酸脱羧基的产物是</text></g></a><a href="/如何记忆谷氨酸与甘氨酸谁是结合阳离子谁是结合阴离子受体"><g transform="translate(3195.8180876127185 95.7228277329557) rotate(0 271 14.5)"><text x="0" y="21" font-family="Virgil, Segoe UI Emoji" font-size="20px" fill="#000000" text-anchor="start" style="white-space: pre;" direction="ltr">如何记忆谷氨酸与甘氨酸谁是结合阳离子谁是结合阴离子受体</text></g></a><a href="/GABA受体有几种及分别是何种类型受体"><g transform="translate(3204.194148310152 143.48606988850287) rotate(0 179.49999999999997 14.5)"><text x="0" y="21" font-family="Virgil, Segoe UI Emoji" font-size="20px" fill="#000000" text-anchor="start" style="white-space: pre;" direction="ltr">GABA受体有几种及分别是何种类型受体</text></g></a><g stroke-linecap="round"><g transform="translate(2951.7405744693633 41.86215756088296) rotate(0 124.42307111222142 -14.733804613924093)"><path d="M-0.31 0.48 C41.21 -4.32, 207.54 -23.33, 249.15 -28.09 M1.73 -0.32 C43.11 -5.54, 207.12 -24.98, 248.3 -29.95" stroke="#000000" stroke-width="1" fill="none"></path></g><g transform="translate(2951.7405744693633 41.86215756088296) rotate(0 124.42307111222142 -14.733804613924093)"><path d="M222.32 -16.11 C230.39 -19.81, 238.52 -25.1, 250.11 -30.88 M221.1 -16.87 C231.9 -22.13, 241.18 -26.93, 247.61 -29.81" stroke="#000000" stroke-width="1" fill="none"></path></g><g transform="translate(2951.7405744693633 41.86215756088296) rotate(0 124.42307111222142 -14.733804613924093)"><path d="M219.88 -36.49 C228.81 -34.02, 237.68 -33.14, 250.11 -30.88 M218.67 -37.25 C230.35 -35.03, 240.53 -32.34, 247.61 -29.81" stroke="#000000" stroke-width="1" fill="none"></path></g></g><g stroke-linecap="round"><g transform="translate(3030.3341324756016 77.74081360391574) rotate(0 78.02294502231297 13.225425167705936)"><path d="M0.83 -0.57 C26.34 3.65, 128.24 21.54, 153.93 25.95 M-0.2 1.74 C25.63 6.04, 130.48 22.87, 156.24 27.03" stroke="#000000" stroke-width="1" fill="none"></path></g><g transform="translate(3030.3341324756016 77.74081360391574) rotate(0 78.02294502231297 13.225425167705936)"><path d="M125.82 31.41 C136.19 30.9, 146.91 26.35, 155.58 28.62 M125.83 32.66 C135.71 31.52, 141.93 30.38, 155.99 27.69" stroke="#000000" stroke-width="1" fill="none"></path></g><g transform="translate(3030.3341324756016 77.74081360391574) rotate(0 78.02294502231297 13.225425167705936)"><path d="M129.08 11.15 C138.34 18.15, 147.86 21.08, 155.58 28.62 M129.09 12.4 C137.98 16.8, 143.31 21.17, 155.99 27.69" stroke="#000000" stroke-width="1" fill="none"></path></g></g><g transform="translate(3086.8846132448325 71.99802514237729) rotate(0 21 14.5)"><text x="0" y="21" font-family="Virgil, Segoe UI Emoji" font-size="20px" fill="#000000" text-anchor="start" style="white-space: pre;" direction="ltr">受体</text></g><a href="/激活的G蛋白可以激活或抑制哪些G蛋白效应器"><g transform="translate(3031.6114695587453 250.63658901325618) rotate(0 184 14.5)"><text x="0" y="21" font-family="Virgil, Segoe UI Emoji" font-size="20px" fill="#000000" text-anchor="start" style="white-space: pre;" direction="ltr">G蛋白主要是哪个亚基与GDP和GTP结合</text></g></a><g stroke-linecap="round"><g transform="translate(1373.2379998829451 1118.7423900553645) rotate(0 691.6573274398694 -533.5180047111832)"><path d="M-0.62 -1.03 C230.12 -178.71, 1152.96 -888.77, 1383.94 -1066.24 M1.25 1.04 C231.86 -176.98, 1152.22 -889.96, 1382.84 -1068.08" stroke="#000000" stroke-width="1" fill="none"></path></g><g transform="translate(1373.2379998829451 1118.7423900553645) rotate(0 691.6573274398694 -533.5180047111832)"><path d="M1365.11 -1043.19 C1371.83 -1047.42, 1376.59 -1055.84, 1383.87 -1068.02 M1367.21 -1042.57 C1371.1 -1048.15, 1373.23 -1054.48, 1382.45 -1068.78" stroke="#000000" stroke-width="1" fill="none"></path></g><g transform="translate(1373.2379998829451 1118.7423900553645) rotate(0 691.6573274398694 -533.5180047111832)"><path d="M1352.55 -1059.42 C1362.46 -1059.44, 1370.43 -1063.71, 1383.87 -1068.02 M1354.66 -1058.8 C1361.16 -1061.06, 1365.93 -1063.97, 1382.45 -1068.78" stroke="#000000" stroke-width="1" fill="none"></path></g></g><a href="/激活的G蛋白可以激活或抑制哪些G蛋白效应器"><g transform="translate(3035.143044379941 312.89568911233863) rotate(0 207 14.5)"><text x="0" y="21" font-family="Virgil, Segoe UI Emoji" font-size="20px" fill="#000000" text-anchor="start" style="white-space: pre;" direction="ltr">激活的G蛋白可以激活或抑制哪些G蛋白效应器</text></g></a><g stroke-linecap="round" transform="translate(2877.165843834512 211.37393778767301) rotate(0 327.45996021609767 108.70115164385692)"><path d="M0.27 -0.74 C184.83 -2.9, 369.24 -2.26, 655.71 -0.37 M-0.06 0.21 C137.01 0.83, 273.12 0.87, 654.91 -0.01 M653.9 -1.57 C654.82 71.82, 654.82 140.72, 653.97 216.03 M655.03 0.8 C655.41 84, 655.96 169.73, 654.68 218.25 M654.34 217.39 C489.67 216.11, 323.21 216.02, -0.7 217.08 M654.82 217.14 C405.48 214.62, 155.72 214.65, 0.24 217.06 M1.29 219.07 C0.21 144.57, -0.21 71.46, 1.49 -1.4 M0.36 216.61 C1.42 132.52, 0.43 46.32, 0.51 0.61" stroke="#000000" stroke-width="1" fill="none"></path></g><g transform="translate(2913.5899842003532 380.3898089243459) rotate(0 69 14.5)"><text x="0" y="21" font-family="Virgil, Segoe UI Emoji" font-size="20px" fill="#c92a2a" text-anchor="start" style="white-space: pre;" direction="ltr">G蛋白耦联受体</text></g><g stroke-linecap="round"><g transform="translate(1384.6022281789822 1149.445874455992) rotate(0 388.890181798413 -51.236526629435446)"><path d="M-0.38 0.9 C129.09 -16.3, 646.52 -86, 775.97 -103.37 M1.62 0.32 C131.53 -16.74, 649.23 -85.2, 778.16 -102.34" stroke="#000000" stroke-width="1" fill="none"></path></g><g transform="translate(1384.6022281789822 1149.445874455992) rotate(0 388.890181798413 -51.236526629435446)"><path d="M753.06 -90.11 C756.01 -92.61, 762.08 -92.95, 776.71 -102.96 M752.04 -87.95 C760.19 -93.11, 766.74 -96.18, 778.33 -102.07" stroke="#000000" stroke-width="1" fill="none"></path></g><g transform="translate(1384.6022281789822 1149.445874455992) rotate(0 388.890181798413 -51.236526629435446)"><path d="M750.37 -110.45 C753.9 -108.33, 760.58 -104.05, 776.71 -102.96 M749.35 -108.3 C758.2 -107.39, 765.55 -104.41, 778.33 -102.07" stroke="#000000" stroke-width="1" fill="none"></path></g></g><a href="/酶联型受体包括哪些类型"><g transform="translate(2149.774811355557 1002.6500819623925) rotate(0 111 14.5)"><text x="0" y="21" font-family="Virgil, Segoe UI Emoji" font-size="20px" fill="#000000" text-anchor="start" style="white-space: pre;" direction="ltr">酶联型受体包括哪些类型</text></g></a><g stroke-linecap="round"><g transform="translate(2376.65921005478 1023.5657059804155) rotate(0 182.7897933226853 -189.30194305218498)"><path d="M-0.24 -0.8 C61.04 -64.09, 306.27 -316.8, 367.41 -380 M-1.83 1.39 C59.38 -61.77, 305.55 -315.61, 366.81 -379.05" stroke="#000000" stroke-width="1" fill="none"></path></g><g transform="translate(2376.65921005478 1023.5657059804155) rotate(0 182.7897933226853 -189.30194305218498)"><path d="M353.24 -350.56 C356.15 -359.48, 359.55 -367, 365.87 -377.45 M354.7 -351.55 C358.24 -360.29, 361.32 -368.44, 366.7 -378.5" stroke="#000000" stroke-width="1" fill="none"></path></g><g transform="translate(2376.65921005478 1023.5657059804155) rotate(0 182.7897933226853 -189.30194305218498)"><path d="M338.5 -364.83 C345.45 -369.78, 352.92 -373.36, 365.87 -377.45 M339.96 -365.82 C347.99 -370.39, 355.49 -374.26, 366.7 -378.5" stroke="#000000" stroke-width="1" fill="none"></path></g></g><a href="/可通过激活酪氨酸激酶受体而完成细胞信号转导的配体有"><g transform="translate(2745.0069911305472 639.0413867113593) rotate(0 251 14.5)"><text x="0" y="21" font-family="Virgil, Segoe UI Emoji" font-size="20px" fill="#000000" text-anchor="start" style="white-space: pre;" direction="ltr">可通过激活酪氨酸激酶受体而完成细胞信号转导的配体有</text></g></a><g transform="translate(2950.190431435194 805.8731245292381) rotate(0 48 14.5)"><text x="0" y="21" font-family="Virgil, Segoe UI Emoji" font-size="20px" fill="#000000" text-anchor="start" style="white-space: pre;" direction="ltr">MAPK通路</text></g><g transform="translate(3076.9667266934975 811.6417003660006) rotate(0 28.5 12.5)"><text x="0" y="18" font-family="Virgil, Segoe UI Emoji" font-size="20px" fill="#000000" text-anchor="start" style="white-space: pre;" direction="ltr">EGFR</text></g><g stroke-linecap="round"><g transform="translate(3096.3317301880393 835.6465804894528) rotate(0 0.27535598639047976 56.513191033757295)"><path d="M0.55 -0.28 C0.63 18.37, 0.93 94.1, 1.22 113.02 M-0.62 -1.48 C-0.81 17.89, -0.4 95.15, 0 114.5" stroke="#000000" stroke-width="1" fill="none"></path></g><g transform="translate(3096.3317301880393 835.6465804894528) rotate(0 0.27535598639047976 56.513191033757295)"><path d="M-11.06 85.57 C-6.7 97.37, -2.48 108, -1.15 116.11 M-9.96 86.46 C-6.45 95.61, -3.2 105.15, -0.78 114.21" stroke="#000000" stroke-width="1" fill="none"></path></g><g transform="translate(3096.3317301880393 835.6465804894528) rotate(0 0.27535598639047976 56.513191033757295)"><path d="M9.46 85.33 C6.43 97.31, 3.26 108.03, -1.15 116.11 M10.56 86.22 C6.96 95.61, 3.09 105.24, -0.78 114.21" stroke="#000000" stroke-width="1" fill="none"></path></g></g><g stroke-linecap="round"><g transform="translate(3095.18962009389 833.1552544410274) rotate(0 55.20030140653671 30.024265959833826)"><path d="M0.04 0.92 C1.39 11.82, -2.01 58.03, 7.37 66.32 C16.76 74.6, 38.96 58.54, 56.35 50.64 C73.74 42.73, 113.63 29, 111.73 18.9 C109.83 8.81, 56.12 -5.25, 44.97 -9.96 M-1.39 0.36 C-0.14 11.34, -3.58 59.08, 6.46 67.62 C16.5 76.16, 41.33 59.66, 58.85 51.63 C76.37 43.6, 114.12 29.69, 111.59 19.45 C109.05 9.22, 54.51 -4.84, 43.64 -9.8" stroke="#000000" stroke-width="1" fill="none"></path></g><g transform="translate(3095.18962009389 833.1552544410274) rotate(0 55.20030140653671 30.024265959833826)"><path d="M75.18 -10.17 C65.67 -11.4, 58.17 -11.27, 41.89 -9.34 M74.4 -10.87 C66.15 -10.46, 57.31 -9.84, 43.25 -8.91" stroke="#000000" stroke-width="1" fill="none"></path></g><g transform="translate(3095.18962009389 833.1552544410274) rotate(0 55.20030140653671 30.024265959833826)"><path d="M68.47 9.22 C60.43 3.32, 54.54 -1.22, 41.89 -9.34 M67.68 8.52 C61.18 3.82, 54.1 -0.67, 43.25 -8.91" stroke="#000000" stroke-width="1" fill="none"></path></g></g><g transform="translate(3080.261919633005 959.9417682560127) rotate(0 25.5 12.5)"><text x="0" y="18" font-family="Virgil, Segoe UI Emoji" font-size="20px" fill="#000000" text-anchor="start" style="white-space: pre;" direction="ltr">Grb2</text></g><g stroke-linecap="round"><g transform="translate(3095.704457258722 990.6961982584071) rotate(0 -0.29741128289202834 20.72768616424264)"><path d="M0.28 0.04 C0.55 6.93, 0.22 35.62, 0.44 42.44 M-1.03 -0.98 C-0.85 6.06, -1.07 33.49, -0.7 40.61" stroke="#000000" stroke-width="1" fill="none"></path></g><g transform="translate(3095.704457258722 990.6961982584071) rotate(0 -0.29741128289202834 20.72768616424264)"><path d="M-8.16 20.46 C-5.58 26.28, -6.55 30.01, 0.18 42.15 M-8.31 22.03 C-4.76 28.53, -2.03 35.33, -0.47 40.86" stroke="#000000" stroke-width="1" fill="none"></path></g><g transform="translate(3095.704457258722 990.6961982584071) rotate(0 -0.29741128289202834 20.72768616424264)"><path d="M6.16 20.2 C5.84 26.1, 1.97 29.88, 0.18 42.15 M6.01 21.76 C4.26 28.41, 1.69 35.32, -0.47 40.86" stroke="#000000" stroke-width="1" fill="none"></path></g></g><g transform="translate(3082.886446726162 1024.8349367364108) rotate(0 20.5 12.5)"><text x="0" y="18" font-family="Virgil, Segoe UI Emoji" font-size="20px" fill="#000000" text-anchor="start" style="white-space: pre;" direction="ltr">SOS</text></g><g stroke-linecap="round"><g transform="translate(3099.4876704827475 1050.8349367364108) rotate(0 0.27223388793635195 23.47813396818549)"><path d="M0.43 -0.49 C0.7 7.48, 0.96 40.69, 1.35 48.75 M-0.8 -1.8 C-0.69 5.72, -0.29 38.4, 0.27 46.86" stroke="#000000" stroke-width="1" fill="none"></path></g><g transform="translate(3099.4876704827475 1050.8349367364108) rotate(0 0.27223388793635195 23.47813396818549)"><path d="M-9.62 24.06 C-5.38 32.57, -4.32 37.9, 0.62 47.4 M-9.44 25.15 C-5.41 33.34, -2.27 41.68, 0.14 47.24" stroke="#000000" stroke-width="1" fill="none"></path></g><g transform="translate(3099.4876704827475 1050.8349367364108) rotate(0 0.27223388793635195 23.47813396818549)"><path d="M6.9 23.47 C6.55 32.21, 3.01 37.7, 0.62 47.4 M7.09 24.56 C4.95 32.92, 1.92 41.47, 0.14 47.24" stroke="#000000" stroke-width="1" fill="none"></path></g></g><g transform="translate(3076.381899285598 1101.5603636814692) rotate(0 20.5 12.5)"><text x="0" y="18" font-family="Virgil, Segoe UI Emoji" font-size="20px" fill="#000000" text-anchor="start" style="white-space: pre;" direction="ltr">RAS</text></g><g transform="translate(3094.355782504988 1361.2270928272887) rotate(0 28 12.5)"><text x="0" y="18" font-family="Virgil, Segoe UI Emoji" font-size="20px" fill="#000000" text-anchor="start" style="white-space: pre;" direction="ltr">MAPK</text></g><g transform="translate(3084.6600762179837 1277.9419940840896) rotate(0 34 12.5)"><text x="0" y="18" font-family="Virgil, Segoe UI Emoji" font-size="20px" fill="#000000" text-anchor="start" style="white-space: pre;" direction="ltr">MAPKK</text></g><g transform="translate(3065.9427645396067 1197.8456443159328) rotate(0 40.5 12.5)"><text x="0" y="18" font-family="Virgil, Segoe UI Emoji" font-size="20px" fill="#000000" text-anchor="start" style="white-space: pre;" direction="ltr">MAPKKK</text></g><g transform="translate(3183.5099747022136 1193.1222167018152) rotate(0 20 12.5)"><text x="0" y="18" font-family="Virgil, Segoe UI Emoji" font-size="20px" fill="#000000" text-anchor="start" style="white-space: pre;" direction="ltr">RAF</text></g><g transform="translate(3184.130081137213 1253.8926473317572) rotate(0 21 12.5)"><text x="0" y="18" font-family="Virgil, Segoe UI Emoji" font-size="20px" fill="#000000" text-anchor="start" style="white-space: pre;" direction="ltr">MEH</text></g><g transform="translate(3193.431677662204 1309.7022264817028) rotate(0 21 12.5)"><text x="0" y="18" font-family="Virgil, Segoe UI Emoji" font-size="20px" fill="#000000" text-anchor="start" style="white-space: pre;" direction="ltr">ERK</text></g><g stroke-linecap="round"><g transform="translate(3098.130420389727 1128.0263669154112) rotate(0 -0.9368291205087189 30.962663430715565)"><path d="M0.12 -0.21 C0.1 10.29, -0.72 51.64, -1.08 62.19 M-1.28 -1.36 C-1.36 9.34, -2.21 52.32, -1.93 63.29" stroke="#000000" stroke-width="1" fill="none"></path></g><g transform="translate(3098.130420389727 1128.0263669154112) rotate(0 -0.9368291205087189 30.962663430715565)"><path d="M-12.53 35.4 C-11.52 39.93, -7.77 47.99, -1.82 63.22 M-12.23 35.95 C-9.45 44.55, -6.03 53.99, -1.78 63.88" stroke="#000000" stroke-width="1" fill="none"></path></g><g transform="translate(3098.130420389727 1128.0263669154112) rotate(0 -0.9368291205087189 30.962663430715565)"><path d="M7.99 35.4 C4.49 39.95, 3.72 48.01, -1.82 63.22 M8.29 35.96 C4.18 44.61, 0.71 54.05, -1.78 63.88" stroke="#000000" stroke-width="1" fill="none"></path></g></g><g stroke-linecap="round"><g transform="translate(3101.002499869035 1223.845644315933) rotate(0 1.4697907115981366 26.014240565419925)"><path d="M0.71 0.59 C1.27 9.07, 2.84 42.56, 3.31 51.02 M-0.37 -0.14 C0.08 8.45, 2.1 43.4, 2.7 52.17" stroke="#000000" stroke-width="1" fill="none"></path></g><g transform="translate(3101.002499869035 1223.845644315933) rotate(0 1.4697907115981366 26.014240565419925)"><path d="M-6.67 29.49 C-5.77 36.92, -2.09 41.81, 2.3 53.13 M-8.43 29 C-5.28 35.26, -2.66 40.1, 3.27 53.02" stroke="#000000" stroke-width="1" fill="none"></path></g><g transform="translate(3101.002499869035 1223.845644315933) rotate(0 1.4697907115981366 26.014240565419925)"><path d="M11.02 28.38 C6.64 36.26, 5.02 41.48, 2.3 53.13 M9.27 27.9 C8.06 34.3, 6.32 39.42, 3.27 53.02" stroke="#000000" stroke-width="1" fill="none"></path></g></g><g stroke-linecap="round"><g transform="translate(3109.5283163108757 1312.1263400215298) rotate(0 0.15682400500537597 23.137595291236778)"><path d="M0.04 -0.04 C0.28 8.03, 1.41 39.79, 1.71 47.38 M-1.4 -1.11 C-1.35 6.73, 0.23 37.86, 0.63 45.78" stroke="#000000" stroke-width="1" fill="none"></path></g><g transform="translate(3109.5283163108757 1312.1263400215298) rotate(0 0.15682400500537597 23.137595291236778)"><path d="M-8.46 23.97 C-4.02 31.06, -4.22 38.14, 0.83 47.07 M-8.35 24.35 C-5.54 31.9, -1.74 39.67, 0.73 45.87" stroke="#000000" stroke-width="1" fill="none"></path></g><g transform="translate(3109.5283163108757 1312.1263400215298) rotate(0 0.15682400500537597 23.137595291236778)"><path d="M7.4 23.18 C6.75 30.52, 1.47 37.86, 0.83 47.07 M7.51 23.56 C4.7 31.35, 2.88 39.39, 0.73 45.87" stroke="#000000" stroke-width="1" fill="none"></path></g></g><a href="/EGFR的酪氨酸激酶磷酸化何物质"><g transform="translate(3225.382391125762 840.882005157142) rotate(0 148.5 14.5)"><text x="0" y="21" font-family="Virgil, Segoe UI Emoji" font-size="20px" fill="#000000" text-anchor="start" style="white-space: pre;" direction="ltr">EGFR的酪氨酸激酶磷酸化何物质</text></g></a><g stroke-linecap="round"><g transform="translate(3271.904780309656 975.0250939478187) rotate(0 -69.65011408983614 -0.08942153725303115)"><path d="M-0.94 -0.17 C-24.13 0.06, -115.89 1.12, -139.09 1.14 M0.77 -1.3 C-22.59 -1.41, -116.96 -1.04, -140.07 -0.65" stroke="#000000" stroke-width="1" fill="none"></path></g><g transform="translate(3271.904780309656 975.0250939478187) rotate(0 -69.65011408983614 -0.08942153725303115)"><path d="M-112.25 -11.27 C-119.48 -10.09, -129.97 -5.38, -139.5 -2.08 M-112.64 -10.63 C-118.21 -8.75, -124.84 -4.91, -140.37 0.27" stroke="#000000" stroke-width="1" fill="none"></path></g><g transform="translate(3271.904780309656 975.0250939478187) rotate(0 -69.65011408983614 -0.08942153725303115)"><path d="M-112.07 9.25 C-119.31 4.2, -129.86 2.68, -139.5 -2.08 M-112.45 9.89 C-117.99 6.75, -124.67 5.55, -140.37 0.27" stroke="#000000" stroke-width="1" fill="none"></path></g></g><a href="/MAPK通路中Grb2为什么能够承上起下"><g transform="translate(3280.1795137226673 960.755108509805) rotate(0 172.5 14.5)"><text x="0" y="21" font-family="Virgil, Segoe UI Emoji" font-size="20px" fill="#000000" text-anchor="start" style="white-space: pre;" direction="ltr">MAPK通路中Grb2为什么能够承上起下</text></g></a><g stroke-linecap="round"><g transform="translate(3300.722337313388 1050.2654233411724) rotate(0 -86.51804406538596 -2.5307376510533572)"><path d="M-0.76 -0.8 C-29.82 -1.76, -144.56 -4.08, -173.66 -4.7 M1.04 1.39 C-28.15 0.6, -145.09 -5.15, -174.08 -6.45" stroke="#000000" stroke-width="1" fill="none"></path></g><g transform="translate(3300.722337313388 1050.2654233411724) rotate(0 -86.51804406538596 -2.5307376510533572)"><path d="M-146.77 -13.69 C-154.47 -13.57, -164.51 -7.74, -172.38 -7.5 M-146.05 -14.84 C-155.47 -12.78, -166.69 -8.53, -174.95 -7.41" stroke="#000000" stroke-width="1" fill="none"></path></g><g transform="translate(3300.722337313388 1050.2654233411724) rotate(0 -86.51804406538596 -2.5307376510533572)"><path d="M-147.74 6.81 C-155.27 -0.43, -164.96 -1.96, -172.38 -7.5 M-147.01 5.66 C-155.91 0.49, -166.79 -2.5, -174.95 -7.41" stroke="#000000" stroke-width="1" fill="none"></path></g></g><a href="/SOS为何得名鸟苷酸交换蛋白"><g transform="translate(3311.725475299551 1032.924523198142) rotate(0 130.5 14.5)"><text x="0" y="21" font-family="Virgil, Segoe UI Emoji" font-size="20px" fill="#000000" text-anchor="start" style="white-space: pre;" direction="ltr">SOS为何得名鸟苷酸交换蛋白</text></g></a><g stroke-linecap="round"><g transform="translate(3293.2143595364837 1107.3529524226558) rotate(0 -86.9392283262606 1.0732550700240608)"><path d="M0.97 0.89 C-28.19 1.13, -144.9 0.71, -173.82 0.79 M0.02 0.31 C-29.42 0.74, -146.05 1.47, -174.85 1.84" stroke="#000000" stroke-width="1" fill="none"></path></g><g transform="translate(3293.2143595364837 1107.3529524226558) rotate(0 -86.9392283262606 1.0732550700240608)"><path d="M-145.27 -8.91 C-159.48 -2.42, -169.61 -0.92, -176.36 1.36 M-145.93 -7.78 C-156.89 -4.54, -168.7 -1.23, -175.29 2.49" stroke="#000000" stroke-width="1" fill="none"></path></g><g transform="translate(3293.2143595364837 1107.3529524226558) rotate(0 -86.9392283262606 1.0732550700240608)"><path d="M-145.08 11.61 C-159.24 9.99, -169.45 3.38, -176.36 1.36 M-145.74 12.74 C-156.93 8.3, -168.81 3.92, -175.29 2.49" stroke="#000000" stroke-width="1" fill="none"></path></g></g><a href="/RAS蛋白具有何种酶活性"><g transform="translate(3299.644208830131 1087.2714912876943) rotate(0 110.5 14.5)"><text x="0" y="21" font-family="Virgil, Segoe UI Emoji" font-size="20px" fill="#000000" text-anchor="start" style="white-space: pre;" direction="ltr">RAS蛋白具有何种酶活性</text></g></a><g stroke-linecap="round"><g transform="translate(3233.823881103212 1199.1607564678195) rotate(0 55.667167986459106 79.1112733593543)"><path d="M-0.15 -0.46 C7.91 -0.59, 40.86 -16.43, 48.46 -1.65 C56.06 13.13, 33.76 73.34, 45.44 88.21 C57.12 103.08, 117.27 84.37, 118.54 87.56 C119.81 90.76, 63.42 95, 53.03 107.38 C42.65 119.76, 66.32 151.86, 56.24 161.86 C46.17 171.85, 3.01 166.48, -7.39 167.36 M-1.69 -1.75 C6.31 -2.14, 39.88 -18.58, 48.12 -3.35 C56.37 11.87, 36.01 74.33, 47.78 89.58 C59.54 104.84, 118.06 85.11, 118.72 88.17 C119.38 91.23, 62.48 95.86, 51.74 107.95 C41 120.04, 64.09 151.04, 54.26 160.72 C44.44 170.4, 3 165.04, -7.21 166.04" stroke="#000000" stroke-width="1" fill="none"></path></g></g><a href="/RAF-MEK-ERK属于何种蛋白激酶"><g transform="translate(3370.341413775537 1264.6177885425616) rotate(0 148.5 14.5)"><text x="0" y="21" font-family="Virgil, Segoe UI Emoji" font-size="20px" fill="#000000" text-anchor="start" style="white-space: pre;" direction="ltr">RAF-MEK-ERK属于何种蛋白激酶</text></g></a><g stroke-linecap="round" transform="translate(2932.792504639189 793.2473286019114) rotate(0 377.8353813741584 311.05174390136904)"><path d="M0.16 -0.02 C259.84 -1.36, 518.58 -2.56, 756.12 0.58 M0.32 -0.07 C190.38 -1.96, 381.67 -2.03, 755.51 0.11 M755.15 -0.63 C757.07 146.14, 756.66 291.29, 755.13 621.38 M755.44 0 C757.17 242.96, 757.47 485.23, 755.98 621.74 M756.19 621.58 C588.11 619.74, 419.46 619.59, -0.42 622.07 M755.49 622.39 C525.5 624.47, 295.53 624.48, -0.37 622.31 M0.06 622.38 C2.65 479.58, 2.12 338.2, -0.01 -0.45 M-0.23 622.28 C1.8 496.53, 1.61 370.05, 0.4 -0.34" stroke="#000000" stroke-width="1" fill="none"></path></g><a href="/描述PIP3-PI3K-PKB"><g transform="translate(3381.4019400091606 658.2852423940903) rotate(0 100 14.5)"><text x="0" y="21" font-family="Virgil, Segoe UI Emoji" font-size="20px" fill="#c92a2a" text-anchor="start" style="white-space: pre;" direction="ltr">描述PIP3-PI3K-PKB</text></g></a><g stroke-linecap="round"><g transform="translate(3020.7440417815483 674.1644117376355) rotate(0 17.7753043527739 47.867778198341966)"><path d="M-0.31 -0.18 C5.78 15.81, 29.99 80.86, 35.86 97.06 M1.73 -1.32 C7.77 14.84, 29.82 79.26, 35.18 95.31" stroke="#000000" stroke-width="1" fill="none"></path></g><g transform="translate(3020.7440417815483 674.1644117376355) rotate(0 17.7753043527739 47.867778198341966)"><path d="M16.11 72.77 C22.35 76.85, 26.76 83.44, 34.77 97.15 M16.25 72.15 C23.97 79.99, 29.6 89.55, 35.5 95.09" stroke="#000000" stroke-width="1" fill="none"></path></g><g transform="translate(3020.7440417815483 674.1644117376355) rotate(0 17.7753043527739 47.867778198341966)"><path d="M35.54 66.17 C37.15 71.8, 36.85 79.98, 34.77 97.15 M35.69 65.55 C36.3 75.92, 34.88 87.87, 35.5 95.09" stroke="#000000" stroke-width="1" fill="none"></path></g></g><g stroke-linecap="round"><g transform="translate(3743.842682380425 683.9343740820536) rotate(0 -79.4768336929547 -6.7774235472084)"><path d="M-0.91 -0.01 C-27.49 -2.26, -133.25 -11.65, -159.77 -13.55 M0.81 -1.06 C-25.36 -3.21, -131.04 -10.6, -157.45 -12.62" stroke="#000000" stroke-width="1" fill="none"></path></g><g transform="translate(3743.842682380425 683.9343740820536) rotate(0 -79.4768336929547 -6.7774235472084)"><path d="M-128.61 -22.07 C-138.56 -20.46, -142.99 -15.17, -157.21 -11.88 M-128.42 -21.39 C-137.43 -18.42, -148.16 -15.78, -157.73 -13.4" stroke="#000000" stroke-width="1" fill="none"></path></g><g transform="translate(3743.842682380425 683.9343740820536) rotate(0 -79.4768336929547 -6.7774235472084)"><path d="M-130.1 -1.6 C-139.63 -5.66, -143.65 -6.05, -157.21 -11.88 M-129.92 -0.92 C-138.51 -4.95, -148.73 -9.3, -157.73 -13.4" stroke="#000000" stroke-width="1" fill="none"></path></g></g><a href="/哪个抑癌基因抑制PIP3-PI3K-PKB"><g transform="translate(3956.872279861489 499.263945788351) rotate(0 160 14.5)"><text x="0" y="21" font-family="Virgil, Segoe UI Emoji" font-size="20px" fill="#000000" text-anchor="start" style="white-space: pre;" direction="ltr">哪个抑癌基因抑制PIP3-PI3K-PKB</text></g></a><g stroke-linecap="round"><g transform="translate(3941.778355098195 500.700266076653) rotate(0 -175.98310131587402 90.16393775220592)"><path d="M0.18 0.32 C-58.5 30.13, -293.04 149.72, -351.79 179.61 M-1.18 -0.56 C-59.95 29.35, -293.55 150.67, -352.15 180.89" stroke="#000000" stroke-width="1" fill="none"></path></g><g transform="translate(3941.778355098195 500.700266076653) rotate(0 -175.98310131587402 90.16393775220592)"><path d="M-331.3 160.7 C-339.13 167.05, -345.62 172.22, -351.83 178.94 M-331.48 159.66 C-339.72 166.52, -346.92 175.95, -351.55 179.99" stroke="#000000" stroke-width="1" fill="none"></path></g><g transform="translate(3941.778355098195 500.700266076653) rotate(0 -175.98310131587402 90.16393775220592)"><path d="M-321.86 178.92 C-332.87 179.36, -342.43 178.61, -351.83 178.94 M-322.05 177.89 C-333.93 177.87, -344.71 180.36, -351.55 179.99" stroke="#000000" stroke-width="1" fill="none"></path></g></g><a href="/胰岛素降糖的主要通路是"><g transform="translate(3755.1476880995233 685.0052657093577) rotate(0 111 14.5)"><text x="0" y="21" font-family="Virgil, Segoe UI Emoji" font-size="20px" fill="#c92a2a" text-anchor="start" style="white-space: pre;" direction="ltr">胰岛素降糖的主要通路是</text></g></a><g stroke-linecap="round"><g transform="translate(3763.0854968381036 856.6225616593523) rotate(0 33.011149160763296 -68.05705346271972)"><path d="M0.62 -0.52 C11.69 -23.43, 55.46 -115.25, 66.54 -137.94 M-0.51 1.82 C10.39 -20.93, 54.38 -114.13, 65.55 -136.96" stroke="#000000" stroke-width="1" fill="none"></path></g><g transform="translate(3763.0854968381036 856.6225616593523) rotate(0 33.011149160763296 -68.05705346271972)"><path d="M61.75 -107.23 C61.85 -115.57, 64.95 -125.65, 64 -136.08 M63.44 -107.24 C64.16 -115.85, 64.45 -125.85, 66.44 -136.88" stroke="#000000" stroke-width="1" fill="none"></path></g><g transform="translate(3763.0854968381036 856.6225616593523) rotate(0 33.011149160763296 -68.05705346271972)"><path d="M43.24 -116.11 C48.99 -121.81, 57.79 -129.16, 64 -136.08 M44.94 -116.11 C51.43 -121.92, 57.56 -129.11, 66.44 -136.88" stroke="#000000" stroke-width="1" fill="none"></path></g></g><a href="/如何记忆IRS的种类及分布部位"><g transform="translate(3697.003497139145 862.1257351197137) rotate(0 139.5 14.5)"><text x="0" y="21" font-family="Virgil, Segoe UI Emoji" font-size="20px" fill="#000000" text-anchor="start" style="white-space: pre;" direction="ltr">如何记忆IRS的种类及分布部位</text></g></a><g stroke-linecap="round"><g transform="translate(3248.971180009148 659.0989985072275) rotate(0 59.695295493149985 3.2763390112834117)"><path d="M0.73 -1.2 C20.78 -0.1, 99.97 5.24, 119.74 6.46 M-0.35 0.79 C19.57 2.06, 98.91 6.71, 118.69 7.75" stroke="#000000" stroke-width="1" fill="none"></path></g><g transform="translate(3248.971180009148 659.0989985072275) rotate(0 59.695295493149985 3.2763390112834117)"><path d="M87.97 16.07 C96.44 13.12, 103.12 12.62, 118.34 5.79 M90.56 15.9 C99.14 13.05, 108.04 10.56, 118.81 7.71" stroke="#000000" stroke-width="1" fill="none"></path></g><g transform="translate(3248.971180009148 659.0989985072275) rotate(0 59.695295493149985 3.2763390112834117)"><path d="M89.12 -4.42 C97.29 -2.2, 103.67 2.47, 118.34 5.79 M91.71 -4.59 C99.9 -0.97, 108.43 3.01, 118.81 7.71" stroke="#000000" stroke-width="1" fill="none"></path></g></g><a href="/霍乱的致病机制是"><g transform="translate(3095.6776583519495 371.60974315144085) rotate(0 81 14.5)"><text x="0" y="21" font-family="Virgil, Segoe UI Emoji" font-size="20px" fill="#000000" text-anchor="start" style="white-space: pre;" direction="ltr">霍乱的致病机制是</text></g></a><a href="/酪氨酸激酶结合型受体与哪些具有酪氨酸激酶活性的物质结合"><g transform="translate(2449.531913257797 1491.5629931781455) rotate(0 271 14.5)"><text x="0" y="21" font-family="Virgil, Segoe UI Emoji" font-size="20px" fill="#000000" text-anchor="start" style="white-space: pre;" direction="ltr">酪氨酸激酶结合型受体与哪些具有酪氨酸激酶活性的物质结合</text></g></a><g stroke-linecap="round"><g transform="translate(2318.781608553767 1042.1186610882305) rotate(0 160.5120640515977 218.8175379615576)"><path d="M0.65 -1.15 C54.04 71.58, 265.92 364.02, 319.36 437.19 M-0.47 0.86 C53.37 73.73, 267.93 366.28, 321.5 438.78" stroke="#000000" stroke-width="1" fill="none"></path></g><g transform="translate(2318.781608553767 1042.1186610882305) rotate(0 160.5120640515977 218.8175379615576)"><path d="M294.61 420.34 C302.17 426.97, 308.6 428.05, 320.19 436.79 M296.94 423.05 C306.09 427.78, 314.03 433.24, 320.73 438.24" stroke="#000000" stroke-width="1" fill="none"></path></g><g transform="translate(2318.781608553767 1042.1186610882305) rotate(0 160.5120640515977 218.8175379615576)"><path d="M311.14 408.18 C315.25 417.5, 318.14 421.18, 320.19 436.79 M313.47 410.88 C316.88 419.74, 319.1 429.41, 320.73 438.24" stroke="#000000" stroke-width="1" fill="none"></path></g></g><g stroke-linecap="round"><g transform="translate(2807.2521263599356 1525.7446822107136) rotate(0 81.0735282952341 55.05699264016869)"><path d="M0.79 0.3 C27.71 18.62, 135.43 91.38, 162.4 109.49 M-0.26 -0.58 C26.41 17.92, 134.32 92.31, 161.34 110.7" stroke="#000000" stroke-width="1" fill="none"></path></g><g transform="translate(2807.2521263599356 1525.7446822107136) rotate(0 81.0735282952341 55.05699264016869)"><path d="M132.79 102.86 C142.08 105.82, 152.12 107.8, 160.36 109.31 M132.08 103.82 C140.26 104.03, 146.44 107.52, 161.79 110.95" stroke="#000000" stroke-width="1" fill="none"></path></g><g transform="translate(2807.2521263599356 1525.7446822107136) rotate(0 81.0735282952341 55.05699264016869)"><path d="M144.4 85.93 C149.28 95.31, 154.97 103.62, 160.36 109.31 M143.69 86.9 C148.98 91.39, 152.29 99.07, 161.79 110.95" stroke="#000000" stroke-width="1" fill="none"></path></g></g><a href="/酪氨酸激酶结合型受体的转导通路有"><g transform="translate(2976.2867581917108 1650.3987543235341) rotate(0 161 14.5)"><text x="0" y="21" font-family="Virgil, Segoe UI Emoji" font-size="20px" fill="#000000" text-anchor="start" style="white-space: pre;" direction="ltr">酪氨酸激酶结合型受体的转导通路有</text></g></a><g stroke-linecap="round"><g transform="translate(2695.162902763116 1249.8681298020692) rotate(0 -9.323181262893854 115.651224535837)"><path d="M0.75 0.48 C-2.52 38.7, -16.17 191.85, -19.39 230.16 M-0.32 -0.32 C-3.24 38.02, -14.06 192.96, -17.26 231.62" stroke="#c92a2a" stroke-width="1" fill="none"></path></g><g transform="translate(2695.162902763116 1249.8681298020692) rotate(0 -9.323181262893854 115.651224535837)"><path d="M-24.58 200.9 C-22.85 211.31, -19.99 222.42, -15.46 230.37 M-24.56 202.75 C-23.41 209.44, -20.82 216.17, -17.64 231.16" stroke="#c92a2a" stroke-width="1" fill="none"></path></g><g transform="translate(2695.162902763116 1249.8681298020692) rotate(0 -9.323181262893854 115.651224535837)"><path d="M-4.12 202.44 C-8.86 212.49, -12.48 223.12, -15.46 230.37 M-4.1 204.3 C-7.98 210.45, -10.44 216.8, -17.64 231.16" stroke="#c92a2a" stroke-width="1" fill="none"></path></g></g><a href="/生长激素在细胞转导中可以通过哪两条通路发挥作用"><g transform="translate(2514.7837233585865 1214.2889225376691) rotate(0 231 14.5)"><text x="0" y="21" font-family="Virgil, Segoe UI Emoji" font-size="20px" fill="#c92a2a" text-anchor="start" style="white-space: pre;" direction="ltr">生长激素在细胞转导中可以通过哪两条通路发挥作用</text></g></a><g stroke-linecap="round"><g transform="translate(2655.1179103467393 1201.819276102355) rotate(0 140.3742879044382 -259.999986596034)"><path d="M0.81 -0.61 C47.46 -87.41, 234.25 -433.53, 280.97 -520.17 M-0.22 1.68 C46.14 -85.48, 233.04 -434.34, 279.77 -521.68" stroke="#c92a2a" stroke-width="1" fill="none"></path></g><g transform="translate(2655.1179103467393 1201.819276102355) rotate(0 140.3742879044382 -259.999986596034)"><path d="M274.49 -492.76 C278.98 -504.12, 280.12 -516.77, 279.23 -521.76 M276.22 -492.94 C277.69 -499.11, 278.29 -507.96, 279.38 -521.96" stroke="#c92a2a" stroke-width="1" fill="none"></path></g><g transform="translate(2655.1179103467393 1201.819276102355) rotate(0 140.3742879044382 -259.999986596034)"><path d="M256.4 -502.45 C267.97 -510.16, 276.16 -519.04, 279.23 -521.76 M258.13 -502.63 C264.24 -506.25, 269.51 -512.6, 279.38 -521.96" stroke="#c92a2a" stroke-width="1" fill="none"></path></g></g><g stroke-linecap="round"><g transform="translate(2211.6039863927513 1033.6550749011892) rotate(0 -44.33548184869932 200.2308946186298)"><path d="M-0.09 0.58 C-14.79 66.95, -73.23 332.7, -87.76 399.1 M-1.59 -0.16 C-16.46 66.34, -74.23 333.89, -88.58 400.62" stroke="#000000" stroke-width="1" fill="none"></path></g><g transform="translate(2211.6039863927513 1033.6550749011892) rotate(0 -44.33548184869932 200.2308946186298)"><path d="M-91.7 371.3 C-91.13 382.06, -89.95 391.64, -88.42 400.83 M-93.38 371.61 C-91.85 377.88, -90.24 384.85, -89.12 399.74" stroke="#000000" stroke-width="1" fill="none"></path></g><g transform="translate(2211.6039863927513 1033.6550749011892) rotate(0 -44.33548184869932 200.2308946186298)"><path d="M-71.64 375.63 C-77.84 384.92, -83.4 393.04, -88.42 400.83 M-73.32 375.94 C-76.55 381, -79.66 386.94, -89.12 399.74" stroke="#000000" stroke-width="1" fill="none"></path></g></g><a href="/NO与ANP通过哪条通路发挥作用"><g transform="translate(1989.6573475617874 1442.3354699735035) rotate(0 144.5 14.5)"><text x="0" y="21" font-family="Virgil, Segoe UI Emoji" font-size="20px" fill="#000000" text-anchor="start" style="white-space: pre;" direction="ltr">NO与ANP通过哪条通路发挥作用</text></g></a><g stroke-linecap="round"><g transform="translate(2127.885486532169 1478.001110563746) rotate(0 -0.9902789446230713 59.35225388570018)"><path d="M0.27 -0.06 C-0.2 19.81, -2.1 98.68, -2.25 118.35 M-1.05 -1.13 C-1.21 19, -0.11 99.81, -0.13 119.83" stroke="#000000" stroke-width="1" fill="none"></path></g><g transform="translate(2127.885486532169 1478.001110563746) rotate(0 -0.9902789446230713 59.35225388570018)"><path d="M-10.68 89.85 C-7.32 102.25, -4.32 111.57, -1.65 121.05 M-10.75 91.2 C-7.66 100.82, -4.63 109.12, -0.53 119.64" stroke="#000000" stroke-width="1" fill="none"></path></g><g transform="translate(2127.885486532169 1478.001110563746) rotate(0 -0.9902789446230713 59.35225388570018)"><path d="M9.84 89.7 C6.06 102.2, 1.93 111.57, -1.65 121.05 M9.77 91.05 C6.2 100.82, 2.58 109.16, -0.53 119.64" stroke="#000000" stroke-width="1" fill="none"></path></g></g><a href="/鸟苷酸环化酶受体的通路是"><g transform="translate(2016.2545179239964 1607.806659425249) rotate(0 121 14.5)"><text x="0" y="21" font-family="Virgil, Segoe UI Emoji" font-size="20px" fill="#000000" text-anchor="start" style="white-space: pre;" direction="ltr">鸟苷酸环化酶受体的通路是</text></g></a><g stroke-linecap="round"><g transform="translate(1379.489049407215 1163.719414171457) rotate(0 114.44942736693167 52.95443110787511)"><path d="M-0.37 0.76 C37.79 18.35, 191.05 87.15, 229.27 104.62 M1.63 0.12 C39.63 17.93, 190.7 87.98, 228.46 105.79" stroke="#000000" stroke-width="1" fill="none"></path></g><g transform="translate(1379.489049407215 1163.719414171457) rotate(0 114.44942736693167 52.95443110787511)"><path d="M199.85 103.6 C207.16 104.07, 218.47 105.65, 227.88 105.07 M197.79 102.76 C207.98 104.02, 217.61 103.92, 229 105.8" stroke="#000000" stroke-width="1" fill="none"></path></g><g transform="translate(1379.489049407215 1163.719414171457) rotate(0 114.44942736693167 52.95443110787511)"><path d="M208.54 85.01 C212.87 91.51, 221.35 99.16, 227.88 105.07 M206.47 84.17 C214.11 91.27, 221.04 96.96, 229 105.8" stroke="#000000" stroke-width="1" fill="none"></path></g></g><a href="/丝苏氨酸激酶受体的典型配体是"><g transform="translate(1584.3406532410286 1280.207156967844) rotate(0 141 14.5)"><text x="0" y="21" font-family="Virgil, Segoe UI Emoji" font-size="20px" fill="#000000" text-anchor="start" style="white-space: pre;" direction="ltr">丝苏氨酸激酶受体的典型配体是</text></g></a><g stroke-linecap="round"><g transform="translate(1726.9473406358359 1315.9044501746312) rotate(0 28.23745588521416 41.297004410853674)"><path d="M-0.47 -0.9 C8.95 13.08, 47.59 69.47, 56.94 83.49 M1.48 1.25 C10.71 14.88, 46.63 67.61, 56.04 81.5" stroke="#000000" stroke-width="1" fill="none"></path></g><g transform="translate(1726.9473406358359 1315.9044501746312) rotate(0 28.23745588521416 41.297004410853674)"><path d="M30.21 64.08 C40.29 67.99, 48.1 76.57, 57.14 81.32 M32.63 63.8 C38.56 69.47, 45.88 73.15, 55.25 81.26" stroke="#000000" stroke-width="1" fill="none"></path></g><g transform="translate(1726.9473406358359 1315.9044501746312) rotate(0 28.23745588521416 41.297004410853674)"><path d="M47.19 52.55 C51.49 60.28, 53.57 72.76, 57.14 81.32 M49.61 52.26 C50.75 61.23, 53.18 68.23, 55.25 81.26" stroke="#000000" stroke-width="1" fill="none"></path></g></g><a href="/丝苏氨酸激酶受体的通路是"><g transform="translate(1704.5371381231746 1404.1176162092165) rotate(0 121 14.500000000000057)"><text x="0" y="21" font-family="Virgil, Segoe UI Emoji" font-size="20px" fill="#000000" text-anchor="start" style="white-space: pre;" direction="ltr">丝苏氨酸激酶受体的通路是</text></g></a><g stroke-linecap="round"><g transform="translate(1290.8774426124846 1167.841679693267) rotate(0 65.3841652388362 200.68796942770092)"><path d="M-0.23 1.03 C21.75 67.6, 110.41 333.08, 132.58 399.4 M-1.81 0.52 C19.92 67.28, 109.17 334.28, 131.45 400.86" stroke="#000000" stroke-width="1" fill="none"></path></g><g transform="translate(1290.8774426124846 1167.841679693267) rotate(0 65.3841652388362 200.68796942770092)"><path d="M114.49 376.81 C119.23 385.58, 125.2 393.16, 131.46 402.72 M113.23 376.63 C118.92 385.19, 125.56 394.22, 131.53 401.59" stroke="#000000" stroke-width="1" fill="none"></path></g><g transform="translate(1290.8774426124846 1167.841679693267) rotate(0 65.3841652388362 200.68796942770092)"><path d="M133.96 370.31 C131.7 381.37, 130.68 391.28, 131.46 402.72 M132.69 370.12 C131.18 380.96, 130.63 392.39, 131.53 401.59" stroke="#000000" stroke-width="1" fill="none"></path></g></g><a href="/招募型受体的配体主要是"><g transform="translate(1426.6388938758523 1569.9521558484134) rotate(0 111 14.5)"><text x="0" y="21" font-family="Virgil, Segoe UI Emoji" font-size="20px" fill="#000000" text-anchor="start" style="white-space: pre;" direction="ltr">招募型受体的配体主要是</text></g></a><a href="/如何记忆核受体的配体"><g transform="translate(689.0615138416265 1155.9103932478633) rotate(0 101 14.5)"><text x="0" y="21" font-family="Virgil, Segoe UI Emoji" font-size="20px" fill="#000000" text-anchor="start" style="white-space: pre;" direction="ltr">如何记忆核受体的配体</text></g></a><g stroke-linecap="round"><g transform="translate(676.9693993968053 1163.94098322908) rotate(0 -129.02653662811576 -30.72134663289893)"><path d="M-0.04 0.65 C-43.02 -9.58, -214.54 -50.21, -257.6 -60.29 M-1.53 -0.06 C-44.59 -10.12, -215.09 -51.84, -258.01 -62.09" stroke="#000000" stroke-width="1" fill="none"></path></g><g transform="translate(676.9693993968053 1163.94098322908) rotate(0 -129.02653662811576 -30.72134663289893)"><path d="M-227.12 -63.72 C-236.72 -63.95, -245.49 -63.2, -259.52 -61.24 M-227.25 -66.35 C-238.25 -63.25, -246.09 -63.09, -257.14 -62.4" stroke="#000000" stroke-width="1" fill="none"></path></g><g transform="translate(676.9693993968053 1163.94098322908) rotate(0 -129.02653662811576 -30.72134663289893)"><path d="M-231.94 -43.77 C-240.18 -50.4, -247.39 -56.05, -259.52 -61.24 M-232.07 -46.41 C-241.73 -49.49, -248.09 -55.49, -257.14 -62.4" stroke="#000000" stroke-width="1" fill="none"></path></g></g><a href="/甲状腺激素诱导蛋白包括"><g transform="translate(181.76414885439726 1070.9951777604508) rotate(0 111 14.5)"><text x="0" y="21" font-family="Virgil, Segoe UI Emoji" font-size="20px" fill="#000000" text-anchor="start" style="white-space: pre;" direction="ltr">甲状腺激素诱导蛋白包括</text></g></a><a href="/转录因子DNA结合结构域包括"><g transform="translate(10 1243.9175164793949) rotate(0 132 14.5)"><text x="0" y="21" font-family="Virgil, Segoe UI Emoji" font-size="20px" fill="#000000" text-anchor="start" style="white-space: pre;" direction="ltr">转录因子DNA结合结构域包括</text></g></a><a href="/核受体的本质是"><g transform="translate(398.49361610635424 1237.9020722049459) rotate(0 71 14.5)"><text x="0" y="21" font-family="Virgil, Segoe UI Emoji" font-size="20px" fill="#000000" text-anchor="start" style="white-space: pre;" direction="ltr">核受体的本质是</text></g></a><g stroke-linecap="round"><g transform="translate(674.9744556213095 1175.0534833391314) rotate(0 -65.42608092675368 28.16462340065533)"><path d="M0.82 -0.56 C-20.9 8.91, -108.61 47.32, -130.64 56.89 M-0.21 1.76 C-22.07 10.86, -110.22 46.19, -131.67 55.03" stroke="#000000" stroke-width="1" fill="none"></path></g><g transform="translate(674.9744556213095 1175.0534833391314) rotate(0 -65.42608092675368 28.16462340065533)"><path d="M-110.34 34.66 C-114.64 39.06, -120.77 47.2, -130.77 56.37 M-109.63 35.46 C-117.66 42.67, -124.68 49.97, -130.77 55.96" stroke="#000000" stroke-width="1" fill="none"></path></g><g transform="translate(674.9744556213095 1175.0534833391314) rotate(0 -65.42608092675368 28.16462340065533)"><path d="M-102.63 53.68 C-109.05 52.95, -117.28 55.89, -130.77 56.37 M-101.92 54.48 C-112.89 54.75, -122.71 55.16, -130.77 55.96" stroke="#000000" stroke-width="1" fill="none"></path></g></g><g stroke-linecap="round"><g transform="translate(388.2637893291944 1251.402175555297) rotate(0 -53.81402954091891 2.649721505779496)"><path d="M-0.46 0.87 C-18.82 1.51, -91.31 2.95, -109.12 3.51 M1.5 0.28 C-16.56 1.15, -88.63 4.69, -106.81 5.02" stroke="#000000" stroke-width="1" fill="none"></path></g><g transform="translate(388.2637893291944 1251.402175555297) rotate(0 -53.81402954091891 2.649721505779496)"><path d="M-77.56 -7.5 C-89.81 -0.32, -99.27 2.43, -107.74 4.21 M-78.21 -6.97 C-85.2 -4.57, -91.41 -0.39, -107.69 4.17" stroke="#000000" stroke-width="1" fill="none"></path></g><g transform="translate(388.2637893291944 1251.402175555297) rotate(0 -53.81402954091891 2.649721505779496)"><path d="M-76.82 13.01 C-89.29 12.31, -99.04 7.17, -107.74 4.21 M-77.47 13.54 C-84.63 11.09, -91.01 10.41, -107.69 4.17" stroke="#000000" stroke-width="1" fill="none"></path></g></g></svg>