<svg version="1.1" xmlns="http://www.w3.org/2000/svg" viewBox="0 0 826.0303137416857 408.21230230179765" width="1652.0606274833715" height="816.4246046035953">
  <!-- svg-source:excalidraw -->
  
  <defs>
    <style>
      @font-face {
        font-family: "Virgil";
        src: url("https://excalidraw.com/Virgil.woff2");
      }
      @font-face {
        font-family: "Cascadia";
        src: url("https://excalidraw.com/Cascadia.woff2");
      }
    </style>
  </defs>
  <rect x="0" y="0" width="826.0303137416857" height="408.21230230179765" fill="#fdf6e3"></rect><g transform="translate(253.55056207777045 10) rotate(0 121 14.5)"><text x="0" y="21" font-family="Virgil, Segoe UI Emoji" font-size="20px" fill="#000000" text-anchor="start" style="white-space: pre;" direction="ltr">如何记忆胰岛素的分泌机制</text></g><g transform="translate(201.1093844173496 73.0839022334215) rotate(0 4 12.5)"><text x="0" y="18" font-family="Virgil, Segoe UI Emoji" font-size="20px" fill="#c92a2a" text-anchor="start" style="white-space: pre;" direction="ltr">1</text></g><g transform="translate(230.07622864655502 66.41561536945511) rotate(0 161 14.5)"><text x="0" y="21" font-family="Virgil, Segoe UI Emoji" font-size="20px" fill="#000000" text-anchor="start" style="white-space: pre;" direction="ltr">首先知道葡萄糖增多促进胰岛素分泌</text></g><g stroke-linecap="round"><g transform="translate(332.82318944692463 89.47182154436726) rotate(0 0.14775812132319288 36.9808620703873)"><path d="M-0.6 -0.66 C-0.64 11.73, -0.5 61.11, -0.49 73.51 M1.28 1.61 C1.18 14.21, -0.63 62.43, -0.99 74.62" stroke="#000000" stroke-width="1" fill="none"></path></g><g transform="translate(332.82318944692463 89.47182154436726) rotate(0 0.14775812132319288 36.9808620703873)"><path d="M-11.39 47.53 C-9.25 55.52, -6.25 61.04, -1.51 75.21 M-10.7 46.86 C-8.65 53.37, -6.07 61.9, -1.92 75.6" stroke="#000000" stroke-width="1" fill="none"></path></g><g transform="translate(332.82318944692463 89.47182154436726) rotate(0 0.14775812132319288 36.9808620703873)"><path d="M9.12 48.21 C5.51 55.91, 2.75 61.24, -1.51 75.21 M9.81 47.55 C6.04 53.81, 2.79 62.15, -1.92 75.6" stroke="#000000" stroke-width="1" fill="none"></path></g></g><g transform="translate(353.61084813090395 117.66303921302375) rotate(0 133 14.5)"><text x="0" y="21" font-family="Virgil, Segoe UI Emoji" font-size="20px" fill="#000000" text-anchor="start" style="white-space: pre;" direction="ltr">葡萄糖通过何途径进入B细胞?</text></g><g transform="translate(305.583868678926 168.42092027952674) rotate(0 42.5 14.5)"><text x="0" y="21" font-family="Virgil, Segoe UI Emoji" font-size="20px" fill="#000000" text-anchor="start" style="white-space: pre;" direction="ltr">产生ATP</text></g><g stroke-linecap="round"><g transform="translate(336.67694735802377 196.38840664576674) rotate(0 -0.22691460371697758 30.93347989559661)"><path d="M0.94 0.39 C0.78 10.68, -0.3 52.33, -0.28 62.32 M-0.02 -0.46 C-0.43 9.48, -1.53 50.52, -1.38 60.79" stroke="#000000" stroke-width="1" fill="none"></path></g><g transform="translate(336.67694735802377 196.38840664576674) rotate(0 -0.22691460371697758 30.93347989559661)"><path d="M-10.73 32.01 C-5.78 44.33, -5.5 51.42, -0.57 62.03 M-10.83 33.47 C-8.28 42.9, -4.03 52.91, -1.69 60.55" stroke="#000000" stroke-width="1" fill="none"></path></g><g transform="translate(336.67694735802377 196.38840664576674) rotate(0 -0.22691460371697758 30.93347989559661)"><path d="M9.79 32.21 C7.38 44.61, 0.29 51.63, -0.57 62.03 M9.69 33.67 C5.11 43.2, 2.22 53.15, -1.69 60.55" stroke="#000000" stroke-width="1" fill="none"></path></g></g><g transform="translate(352.3255516421299 208.09346298564458) rotate(0 126 14.5)"><text x="0" y="21" font-family="Virgil, Segoe UI Emoji" font-size="20px" fill="#000000" text-anchor="start" style="white-space: pre;" direction="ltr">执行细胞膜去极化的通道是?</text></g><g transform="translate(650.8606583183106 124.94246404862321) rotate(0 8 12.5)"><text x="0" y="18" font-family="Virgil, Segoe UI Emoji" font-size="20px" fill="#c92a2a" text-anchor="start" style="white-space: pre;" direction="ltr">2</text></g><g transform="translate(656.98413868147 192.48532569312604) rotate(0 8 12.5)"><text x="0" y="18" font-family="Virgil, Segoe UI Emoji" font-size="20px" fill="#c92a2a" text-anchor="start" style="white-space: pre;" direction="ltr">3</text></g><g transform="translate(317.24911000721124 369.21230230179765) rotate(0 51 14.5)"><text x="0" y="21" font-family="Virgil, Segoe UI Emoji" font-size="20px" fill="#c92a2a" text-anchor="start" style="white-space: pre;" direction="ltr">胰岛素释放</text></g><g transform="translate(273.35045218642415 266.8542946997479) rotate(0 101 14.5)"><text x="0" y="21" font-family="Virgil, Segoe UI Emoji" font-size="20px" fill="#000000" text-anchor="start" style="white-space: pre;" direction="ltr">细胞膜去极化的结果是</text></g><g stroke-linecap="round"><g transform="translate(355.48499947109246 300.87970506239947) rotate(0 -1.6448798175327966 30.784473619185924)"><path d="M0.2 0.77 C-0.29 10.85, -2.14 50.35, -2.78 60.47 M-1.15 0.12 C-1.77 10.32, -2.91 51, -3.49 61.44" stroke="#000000" stroke-width="1" fill="none"></path></g><g transform="translate(355.48499947109246 300.87970506239947) rotate(0 -1.6448798175327966 30.784473619185924)"><path d="M-11.32 33.61 C-11.53 41.12, -6.93 49.89, -5.48 62.05 M-12.15 32.13 C-9.96 39.88, -6.95 47.68, -3.85 61.27" stroke="#000000" stroke-width="1" fill="none"></path></g><g transform="translate(355.48499947109246 300.87970506239947) rotate(0 -1.6448798175327966 30.784473619185924)"><path d="M9.18 34.44 C2.52 41.73, 0.66 50.23, -5.48 62.05 M8.36 32.96 C5.17 40.56, 2.8 48.14, -3.85 61.27" stroke="#000000" stroke-width="1" fill="none"></path></g></g><g transform="translate(527.4420617921365 273.101578235092) rotate(0 7.5 12.5)"><text x="0" y="18" font-family="Virgil, Segoe UI Emoji" font-size="20px" fill="#c92a2a" text-anchor="start" style="white-space: pre;" direction="ltr">4</text></g><g stroke-linecap="round"><g transform="translate(756.1699762472737 218.04253560514422) rotate(0 -69.85925010196138 3.75303078444335)"><path d="M0.77 -0.79 C-22.55 0.71, -117.1 6.96, -140.49 8.3 M-0.28 1.41 C-23.19 2.6, -114.93 5.24, -138.27 6.36" stroke="#c92a2a" stroke-width="1" fill="none"></path></g><g transform="translate(756.1699762472737 218.04253560514422) rotate(0 -69.85925010196138 3.75303078444335)"><path d="M-111.8 -6.51 C-117.01 -1.88, -125.89 2.05, -136.63 5.57 M-109.77 -4.74 C-120.37 -0.51, -132.27 4.52, -137.5 5.82" stroke="#c92a2a" stroke-width="1" fill="none"></path></g><g transform="translate(756.1699762472737 218.04253560514422) rotate(0 -69.85925010196138 3.75303078444335)"><path d="M-111.03 14 C-116.31 13.42, -125.39 12.14, -136.63 5.57 M-109.01 15.77 C-120.05 11.98, -132.25 8.99, -137.5 5.82" stroke="#c92a2a" stroke-width="1" fill="none"></path></g></g><g transform="translate(644.2030159071777 246.35644275268243) rotate(0 81 14.5)"><text x="0" y="21" font-family="Virgil, Segoe UI Emoji" font-size="20px" fill="#c92a2a" text-anchor="start" style="white-space: pre;" direction="ltr">不依赖葡萄糖的药</text></g><g stroke-linecap="round"><g transform="translate(188.20464400107028 173.62928715182738) rotate(0 50.36905429797338 3.558707384706196)"><path d="M0.1 -0.73 C16.91 0.77, 85.09 6.65, 102.04 7.85 M-1.31 1.5 C15.26 2.79, 84.13 5.3, 101.19 6.33" stroke="#c92a2a" stroke-width="1" fill="none"></path></g><g transform="translate(188.20464400107028 173.62928715182738) rotate(0 50.36905429797338 3.558707384706196)"><path d="M71.33 15.56 C85.98 11.66, 95.11 6.52, 99.41 7.6 M72.32 15.28 C81.18 11.85, 90.73 10.1, 100.29 5.76" stroke="#c92a2a" stroke-width="1" fill="none"></path></g><g transform="translate(188.20464400107028 173.62928715182738) rotate(0 50.36905429797338 3.558707384706196)"><path d="M72.3 -4.94 C86.36 -0.67, 95.11 2.36, 99.41 7.6 M73.29 -5.22 C81.82 -2.31, 91.08 2.29, 100.29 5.76" stroke="#c92a2a" stroke-width="1" fill="none"></path></g></g><g transform="translate(33.886813687548624 148.33217049254887) rotate(0 71 14.5)"><text x="0" y="21" font-family="Virgil, Segoe UI Emoji" font-size="20px" fill="#c92a2a" text-anchor="start" style="white-space: pre;" direction="ltr">依赖葡萄糖的药</text></g><g transform="translate(801.0303137416857 186.71692800464592) rotate(0 7.5 12.5)"><text x="0" y="18" font-family="Virgil, Segoe UI Emoji" font-size="20px" fill="#c92a2a" text-anchor="start" style="white-space: pre;" direction="ltr">5</text></g><g transform="translate(10 123.02837298927102) rotate(0 7.5 12.5)"><text x="0" y="18" font-family="Virgil, Segoe UI Emoji" font-size="20px" fill="#c92a2a" text-anchor="start" style="white-space: pre;" direction="ltr">6</text></g></svg>